<?xml version="1.0" encoding="UTF-8" standalone="no"?>
<!DOCTYPE svg PUBLIC "-//W3C//DTD SVG 1.1//EN"
 "http://www.w3.org/Graphics/SVG/1.1/DTD/svg11.dtd">
<!-- Generated by graphviz version 2.38.0 (20140413.2041)
 -->
<!-- Title: %3 Pages: 1 -->
<svg width="605pt" height="491pt"
 viewBox="0.00 0.00 604.50 491.25" xmlns="http://www.w3.org/2000/svg" xmlns:xlink="http://www.w3.org/1999/xlink">
<g id="graph0" class="graph" transform="scale(1 1) rotate(0) translate(164.897 284.703)">
<title>%3</title>
<polygon fill="#e5e5e5" stroke="none" points="-164.897,206.544 -164.897,-284.703 439.607,-284.703 439.607,206.544 -164.897,206.544"/>
<!-- scene.lr_dimmed -->
<g id="node1" class="node"><title>scene.lr_dimmed</title>
<polygon fill="white" stroke="turquoise" points="-155.096,-106.735 -258.096,-106.735 -258.096,-70.7352 -155.096,-70.7352 -155.096,-106.735"/>
<text text-anchor="middle" x="-206.596" y="-86.3352" font-family="arial" font-size="10.50" fill="#212121">scene.lr_dimmed</text>
</g>
<!-- light.hue_color_lamp_3 -->
<g id="node2" class="node"><title>light.hue_color_lamp_3</title>
<polygon fill="white" stroke="yellow" points="-5.43968,-3.76827 -138.44,-3.76827 -138.44,32.2317 -5.43968,32.2317 -5.43968,-3.76827"/>
<text text-anchor="middle" x="-71.9397" y="16.6317" font-family="arial" font-size="10.50" fill="#212121">light.hue_color_lamp_3</text>
</g>
<!-- scene.lr_dimmed&#45;&gt;light.hue_color_lamp_3 -->
<g id="edge1" class="edge"><title>scene.lr_dimmed&#45;&gt;light.hue_color_lamp_3</title>
<path fill="none" stroke="black" d="M-190.549,-70.5506C-171.956,-50.2597 -158.845,-40.6077 -107.289,-8.00686"/>
<polygon fill="black" stroke="black" points="-100.808,-3.91513 -105.348,-10.773 -103.979,-5.91714 -107.15,-7.91914 -107.15,-7.91914 -107.15,-7.91914 -103.979,-5.91714 -108.952,-5.06533 -100.808,-3.91513 -100.808,-3.91513"/>
<text text-anchor="middle" x="-154.397" y="-37.9661" font-family="arial" font-size="10.50" fill="#212121">on</text>
</g>
<!-- light.hue_color_lamp_1 -->
<g id="node3" class="node"><title>light.hue_color_lamp_1</title>
<polygon fill="white" stroke="yellow" points="141.694,0.639166 8.69408,0.639166 8.69408,36.6392 141.694,36.6392 141.694,0.639166"/>
<text text-anchor="middle" x="75.1941" y="21.0392" font-family="arial" font-size="10.50" fill="#212121">light.hue_color_lamp_1</text>
</g>
<!-- scene.lr_dimmed&#45;&gt;light.hue_color_lamp_1 -->
<g id="edge2" class="edge"><title>scene.lr_dimmed&#45;&gt;light.hue_color_lamp_1</title>
<path fill="none" stroke="black" d="M-154.764,-78.0865C-110.155,-67.5889 -78.9887,-54.0529 29.9245,-2.73121"/>
<polygon fill="black" stroke="black" points="36.8686,0.542397 31.5238,-5.70856 33.4766,-1.05669 30.0846,-2.65578 30.0846,-2.65578 30.0846,-2.65578 33.4766,-1.05669 28.6454,0.397007 36.8686,0.542397 36.8686,0.542397"/>
<text text-anchor="middle" x="-63.4746" y="-46.5784" font-family="arial" font-size="10.50" fill="#212121">on</text>
</g>
<!-- light.hue_color_lamp_2 -->
<g id="node4" class="node"><title>light.hue_color_lamp_2</title>
<polygon fill="white" stroke="yellow" points="121.554,-139.686 -11.4458,-139.686 -11.4458,-103.686 121.554,-103.686 121.554,-139.686"/>
<text text-anchor="middle" x="55.0542" y="-119.286" font-family="arial" font-size="10.50" fill="#212121">light.hue_color_lamp_2</text>
</g>
<!-- scene.lr_dimmed&#45;&gt;light.hue_color_lamp_2 -->
<g id="edge3" class="edge"><title>scene.lr_dimmed&#45;&gt;light.hue_color_lamp_2</title>
<path fill="none" stroke="black" d="M-175.957,-106.807C-116.842,-140.953 -94.7884,-146.415 -19.007,-134.626"/>
<polygon fill="black" stroke="black" points="-11.5025,-133.432 -18.3788,-137.944 -15.2059,-134.021 -18.9093,-134.611 -18.9093,-134.611 -18.9093,-134.611 -15.2059,-134.021 -19.4398,-131.278 -11.5025,-133.432 -11.5025,-133.432"/>
<text text-anchor="middle" x="-102.8" y="-142.703" font-family="arial" font-size="10.50" fill="#212121">on</text>
</g>
<!-- script.play_cartoons -->
<g id="node5" class="node"><title>script.play_cartoons</title>
<polygon fill="white" stroke="brown" points="320.618,41.0665 202.618,41.0665 202.618,77.0665 320.618,77.0665 320.618,41.0665"/>
<text text-anchor="middle" x="261.618" y="61.4665" font-family="arial" font-size="10.50" fill="#212121">script.play_cartoons</text>
</g>
<!-- shell_command -->
<g id="node6" class="node"><title>shell_command</title>
<polygon fill="white" stroke="black" points="353.639,98.3895 257.639,98.3895 257.639,134.39 353.639,134.39 353.639,98.3895"/>
<text text-anchor="middle" x="305.639" y="118.79" font-family="arial" font-size="10.50" fill="#212121">shell_command</text>
</g>
<!-- script.play_cartoons&#45;&gt;shell_command -->
<g id="edge4" class="edge"><title>script.play_cartoons&#45;&gt;shell_command</title>
<path fill="none" stroke="black" d="M285.134,77.2972C287.826,80.866 290.438,85.3246 293.62,91.5172"/>
<polygon fill="black" stroke="black" points="297.016,98.3192 296.686,90.1014 295.341,94.964 293.666,91.6088 293.666,91.6088 293.666,91.6088 295.341,94.964 290.646,93.1163 297.016,98.3192 297.016,98.3192"/>
<text text-anchor="middle" x="363.607" y="84.0934" font-family="arial" font-size="10.50" fill="#212121">shell_command.play_cartoons</text>
</g>
<!-- scene.lr_relax -->
<g id="node7" class="node"><title>scene.lr_relax</title>
<polygon fill="white" stroke="turquoise" points="241.461,-113.217 152.461,-113.217 152.461,-77.2168 241.461,-77.2168 241.461,-113.217"/>
<text text-anchor="middle" x="196.961" y="-92.8168" font-family="arial" font-size="10.50" fill="#212121">scene.lr_relax</text>
</g>
<!-- scene.lr_relax&#45;&gt;light.hue_color_lamp_3 -->
<g id="edge5" class="edge"><title>scene.lr_relax&#45;&gt;light.hue_color_lamp_3</title>
<path fill="none" stroke="black" d="M152.39,-83.4469C108.452,-70.9856 80.073,-58.3702 -27.2218,-7.14789"/>
<polygon fill="black" stroke="black" points="-34.0658,-3.87941 -25.8434,-4.06604 -30.6818,-5.49549 -27.2979,-7.11157 -27.2979,-7.11157 -27.2979,-7.11157 -30.6818,-5.49549 -28.7524,-10.1571 -34.0658,-3.87941 -34.0658,-3.87941"/>
<text text-anchor="middle" x="50.8941" y="-50.5835" font-family="arial" font-size="10.50" fill="#212121">on</text>
</g>
<!-- scene.lr_relax&#45;&gt;light.hue_color_lamp_1 -->
<g id="edge6" class="edge"><title>scene.lr_relax&#45;&gt;light.hue_color_lamp_1</title>
<path fill="none" stroke="black" d="M185.527,-77.0764C168.774,-51.4125 157.798,-41.4445 106.413,-3.98662"/>
<polygon fill="black" stroke="black" points="100.289,0.469174 108.339,-1.21449 103.321,-1.73718 106.353,-3.94354 106.353,-3.94354 106.353,-3.94354 103.321,-1.73718 104.368,-6.67258 100.289,0.469174 100.289,0.469174"/>
<text text-anchor="middle" x="139.769" y="-37.6674" font-family="arial" font-size="10.50" fill="#212121">on</text>
</g>
<!-- scene.lr_relax&#45;&gt;light.hue_color_lamp_2 -->
<g id="edge7" class="edge"><title>scene.lr_relax&#45;&gt;light.hue_color_lamp_2</title>
<path fill="none" stroke="black" d="M167.908,-113.27C155.472,-119.964 145.049,-123.146 129.472,-124.154"/>
<polygon fill="black" stroke="black" points="121.927,-124.469 129.28,-120.784 125.674,-124.313 129.42,-124.156 129.42,-124.156 129.42,-124.156 125.674,-124.313 129.561,-127.528 121.927,-124.469 121.927,-124.469"/>
<text text-anchor="middle" x="139.294" y="-125.498" font-family="arial" font-size="10.50" fill="#212121">on</text>
</g>
<!-- scene.lr_concentrate -->
<g id="node8" class="node"><title>scene.lr_concentrate</title>
<polygon fill="white" stroke="turquoise" points="-12.8437,-147.72 -134.844,-147.72 -134.844,-111.72 -12.8437,-111.72 -12.8437,-147.72"/>
<text text-anchor="middle" x="-73.8437" y="-127.32" font-family="arial" font-size="10.50" fill="#212121">scene.lr_concentrate</text>
</g>
<!-- scene.lr_concentrate&#45;&gt;light.hue_color_lamp_3 -->
<g id="edge8" class="edge"><title>scene.lr_concentrate&#45;&gt;light.hue_color_lamp_3</title>
<path fill="none" stroke="black" d="M-80.5226,-111.57C-91.3409,-80.731 -90.7393,-68.7929 -77.8706,-11.713"/>
<polygon fill="black" stroke="black" points="-76.1521,-4.13635 -74.5198,-12.1972 -76.9816,-7.79345 -77.8112,-11.4506 -77.8112,-11.4506 -77.8112,-11.4506 -76.9816,-7.79345 -81.1026,-10.704 -76.1521,-4.13635 -76.1521,-4.13635"/>
<text text-anchor="middle" x="-93.2188" y="-59.9835" font-family="arial" font-size="10.50" fill="#212121">on</text>
</g>
<!-- scene.lr_concentrate&#45;&gt;light.hue_color_lamp_1 -->
<g id="edge9" class="edge"><title>scene.lr_concentrate&#45;&gt;light.hue_color_lamp_1</title>
<path fill="none" stroke="black" d="M-31.3946,-111.639C5.72451,-93.6883 18.8436,-75.9195 60.5875,-5.94752"/>
<polygon fill="black" stroke="black" points="64.4468,0.532072 63.5085,-7.63866 62.5278,-2.68976 60.6088,-5.91159 60.6088,-5.91159 60.6088,-5.91159 62.5278,-2.68976 57.7092,-4.18452 64.4468,0.532072 64.4468,0.532072"/>
<text text-anchor="middle" x="18.7178" y="-65.7987" font-family="arial" font-size="10.50" fill="#212121">on</text>
</g>
<!-- scene.lr_concentrate&#45;&gt;light.hue_color_lamp_2 -->
<g id="edge10" class="edge"><title>scene.lr_concentrate&#45;&gt;light.hue_color_lamp_2</title>
<path fill="none" stroke="black" d="M-12.6013,-145.187C-6.58941,-145.112 -0.708353,-144.153 5.87029,-142.259"/>
<polygon fill="black" stroke="black" points="13.3218,-139.833 7.2349,-145.364 9.756,-140.994 6.19017,-142.154 6.19017,-142.154 6.19017,-142.154 9.756,-140.994 5.14544,-138.945 13.3218,-139.833 13.3218,-139.833"/>
<text text-anchor="middle" x="-6.03333" y="-147.236" font-family="arial" font-size="10.50" fill="#212121">on</text>
</g>
<!-- scene.lr_read -->
<g id="node9" class="node"><title>scene.lr_read</title>
<polygon fill="white" stroke="turquoise" points="-145.031,98.9875 -233.031,98.9875 -233.031,134.987 -145.031,134.987 -145.031,98.9875"/>
<text text-anchor="middle" x="-189.031" y="119.387" font-family="arial" font-size="10.50" fill="#212121">scene.lr_read</text>
</g>
<!-- scene.lr_read&#45;&gt;light.hue_color_lamp_3 -->
<g id="edge11" class="edge"><title>scene.lr_read&#45;&gt;light.hue_color_lamp_3</title>
<path fill="none" stroke="black" d="M-174.361,98.9452C-158.664,80.3718 -146.864,70.4295 -102.325,36.9695"/>
<polygon fill="black" stroke="black" points="-96.125,32.3175 -104.15,34.119 -99.1246,34.568 -102.124,36.8186 -102.124,36.8186 -102.124,36.8186 -99.1246,34.568 -100.099,39.5182 -96.125,32.3175 -96.125,32.3175"/>
<text text-anchor="middle" x="-143.388" y="59.8462" font-family="arial" font-size="10.50" fill="#212121">on</text>
</g>
<!-- scene.lr_read&#45;&gt;light.hue_color_lamp_1 -->
<g id="edge12" class="edge"><title>scene.lr_read&#45;&gt;light.hue_color_lamp_1</title>
<path fill="none" stroke="black" d="M-144.744,114.07C-92.9333,109.236 -67.7211,97.7178 35.9031,40.4291"/>
<polygon fill="black" stroke="black" points="42.516,36.7701 34.3196,37.4481 39.2348,38.5856 35.9536,40.4012 35.9536,40.4012 35.9536,40.4012 39.2348,38.5856 37.5876,43.3543 42.516,36.7701 42.516,36.7701"/>
<text text-anchor="middle" x="-53.1984" y="92.9122" font-family="arial" font-size="10.50" fill="#212121">on</text>
</g>
<!-- scene.lr_read&#45;&gt;light.hue_color_lamp_2 -->
<g id="edge13" class="edge"><title>scene.lr_read&#45;&gt;light.hue_color_lamp_2</title>
<path fill="none" stroke="black" d="M-181.383,98.7746C-137.556,-5.10267 -126.683,-17.3947 16.3225,-99.5285"/>
<polygon fill="black" stroke="black" points="23.2328,-103.493 15.0479,-102.688 19.9801,-101.627 16.7274,-99.7608 16.7274,-99.7608 16.7274,-99.7608 19.9801,-101.627 18.4069,-96.8333 23.2328,-103.493 23.2328,-103.493"/>
<text text-anchor="middle" x="-105.194" y="-30.7586" font-family="arial" font-size="10.50" fill="#212121">on</text>
</g>
<!-- notify -->
<g id="node11" class="node"><title>notify</title>
<polygon fill="white" stroke="black" points="-7.36132,-269.61 -61.3613,-269.61 -61.3613,-233.61 -7.36132,-233.61 -7.36132,-269.61"/>
<text text-anchor="middle" x="-34.3613" y="-249.21" font-family="arial" font-size="10.50" fill="#212121">notify</text>
</g>
<!-- updater.updater&#45;&gt;notify -->
<g id="edge14" class="edge"><title>updater.updater&#45;&gt;notify</title>
<path fill="none" stroke="black" d="M-65.602,-290.89C-62.6596,-286.988 -59.112,-282.464 -53.8263,-275.842"/>
<polygon fill="black" stroke="black" points="-48.9525,-269.754 -51.0047,-277.718 -51.296,-272.681 -53.6395,-275.609 -53.6395,-275.609 -53.6395,-275.609 -51.296,-272.681 -56.2743,-273.5 -48.9525,-269.754 -48.9525,-269.754"/>
<text text-anchor="middle" x="-84.1917" y="-272.303" font-family="arial" font-size="10.50" fill="#212121">notify.justin</text>
</g>
<!-- device_tracker.bigdrakar_nicole -->
<g id="node12" class="node"><title>device_tracker.bigdrakar_nicole</title>
<polygon fill="white" stroke="purple" points="76.2432,-201.456 -96.7568,-201.456 -96.7568,-165.456 76.2432,-165.456 76.2432,-201.456"/>
<text text-anchor="middle" x="-10.2568" y="-181.056" font-family="arial" font-size="10.50" fill="#212121">device_tracker.bigdrakar_nicole</text>
</g>
<!-- device_tracker.bigdrakar_nicole&#45;&gt;notify -->
<g id="edge15" class="edge"><title>device_tracker.bigdrakar_nicole&#45;&gt;notify</title>
<path fill="none" stroke="black" d="M-23.2189,-201.463C-26.4586,-208.8 -29.5998,-217.415 -31.9741,-225.42"/>
<polygon fill="black" stroke="black" points="-34.0681,-233.152 -35.3651,-225.031 -33.0878,-229.533 -32.1075,-225.913 -32.1075,-225.913 -32.1075,-225.913 -33.0878,-229.533 -28.8498,-226.795 -34.0681,-233.152 -34.0681,-233.152"/>
<text text-anchor="middle" x="-55.7809" y="-220.625" font-family="arial" font-size="10.50" fill="#212121">notify.justin</text>
</g>
<!-- device_tracker.bigdrakar_nicole&#45;&gt;notify -->
<g id="edge16" class="edge"><title>device_tracker.bigdrakar_nicole&#45;&gt;notify</title>
<path fill="none" stroke="black" d="M-10.4635,-201.555C-12.2573,-209.058 -15.0945,-217.887 -18.2633,-226.029"/>
<polygon fill="black" stroke="black" points="-21.2462,-233.256 -21.5042,-225.035 -19.8153,-229.789 -18.3845,-226.323 -18.3845,-226.323 -18.3845,-226.323 -19.8153,-229.789 -15.2648,-227.611 -21.2462,-233.256 -21.2462,-233.256"/>
<text text-anchor="middle" x="11.358" y="-221.071" font-family="arial" font-size="10.50" fill="#212121">notify.justin</text>
</g>
<!-- input_select.radio_station -->
<g id="node13" class="node"><title>input_select.radio_station</title>
<polygon fill="white" stroke="black" points="325.574,-48.6805 181.574,-48.6805 181.574,-12.6805 325.574,-12.6805 325.574,-48.6805"/>
<text text-anchor="middle" x="253.574" y="-28.2805" font-family="arial" font-size="10.50" fill="#212121">input_select.radio_station</text>
</g>
<!-- {% if is_state(&#39;input_select.radio_station_location&#39;, &#39;Kitchen&#39;) %}
 &#160;media_player.kitchen
{% elif is_state(&#39;input_select.radio_station_location&#39;, &#39;Backyard&#39;) %}
 &#160;media_player.backyard
{% endif %}
 -->
<g id="node14" class="node"><title>{% if is_state(&#39;input_select.radio_station_location&#39;, &#39;Kitchen&#39;) %}
 &#160;media_player.kitchen
{% elif is_state(&#39;input_select.radio_station_location&#39;, &#39;Backyard&#39;) %}
 &#160;media_player.backyard
{% endif %}
</title>
<polygon fill="white" stroke="black" points="670.087,-64.6804 332.087,-64.6804 332.087,3.31956 670.087,3.31956 670.087,-64.6804"/>
<text text-anchor="middle" x="501.087" y="-52.2804" font-family="arial" font-size="10.50" fill="#212121">{% if is_state(&#39;input_select.radio_station_location&#39;, &#39;Kitchen&#39;) %}</text>
<text text-anchor="middle" x="501.087" y="-40.2804" font-family="arial" font-size="10.50" fill="#212121"> &#160;media_player.kitchen</text>
<text text-anchor="middle" x="501.087" y="-28.2804" font-family="arial" font-size="10.50" fill="#212121">{% elif is_state(&#39;input_select.radio_station_location&#39;, &#39;Backyard&#39;) %}</text>
<text text-anchor="middle" x="501.087" y="-16.2804" font-family="arial" font-size="10.50" fill="#212121"> &#160;media_player.backyard</text>
<text text-anchor="middle" x="501.087" y="-4.28044" font-family="arial" font-size="10.50" fill="#212121">{% endif %}</text>
</g>
<!-- input_select.radio_station&#45;&gt;{% if is_state(&#39;input_select.radio_station_location&#39;, &#39;Kitchen&#39;) %}
 &#160;media_player.kitchen
{% elif is_state(&#39;input_select.radio_station_location&#39;, &#39;Backyard&#39;) %}
 &#160;media_player.backyard
{% endif %}
 -->
<g id="edge17" class="edge"><title>input_select.radio_station&#45;&gt;{% if is_state(&#39;input_select.radio_station_location&#39;, &#39;Kitchen&#39;) %}
 &#160;media_player.kitchen
{% elif is_state(&#39;input_select.radio_station_location&#39;, &#39;Backyard&#39;) %}
 &#160;media_player.backyard
{% endif %}
</title>
<path fill="none" stroke="black" d="M325.838,-30.6805C325.964,-30.6805 326.091,-30.6805 326.217,-30.6805"/>
<polygon fill="black" stroke="black" points="332.015,-30.6805 324.515,-34.0556 328.265,-30.6805 324.515,-30.6806 324.515,-30.6806 324.515,-30.6806 328.265,-30.6805 324.515,-27.3056 332.015,-30.6805 332.015,-30.6805"/>
<text text-anchor="middle" x="326.17" y="-22.2805" font-family="arial" font-size="10.50" fill="#212121">media_player.play_media</text>
</g>
<!-- input_select.scene_livingroom -->
<g id="node15" class="node"><title>input_select.scene_livingroom</title>
<polygon fill="white" stroke="black" points="257.88,-192.684 92.8803,-192.684 92.8803,-156.684 257.88,-156.684 257.88,-192.684"/>
<text text-anchor="middle" x="175.38" y="-172.284" font-family="arial" font-size="10.50" fill="#212121">input_select.scene_livingroom</text>
</g>
<!-- input_select.scene_livingroom&#45;&gt;input_select.scene_livingroom -->
<g id="edge19" class="edge"><title>input_select.scene_livingroom&#45;&gt;input_select.scene_livingroom</title>
<path fill="none" stroke="black" d="M258.177,-180.599C268.837,-179.573 275.88,-177.602 275.88,-174.684 275.88,-172.541 272.082,-170.908 265.842,-169.786"/>
<polygon fill="black" stroke="black" points="258.177,-168.768 266.056,-166.409 261.894,-169.261 265.611,-169.755 265.611,-169.755 265.611,-169.755 261.894,-169.261 265.167,-173.101 258.177,-168.768 258.177,-168.768"/>
<text text-anchor="middle" x="337.88" y="-172.284" font-family="arial" font-size="10.50" fill="#212121">input_select.select_option</text>
</g>
<!-- {% if is_state( &quot;input_select.scene_livingroom&quot;, &quot;Nightlight&quot; ) %}
 &#160;scene.livingroom_nightlight
{%&#45;elif is_state( &quot;input_select.scene_livingroom&quot;, &quot;Dimmed&quot; ) %}
 &#160;scene.livingroom_dimmed
{%&#45;elif is_state( &quot;input_select.scene_livingroom&quot;, &quot;Relax&quot; ) %}
 &#160;scene.livingroom_relax
{%&#45;elif is_state( &quot;input_select.scene_livingroom&quot;, &quot;Read&quot; ) %}
 &#160;scene.livingroom_read
{%&#45;elif is_state( &quot;input_select.scene_livingroom&quot;, &quot;Bright&quot; ) %}
 &#160;scene.livingroom_concentrate
{%&#45;elif is_state( &quot;input_select.scene_livingroom&quot;, &quot;Off&quot; ) %}
 &#160;scene.livingroom_off
{% endif %}
 -->
<g id="node16" class="node"><title>{% if is_state( &quot;input_select.scene_livingroom&quot;, &quot;Nightlight&quot; ) %}
 &#160;scene.livingroom_nightlight
{%&#45;elif is_state( &quot;input_select.scene_livingroom&quot;, &quot;Dimmed&quot; ) %}
 &#160;scene.livingroom_dimmed
{%&#45;elif is_state( &quot;input_select.scene_livingroom&quot;, &quot;Relax&quot; ) %}
 &#160;scene.livingroom_relax
{%&#45;elif is_state( &quot;input_select.scene_livingroom&quot;, &quot;Read&quot; ) %}
 &#160;scene.livingroom_read
{%&#45;elif is_state( &quot;input_select.scene_livingroom&quot;, &quot;Bright&quot; ) %}
 &#160;scene.livingroom_concentrate
{%&#45;elif is_state( &quot;input_select.scene_livingroom&quot;, &quot;Off&quot; ) %}
 &#160;scene.livingroom_off
{% endif %}
</title>
<polygon fill="white" stroke="black" points="597.057,-256.677 274.057,-256.677 274.057,-92.6774 597.057,-92.6774 597.057,-256.677"/>
<text text-anchor="middle" x="435.557" y="-244.277" font-family="arial" font-size="10.50" fill="#212121">{% if is_state( &quot;input_select.scene_livingroom&quot;, &quot;Nightlight&quot; ) %}</text>
<text text-anchor="middle" x="435.557" y="-232.277" font-family="arial" font-size="10.50" fill="#212121"> &#160;scene.livingroom_nightlight</text>
<text text-anchor="middle" x="435.557" y="-220.277" font-family="arial" font-size="10.50" fill="#212121">{%&#45;elif is_state( &quot;input_select.scene_livingroom&quot;, &quot;Dimmed&quot; ) %}</text>
<text text-anchor="middle" x="435.557" y="-208.277" font-family="arial" font-size="10.50" fill="#212121"> &#160;scene.livingroom_dimmed</text>
<text text-anchor="middle" x="435.557" y="-196.277" font-family="arial" font-size="10.50" fill="#212121">{%&#45;elif is_state( &quot;input_select.scene_livingroom&quot;, &quot;Relax&quot; ) %}</text>
<text text-anchor="middle" x="435.557" y="-184.277" font-family="arial" font-size="10.50" fill="#212121"> &#160;scene.livingroom_relax</text>
<text text-anchor="middle" x="435.557" y="-172.277" font-family="arial" font-size="10.50" fill="#212121">{%&#45;elif is_state( &quot;input_select.scene_livingroom&quot;, &quot;Read&quot; ) %}</text>
<text text-anchor="middle" x="435.557" y="-160.277" font-family="arial" font-size="10.50" fill="#212121"> &#160;scene.livingroom_read</text>
<text text-anchor="middle" x="435.557" y="-148.277" font-family="arial" font-size="10.50" fill="#212121">{%&#45;elif is_state( &quot;input_select.scene_livingroom&quot;, &quot;Bright&quot; ) %}</text>
<text text-anchor="middle" x="435.557" y="-136.277" font-family="arial" font-size="10.50" fill="#212121"> &#160;scene.livingroom_concentrate</text>
<text text-anchor="middle" x="435.557" y="-124.277" font-family="arial" font-size="10.50" fill="#212121">{%&#45;elif is_state( &quot;input_select.scene_livingroom&quot;, &quot;Off&quot; ) %}</text>
<text text-anchor="middle" x="435.557" y="-112.277" font-family="arial" font-size="10.50" fill="#212121"> &#160;scene.livingroom_off</text>
<text text-anchor="middle" x="435.557" y="-100.277" font-family="arial" font-size="10.50" fill="#212121">{% endif %}</text>
</g>
<!-- input_select.scene_livingroom&#45;&gt;{% if is_state( &quot;input_select.scene_livingroom&quot;, &quot;Nightlight&quot; ) %}
 &#160;scene.livingroom_nightlight
{%&#45;elif is_state( &quot;input_select.scene_livingroom&quot;, &quot;Dimmed&quot; ) %}
 &#160;scene.livingroom_dimmed
{%&#45;elif is_state( &quot;input_select.scene_livingroom&quot;, &quot;Relax&quot; ) %}
 &#160;scene.livingroom_relax
{%&#45;elif is_state( &quot;input_select.scene_livingroom&quot;, &quot;Read&quot; ) %}
 &#160;scene.livingroom_read
{%&#45;elif is_state( &quot;input_select.scene_livingroom&quot;, &quot;Bright&quot; ) %}
 &#160;scene.livingroom_concentrate
{%&#45;elif is_state( &quot;input_select.scene_livingroom&quot;, &quot;Off&quot; ) %}
 &#160;scene.livingroom_off
{% endif %}
 -->
<g id="edge18" class="edge"><title>input_select.scene_livingroom&#45;&gt;{% if is_state( &quot;input_select.scene_livingroom&quot;, &quot;Nightlight&quot; ) %}
 &#160;scene.livingroom_nightlight
{%&#45;elif is_state( &quot;input_select.scene_livingroom&quot;, &quot;Dimmed&quot; ) %}
 &#160;scene.livingroom_dimmed
{%&#45;elif is_state( &quot;input_select.scene_livingroom&quot;, &quot;Relax&quot; ) %}
 &#160;scene.livingroom_relax
{%&#45;elif is_state( &quot;input_select.scene_livingroom&quot;, &quot;Read&quot; ) %}
 &#160;scene.livingroom_read
{%&#45;elif is_state( &quot;input_select.scene_livingroom&quot;, &quot;Bright&quot; ) %}
 &#160;scene.livingroom_concentrate
{%&#45;elif is_state( &quot;input_select.scene_livingroom&quot;, &quot;Off&quot; ) %}
 &#160;scene.livingroom_off
{% endif %}
</title>
<path fill="none" stroke="black" d="M257.968,-174.684C260.585,-174.684 263.276,-174.684 266.062,-174.684"/>
<polygon fill="black" stroke="black" points="273.674,-174.683 266.174,-178.059 269.924,-174.683 266.174,-174.684 266.174,-174.684 266.174,-174.684 269.924,-174.683 266.174,-171.309 273.674,-174.683 273.674,-174.683"/>
<text text-anchor="middle" x="231.041" y="-178.284" font-family="arial" font-size="10.50" fill="#212121">scene.turn_on</text>
</g>
<!-- scene.lr_nightlight -->
<g id="node18" class="node"><title>scene.lr_nightlight</title>
<polygon fill="white" stroke="turquoise" points="241.812,97.2571 132.812,97.2571 132.812,133.257 241.812,133.257 241.812,97.2571"/>
<text text-anchor="middle" x="187.312" y="117.657" font-family="arial" font-size="10.50" fill="#212121">scene.lr_nightlight</text>
</g>
<!-- scene.lr_nightlight&#45;&gt;light.hue_color_lamp_3 -->
<g id="edge20" class="edge"><title>scene.lr_nightlight&#45;&gt;light.hue_color_lamp_3</title>
<path fill="none" stroke="black" d="M132.549,105.508C93.6366,96.7208 63.5724,82.8003 -29.4627,35.7603"/>
<polygon fill="black" stroke="black" points="-36.271,32.3159 -31.1023,38.7132 -32.9248,34.0088 -29.5787,35.7017 -29.5787,35.7017 -29.5787,35.7017 -32.9248,34.0088 -28.0551,32.6902 -36.271,32.3159 -36.271,32.3159"/>
<text text-anchor="middle" x="39.8902" y="69.7422" font-family="arial" font-size="10.50" fill="#212121">on</text>
</g>
<!-- scene.lr_nightlight&#45;&gt;light.hue_color_lamp_1 -->
<g id="edge21" class="edge"><title>scene.lr_nightlight&#45;&gt;light.hue_color_lamp_1</title>
<path fill="none" stroke="black" d="M172.88,97.2412C158.479,80.0781 147.092,70.6534 106.616,41.3017"/>
<polygon fill="black" stroke="black" points="100.429,36.8232 104.526,43.9549 103.467,39.0221 106.505,41.221 106.505,41.221 106.505,41.221 103.467,39.0221 108.484,38.4871 100.429,36.8232 100.429,36.8232"/>
<text text-anchor="middle" x="131.989" y="61.3609" font-family="arial" font-size="10.50" fill="#212121">on</text>
</g>
<!-- scene.lr_nightlight&#45;&gt;light.hue_color_lamp_2 -->
<g id="edge22" class="edge"><title>scene.lr_nightlight&#45;&gt;light.hue_color_lamp_2</title>
<path fill="none" stroke="black" d="M185.521,97.1262C175.773,0.224085 169.998,-12.0862 79.7914,-98.1778"/>
<polygon fill="black" stroke="black" points="74.2994,-103.412 77.4003,-95.7943 77.0141,-100.825 79.7288,-98.2375 79.7288,-98.2375 79.7288,-98.2375 77.0141,-100.825 82.0572,-100.681 74.2994,-103.412 74.2994,-103.412"/>
<text text-anchor="middle" x="146.928" y="-23.3787" font-family="arial" font-size="10.50" fill="#212121">on</text>
</g>
<!-- scene.lr_off -->
<g id="node19" class="node"><title>scene.lr_off</title>
<polygon fill="white" stroke="turquoise" points="39.032,126.556 -38.968,126.556 -38.968,162.556 39.032,162.556 39.032,126.556"/>
<text text-anchor="middle" x="0.0319806" y="146.956" font-family="arial" font-size="10.50" fill="#212121">scene.lr_off</text>
</g>
<!-- scene.lr_off&#45;&gt;light.hue_color_lamp_3 -->
<g id="edge23" class="edge"><title>scene.lr_off&#45;&gt;light.hue_color_lamp_3</title>
<path fill="none" stroke="black" d="M-22.1642,126.282C-44.4247,106.583 -50.2031,93.109 -64.971,39.7375"/>
<polygon fill="black" stroke="black" points="-67.0168,32.3032 -68.2808,40.4299 -66.0218,35.9188 -65.0268,39.5344 -65.0268,39.5344 -65.0268,39.5344 -66.0218,35.9188 -61.7728,38.6389 -67.0168,32.3032 -67.0168,32.3032"/>
<text text-anchor="middle" x="-58.6655" y="78.1667" font-family="arial" font-size="10.50" fill="#212121">off</text>
</g>
<!-- scene.lr_off&#45;&gt;light.hue_color_lamp_1 -->
<g id="edge24" class="edge"><title>scene.lr_off&#45;&gt;light.hue_color_lamp_1</title>
<path fill="none" stroke="black" d="M24.7401,126.36C49.8866,106.545 55.7979,93.8455 68.6237,44.4553"/>
<polygon fill="black" stroke="black" points="70.5693,36.8968 65.4312,43.3186 69.6345,40.5284 68.6997,44.16 68.6997,44.16 68.6997,44.16 69.6345,40.5284 71.9681,45.0014 70.5693,36.8968 70.5693,36.8968"/>
<text text-anchor="middle" x="50.0241" y="93.2454" font-family="arial" font-size="10.50" fill="#212121">off</text>
</g>
<!-- scene.lr_off&#45;&gt;light.hue_color_lamp_2 -->
<g id="edge25" class="edge"><title>scene.lr_off&#45;&gt;light.hue_color_lamp_2</title>
<path fill="none" stroke="black" d="M11.6157,126.487C76.6703,24.7408 80.0872,11.9891 59.9286,-95.9432"/>
<polygon fill="black" stroke="black" points="58.5021,-103.536 56.57,-95.5418 59.1946,-99.8505 59.887,-96.165 59.887,-96.165 59.887,-96.165 59.1946,-99.8505 63.2039,-96.7882 58.5021,-103.536 58.5021,-103.536"/>
<text text-anchor="middle" x="61.2649" y="13.8194" font-family="arial" font-size="10.50" fill="#212121">off</text>
</g>
<!-- time -->
<g id="node20" class="node"><title>time</title>
<polygon fill="white" stroke="black" points="-112.395,162.32 -166.395,162.32 -166.395,198.32 -112.395,198.32 -112.395,162.32"/>
<text text-anchor="middle" x="-139.395" y="182.72" font-family="arial" font-size="10.50" fill="#212121">time</text>
</g>
<!-- event -->
<g id="node21" class="node"><title>event</title>
<polygon fill="white" stroke="black" points="356.743,166.544 302.743,166.544 302.743,202.544 356.743,202.544 356.743,166.544"/>
<text text-anchor="middle" x="329.743" y="186.944" font-family="arial" font-size="10.50" fill="#212121">event</text>
</g>
<!-- event&#45;&gt;shell_command -->
<g id="edge27" class="edge"><title>event&#45;&gt;shell_command</title>
<path fill="none" stroke="black" d="M328.738,166.491C327.655,159.271 325.221,152.963 319.317,141.575"/>
<polygon fill="black" stroke="black" points="315.667,134.688 316.197,142.896 317.423,138.002 319.179,141.315 319.179,141.315 319.179,141.315 317.423,138.002 322.161,139.735 315.667,134.688 315.667,134.688"/>
<text text-anchor="middle" x="246.522" y="146.511" font-family="arial" font-size="10.50" fill="#212121">shell_command.generate_graph</text>
</g>
<!-- script.refresh_devices -->
<g id="node22" class="node"><title>script.refresh_devices</title>
<polygon fill="white" stroke="brown" points="182.86,150.986 55.8597,150.986 55.8597,186.986 182.86,186.986 182.86,150.986"/>
<text text-anchor="middle" x="119.36" y="171.386" font-family="arial" font-size="10.50" fill="#212121">script.refresh_devices</text>
</g>
<!-- mqtt -->
<g id="node23" class="node"><title>mqtt</title>
<polygon fill="white" stroke="black" points="244.254,151.034 190.254,151.034 190.254,187.034 244.254,187.034 244.254,151.034"/>
<text text-anchor="middle" x="217.254" y="171.434" font-family="arial" font-size="10.50" fill="#212121">mqtt</text>
</g>
<!-- script.refresh_devices&#45;&gt;mqtt -->
<g id="edge28" class="edge"><title>script.refresh_devices&#45;&gt;mqtt</title>
<path fill="none" stroke="black" d="M183.019,162.546C183.165,162.551 183.31,162.557 183.456,162.563"/>
<polygon fill="black" stroke="black" points="189.858,162.889 182.539,159.137 186.113,162.698 182.368,162.508 182.368,162.508 182.368,162.508 186.113,162.698 182.196,165.878 189.858,162.889 189.858,162.889"/>
<text text-anchor="middle" x="212.402" y="158.961" font-family="arial" font-size="10.50" fill="#212121">mqtt.publish</text>
</g>
<!-- script.refresh_devices&#45;&gt;mqtt -->
<g id="edge29" class="edge"><title>script.refresh_devices&#45;&gt;mqtt</title>
<path fill="none" stroke="black" d="M183.012,175.489C183.158,175.483 183.304,175.477 183.45,175.472"/>
<polygon fill="black" stroke="black" points="189.852,175.152 182.193,172.155 186.107,175.339 182.361,175.526 182.361,175.526 182.361,175.526 186.107,175.339 182.53,178.897 189.852,175.152 189.852,175.152"/>
<text text-anchor="middle" x="183.395" y="183.874" font-family="arial" font-size="10.50" fill="#212121">mqtt.publish</text>
</g>
</g>
</svg>
