<?xml version="1.0" encoding="UTF-8" standalone="no"?>
<!DOCTYPE svg PUBLIC "-//W3C//DTD SVG 1.1//EN"
 "http://www.w3.org/Graphics/SVG/1.1/DTD/svg11.dtd">
<!-- Generated by graphviz version 2.38.0 (20140413.2041)
 -->
<!-- Title: %3 Pages: 1 -->
<svg width="749pt" height="511pt"
 viewBox="0.00 0.00 749.49 511.20" xmlns="http://www.w3.org/2000/svg" xmlns:xlink="http://www.w3.org/1999/xlink">
<g id="graph0" class="graph" transform="scale(1 1) rotate(0) translate(159.429 330.722)">
<title>%3</title>
<polygon fill="#e5e5e5" stroke="none" points="-159.429,180.474 -159.429,-330.722 590.057,-330.722 590.057,180.474 -159.429,180.474"/>
<!-- scene.lr_nightlight -->
<g id="node1" class="node"><title>scene.lr_nightlight</title>
<polygon fill="white" stroke="turquoise" points="-143.248,-97.5143 -252.248,-97.5143 -252.248,-61.5143 -143.248,-61.5143 -143.248,-97.5143"/>
<text text-anchor="middle" x="-197.748" y="-77.1143" font-family="arial" font-size="10.50" fill="#212121">scene.lr_nightlight</text>
</g>
<!-- light.hue_color_lamp_3 -->
<g id="node2" class="node"><title>light.hue_color_lamp_3</title>
<polygon fill="white" stroke="yellow" points="-3.53095,-2.9426 -136.531,-2.9426 -136.531,33.0574 -3.53095,33.0574 -3.53095,-2.9426"/>
<text text-anchor="middle" x="-70.031" y="17.4574" font-family="arial" font-size="10.50" fill="#212121">light.hue_color_lamp_3</text>
</g>
<!-- scene.lr_nightlight&#45;&gt;light.hue_color_lamp_3 -->
<g id="edge1" class="edge"><title>scene.lr_nightlight&#45;&gt;light.hue_color_lamp_3</title>
<path fill="none" stroke="black" d="M-181.253,-61.4085C-164.501,-43.842 -151.725,-34.7325 -106.349,-6.99667"/>
<polygon fill="black" stroke="black" points="-99.7263,-2.95658 -104.371,-9.74365 -102.928,-4.9095 -106.129,-6.86242 -106.129,-6.86242 -106.129,-6.86242 -102.928,-4.9095 -107.887,-3.98119 -99.7263,-2.95658 -99.7263,-2.95658"/>
<text text-anchor="middle" x="-148.929" y="-33.2698" font-family="arial" font-size="10.50" fill="#212121">on</text>
</g>
<!-- light.hue_color_lamp_2 -->
<g id="node3" class="node"><title>light.hue_color_lamp_2</title>
<polygon fill="white" stroke="yellow" points="133.147,-1.21066 0.147161,-1.21066 0.147161,34.7893 133.147,34.7893 133.147,-1.21066"/>
<text text-anchor="middle" x="66.6472" y="19.1893" font-family="arial" font-size="10.50" fill="#212121">light.hue_color_lamp_2</text>
</g>
<!-- scene.lr_nightlight&#45;&gt;light.hue_color_lamp_2 -->
<g id="edge2" class="edge"><title>scene.lr_nightlight&#45;&gt;light.hue_color_lamp_2</title>
<path fill="none" stroke="black" d="M-143.2,-68.4447C-105.318,-59.2867 -74.3187,-46.3905 19.5686,-4.3425"/>
<polygon fill="black" stroke="black" points="26.4381,-1.26432 20.9739,-7.41119 23.016,-2.79779 19.5938,-4.33125 19.5938,-4.33125 19.5938,-4.33125 23.016,-2.79779 18.2137,-1.25132 26.4381,-1.26432 26.4381,-1.26432"/>
<text text-anchor="middle" x="-63.6014" y="-41.7087" font-family="arial" font-size="10.50" fill="#212121">on</text>
</g>
<!-- light.hue_color_lamp_1 -->
<g id="node4" class="node"><title>light.hue_color_lamp_1</title>
<polygon fill="white" stroke="yellow" points="114.756,-129.308 -18.2438,-129.308 -18.2438,-93.3077 114.756,-93.3077 114.756,-129.308"/>
<text text-anchor="middle" x="48.2562" y="-108.908" font-family="arial" font-size="10.50" fill="#212121">light.hue_color_lamp_1</text>
</g>
<!-- scene.lr_nightlight&#45;&gt;light.hue_color_lamp_1 -->
<g id="edge3" class="edge"><title>scene.lr_nightlight&#45;&gt;light.hue_color_lamp_1</title>
<path fill="none" stroke="black" d="M-167.012,-97.7377C-114.773,-127.926 -93.4911,-133.198 -25.8994,-123.541"/>
<polygon fill="black" stroke="black" points="-18.3227,-122.427 -25.2516,-126.857 -22.0328,-122.973 -25.7428,-123.518 -25.7428,-123.518 -25.7428,-123.518 -22.0328,-122.973 -26.2341,-120.179 -18.3227,-122.427 -18.3227,-122.427"/>
<text text-anchor="middle" x="-101.482" y="-130.344" font-family="arial" font-size="10.50" fill="#212121">on</text>
</g>
<!-- scene.lr_read -->
<g id="node5" class="node"><title>scene.lr_read</title>
<polygon fill="white" stroke="turquoise" points="226.998,-103.534 138.998,-103.534 138.998,-67.5341 226.998,-67.5341 226.998,-103.534"/>
<text text-anchor="middle" x="182.998" y="-83.1341" font-family="arial" font-size="10.50" fill="#212121">scene.lr_read</text>
</g>
<!-- scene.lr_read&#45;&gt;light.hue_color_lamp_3 -->
<g id="edge4" class="edge"><title>scene.lr_read&#45;&gt;light.hue_color_lamp_3</title>
<path fill="none" stroke="black" d="M138.763,-74.1123C99.3189,-63.0513 71.8999,-51.1594 -24.1892,-6.35598"/>
<polygon fill="black" stroke="black" points="-31.2273,-3.07283 -23.0037,-3.18488 -27.8289,-4.65815 -24.4305,-6.24347 -24.4305,-6.24347 -24.4305,-6.24347 -27.8289,-4.65815 -25.8573,-9.30206 -31.2273,-3.07283 -31.2273,-3.07283"/>
<text text-anchor="middle" x="45.9608" y="-45.1831" font-family="arial" font-size="10.50" fill="#212121">on</text>
</g>
<!-- scene.lr_read&#45;&gt;light.hue_color_lamp_2 -->
<g id="edge5" class="edge"><title>scene.lr_read&#45;&gt;light.hue_color_lamp_2</title>
<path fill="none" stroke="black" d="M170.441,-67.5246C155.078,-46.4121 144.031,-36.982 99.2484,-5.77062"/>
<polygon fill="black" stroke="black" points="93.0091,-1.43188 101.094,-2.94286 96.0879,-3.57283 99.1666,-5.71378 99.1666,-5.71378 99.1666,-5.71378 96.0879,-3.57283 97.2398,-8.48469 93.0091,-1.43188 93.0091,-1.43188"/>
<text text-anchor="middle" x="127.902" y="-34.7202" font-family="arial" font-size="10.50" fill="#212121">on</text>
</g>
<!-- scene.lr_read&#45;&gt;light.hue_color_lamp_1 -->
<g id="edge6" class="edge"><title>scene.lr_read&#45;&gt;light.hue_color_lamp_1</title>
<path fill="none" stroke="black" d="M153.984,-103.611C143.834,-108.96 134.908,-111.807 122.694,-113.016"/>
<polygon fill="black" stroke="black" points="115.089,-113.545 122.337,-109.657 118.83,-113.284 122.571,-113.024 122.571,-113.024 122.571,-113.024 118.83,-113.284 122.805,-116.391 115.089,-113.545 115.089,-113.545"/>
<text text-anchor="middle" x="128.298" y="-114.637" font-family="arial" font-size="10.50" fill="#212121">on</text>
</g>
<!-- scene.lr_dimmed -->
<g id="node6" class="node"><title>scene.lr_dimmed</title>
<polygon fill="white" stroke="turquoise" points="-22.3021,-134.126 -125.302,-134.126 -125.302,-98.1264 -22.3021,-98.1264 -22.3021,-134.126"/>
<text text-anchor="middle" x="-73.8021" y="-113.726" font-family="arial" font-size="10.50" fill="#212121">scene.lr_dimmed</text>
</g>
<!-- scene.lr_dimmed&#45;&gt;light.hue_color_lamp_3 -->
<g id="edge7" class="edge"><title>scene.lr_dimmed&#45;&gt;light.hue_color_lamp_3</title>
<path fill="none" stroke="black" d="M-80.2348,-98.0157C-89.3226,-70.8436 -88.5848,-59.4633 -76.49,-10.6039"/>
<polygon fill="black" stroke="black" points="-74.6229,-3.11683 -73.163,-11.2106 -75.5303,-6.75541 -76.4377,-10.394 -76.4377,-10.394 -76.4377,-10.394 -75.5303,-6.75541 -79.7124,-9.57732 -74.6229,-3.11683 -74.6229,-3.11683"/>
<text text-anchor="middle" x="-91.3923" y="-52.7756" font-family="arial" font-size="10.50" fill="#212121">on</text>
</g>
<!-- scene.lr_dimmed&#45;&gt;light.hue_color_lamp_2 -->
<g id="edge8" class="edge"><title>scene.lr_dimmed&#45;&gt;light.hue_color_lamp_2</title>
<path fill="none" stroke="black" d="M-29.6307,-98.0732C0.316012,-83.3241 13.6616,-66.0379 50.934,-7.8605"/>
<polygon fill="black" stroke="black" points="55.1055,-1.33631 53.9087,-9.4732 53.0854,-4.4957 51.0653,-7.65508 51.0653,-7.65508 51.0653,-7.65508 53.0854,-4.4957 48.2218,-5.83697 55.1055,-1.33631 55.1055,-1.33631"/>
<text text-anchor="middle" x="13.1331" y="-58.1115" font-family="arial" font-size="10.50" fill="#212121">on</text>
</g>
<!-- scene.lr_dimmed&#45;&gt;light.hue_color_lamp_1 -->
<g id="edge9" class="edge"><title>scene.lr_dimmed&#45;&gt;light.hue_color_lamp_1</title>
<path fill="none" stroke="black" d="M-22.0407,-131.729C-16.299,-132.337 -10.9121,-132.146 -5.13623,-131.126"/>
<polygon fill="black" stroke="black" points="2.44384,-129.389 -4.11254,-134.354 -1.21137,-130.227 -4.86659,-131.065 -4.86659,-131.065 -4.86659,-131.065 -1.21137,-130.227 -5.62064,-127.775 2.44384,-129.389 2.44384,-129.389"/>
<text text-anchor="middle" x="-16.4338" y="-135.391" font-family="arial" font-size="10.50" fill="#212121">on</text>
</g>
<!-- event -->
<g id="node8" class="node"><title>event</title>
<polygon fill="white" stroke="black" points="146.618,-360.934 92.6181,-360.934 92.6181,-324.934 146.618,-324.934 146.618,-360.934"/>
<text text-anchor="middle" x="119.618" y="-340.534" font-family="arial" font-size="10.50" fill="#212121">event</text>
</g>
<!-- shell_command -->
<g id="node9" class="node"><title>shell_command</title>
<polygon fill="white" stroke="black" points="211.639,-303.61 115.639,-303.61 115.639,-267.61 211.639,-267.61 211.639,-303.61"/>
<text text-anchor="middle" x="163.639" y="-283.21" font-family="arial" font-size="10.50" fill="#212121">shell_command</text>
</g>
<!-- event&#45;&gt;shell_command -->
<g id="edge10" class="edge"><title>event&#45;&gt;shell_command</title>
<path fill="none" stroke="black" d="M133.008,-324.903C135.958,-321.035 139.483,-316.488 144.669,-309.846"/>
<polygon fill="black" stroke="black" points="149.439,-303.742 147.48,-311.73 147.13,-306.697 144.82,-309.651 144.82,-309.651 144.82,-309.651 147.13,-306.697 142.161,-307.573 149.439,-303.742 149.439,-303.742"/>
<text text-anchor="middle" x="217.867" y="-318.322" font-family="arial" font-size="10.50" fill="#212121">shell_command.generate_graph</text>
</g>
<!-- updater.updater -->
<g id="node10" class="node"><title>updater.updater</title>
<polygon fill="white" stroke="black" points="-40.3819,-312.934 -138.382,-312.934 -138.382,-276.934 -40.3819,-276.934 -40.3819,-312.934"/>
<text text-anchor="middle" x="-89.3819" y="-292.534" font-family="arial" font-size="10.50" fill="#212121">updater.updater</text>
</g>
<!-- notify -->
<g id="node11" class="node"><title>notify</title>
<polygon fill="white" stroke="black" points="-18.3613,-255.61 -72.3613,-255.61 -72.3613,-219.61 -18.3613,-219.61 -18.3613,-255.61"/>
<text text-anchor="middle" x="-45.3613" y="-235.21" font-family="arial" font-size="10.50" fill="#212121">notify</text>
</g>
<!-- updater.updater&#45;&gt;notify -->
<g id="edge11" class="edge"><title>updater.updater&#45;&gt;notify</title>
<path fill="none" stroke="black" d="M-76.602,-276.89C-73.6596,-272.988 -70.112,-268.464 -64.8263,-261.842"/>
<polygon fill="black" stroke="black" points="-59.9525,-255.754 -62.0047,-263.718 -62.296,-258.681 -64.6395,-261.609 -64.6395,-261.609 -64.6395,-261.609 -62.296,-258.681 -67.2743,-259.5 -59.9525,-255.754 -59.9525,-255.754"/>
<text text-anchor="middle" x="-95.1917" y="-258.303" font-family="arial" font-size="10.50" fill="#212121">notify.justin</text>
</g>
<!-- script.play_cartoons -->
<g id="node12" class="node"><title>script.play_cartoons</title>
<polygon fill="white" stroke="brown" points="246.743,-235.456 128.743,-235.456 128.743,-199.456 246.743,-199.456 246.743,-235.456"/>
<text text-anchor="middle" x="187.743" y="-215.056" font-family="arial" font-size="10.50" fill="#212121">script.play_cartoons</text>
</g>
<!-- script.play_cartoons&#45;&gt;shell_command -->
<g id="edge12" class="edge"><title>script.play_cartoons&#45;&gt;shell_command</title>
<path fill="none" stroke="black" d="M179.819,-235.748C177.6,-241.528 175.33,-248.336 171.562,-260.264"/>
<polygon fill="black" stroke="black" points="169.305,-267.444 168.335,-259.277 170.43,-263.866 171.554,-260.289 171.554,-260.289 171.554,-260.289 170.43,-263.866 174.774,-261.301 169.305,-267.444 169.305,-267.444"/>
<text text-anchor="middle" x="102.418" y="-254.924" font-family="arial" font-size="10.50" fill="#212121">shell_command.play_cartoons</text>
</g>
<!-- scene.lr_relax -->
<g id="node13" class="node"><title>scene.lr_relax</title>
<polygon fill="white" stroke="turquoise" points="-136.163,89.1493 -225.163,89.1493 -225.163,125.149 -136.163,125.149 -136.163,89.1493"/>
<text text-anchor="middle" x="-180.663" y="109.549" font-family="arial" font-size="10.50" fill="#212121">scene.lr_relax</text>
</g>
<!-- scene.lr_relax&#45;&gt;light.hue_color_lamp_3 -->
<g id="edge13" class="edge"><title>scene.lr_relax&#45;&gt;light.hue_color_lamp_3</title>
<path fill="none" stroke="black" d="M-164.83,88.9758C-151.049,73.9328 -139.424,64.6585 -101.672,37.6112"/>
<polygon fill="black" stroke="black" points="-95.3846,33.1141 -103.448,34.7322 -98.4347,35.2957 -101.485,37.4773 -101.485,37.4773 -101.485,37.4773 -98.4347,35.2957 -99.5214,40.2224 -95.3846,33.1141 -95.3846,33.1141"/>
<text text-anchor="middle" x="-137.894" y="55.727" font-family="arial" font-size="10.50" fill="#212121">on</text>
</g>
<!-- scene.lr_relax&#45;&gt;light.hue_color_lamp_2 -->
<g id="edge14" class="edge"><title>scene.lr_relax&#45;&gt;light.hue_color_lamp_2</title>
<path fill="none" stroke="black" d="M-135.952,103.562C-91.599,98.494 -66.5199,87.3364 25.8274,38.4692"/>
<polygon fill="black" stroke="black" points="32.5939,34.8851 24.3864,35.4133 29.28,36.6404 25.9662,38.3957 25.9662,38.3957 25.9662,38.3957 29.28,36.6404 27.5459,41.3782 32.5939,34.8851 32.5939,34.8851"/>
<text text-anchor="middle" x="-54.9132" y="84.8662" font-family="arial" font-size="10.50" fill="#212121">on</text>
</g>
<!-- scene.lr_relax&#45;&gt;light.hue_color_lamp_1 -->
<g id="edge15" class="edge"><title>scene.lr_relax&#45;&gt;light.hue_color_lamp_1</title>
<path fill="none" stroke="black" d="M-172.819,89.1152C-131.848,-4.57047 -120.976,-16.6281 8.95978,-89.4048"/>
<polygon fill="black" stroke="black" points="15.643,-93.1432 7.44976,-92.4273 12.3702,-91.3125 9.09742,-89.4818 9.09742,-89.4818 9.09742,-89.4818 12.3702,-91.3125 10.7451,-86.5363 15.643,-93.1432 15.643,-93.1432"/>
<text text-anchor="middle" x="-102.787" y="-28.134" font-family="arial" font-size="10.50" fill="#212121">on</text>
</g>
<!-- scene.lr_concentrate -->
<g id="node14" class="node"><title>scene.lr_concentrate</title>
<polygon fill="white" stroke="turquoise" points="234.759,87.0461 112.759,87.0461 112.759,123.046 234.759,123.046 234.759,87.0461"/>
<text text-anchor="middle" x="173.759" y="107.446" font-family="arial" font-size="10.50" fill="#212121">scene.lr_concentrate</text>
</g>
<!-- scene.lr_concentrate&#45;&gt;light.hue_color_lamp_3 -->
<g id="edge16" class="edge"><title>scene.lr_concentrate&#45;&gt;light.hue_color_lamp_3</title>
<path fill="none" stroke="black" d="M112.518,94.9807C80.6216,87.3454 50.5416,73.8073 -26.0827,36.5153"/>
<polygon fill="black" stroke="black" points="-33.1491,33.0734 -27.8843,39.3919 -29.7777,34.7155 -26.4064,36.3577 -26.4064,36.3577 -26.4064,36.3577 -29.7777,34.7155 -24.9284,33.3235 -33.1491,33.0734 -33.1491,33.0734"/>
<text text-anchor="middle" x="31.6056" y="63.5418" font-family="arial" font-size="10.50" fill="#212121">on</text>
</g>
<!-- scene.lr_concentrate&#45;&gt;light.hue_color_lamp_2 -->
<g id="edge17" class="edge"><title>scene.lr_concentrate&#45;&gt;light.hue_color_lamp_2</title>
<path fill="none" stroke="black" d="M158.344,86.9039C145.438,72.5674 134.244,63.7237 99.2028,39.3136"/>
<polygon fill="black" stroke="black" points="92.8769,34.9167 97.1092,41.9686 95.9562,37.057 99.0355,39.1973 99.0355,39.1973 99.0355,39.1973 95.9562,37.057 100.962,36.4259 92.8769,34.9167 92.8769,34.9167"/>
<text text-anchor="middle" x="120.397" y="55.4583" font-family="arial" font-size="10.50" fill="#212121">on</text>
</g>
<!-- scene.lr_concentrate&#45;&gt;light.hue_color_lamp_1 -->
<g id="edge18" class="edge"><title>scene.lr_concentrate&#45;&gt;light.hue_color_lamp_1</title>
<path fill="none" stroke="black" d="M171.661,86.9265C161.415,0.0456331 155.509,-12.0111 73.3643,-88.1542"/>
<polygon fill="black" stroke="black" points="67.8424,-93.2638 71.055,-85.6928 70.5948,-90.7169 73.3473,-88.1699 73.3473,-88.1699 73.3473,-88.1699 70.5948,-90.7169 75.6395,-90.6471 67.8424,-93.2638 67.8424,-93.2638"/>
<text text-anchor="middle" x="134.239" y="-21.9226" font-family="arial" font-size="10.50" fill="#212121">on</text>
</g>
<!-- input_select.radio_station -->
<g id="node15" class="node"><title>input_select.radio_station</title>
<polygon fill="white" stroke="black" points="312.574,-45.6805 168.574,-45.6805 168.574,-9.68046 312.574,-9.68046 312.574,-45.6805"/>
<text text-anchor="middle" x="240.574" y="-25.2805" font-family="arial" font-size="10.50" fill="#212121">input_select.radio_station</text>
</g>
<!-- {% if is_state(&#39;input_select.radio_station_location&#39;, &#39;Kitchen&#39;) %}
 &#160;media_player.kitchen
{% elif is_state(&#39;input_select.radio_station_location&#39;, &#39;Backyard&#39;) %}
 &#160;media_player.backyard
{% endif %}
 -->
<g id="node16" class="node"><title>{% if is_state(&#39;input_select.radio_station_location&#39;, &#39;Kitchen&#39;) %}
 &#160;media_player.kitchen
{% elif is_state(&#39;input_select.radio_station_location&#39;, &#39;Backyard&#39;) %}
 &#160;media_player.backyard
{% endif %}
</title>
<polygon fill="white" stroke="black" points="657.087,-61.6804 319.087,-61.6804 319.087,6.31956 657.087,6.31956 657.087,-61.6804"/>
<text text-anchor="middle" x="488.087" y="-49.2804" font-family="arial" font-size="10.50" fill="#212121">{% if is_state(&#39;input_select.radio_station_location&#39;, &#39;Kitchen&#39;) %}</text>
<text text-anchor="middle" x="488.087" y="-37.2804" font-family="arial" font-size="10.50" fill="#212121"> &#160;media_player.kitchen</text>
<text text-anchor="middle" x="488.087" y="-25.2804" font-family="arial" font-size="10.50" fill="#212121">{% elif is_state(&#39;input_select.radio_station_location&#39;, &#39;Backyard&#39;) %}</text>
<text text-anchor="middle" x="488.087" y="-13.2804" font-family="arial" font-size="10.50" fill="#212121"> &#160;media_player.backyard</text>
<text text-anchor="middle" x="488.087" y="-1.28044" font-family="arial" font-size="10.50" fill="#212121">{% endif %}</text>
</g>
<!-- input_select.radio_station&#45;&gt;{% if is_state(&#39;input_select.radio_station_location&#39;, &#39;Kitchen&#39;) %}
 &#160;media_player.kitchen
{% elif is_state(&#39;input_select.radio_station_location&#39;, &#39;Backyard&#39;) %}
 &#160;media_player.backyard
{% endif %}
 -->
<g id="edge19" class="edge"><title>input_select.radio_station&#45;&gt;{% if is_state(&#39;input_select.radio_station_location&#39;, &#39;Kitchen&#39;) %}
 &#160;media_player.kitchen
{% elif is_state(&#39;input_select.radio_station_location&#39;, &#39;Backyard&#39;) %}
 &#160;media_player.backyard
{% endif %}
</title>
<path fill="none" stroke="black" d="M312.838,-27.6805C312.964,-27.6805 313.091,-27.6805 313.217,-27.6805"/>
<polygon fill="black" stroke="black" points="319.015,-27.6805 311.515,-31.0556 315.265,-27.6805 311.515,-27.6806 311.515,-27.6806 311.515,-27.6806 315.265,-27.6805 311.515,-24.3056 319.015,-27.6805 319.015,-27.6805"/>
<text text-anchor="middle" x="313.17" y="-19.2805" font-family="arial" font-size="10.50" fill="#212121">media_player.play_media</text>
</g>
<!-- time -->
<g id="node17" class="node"><title>time</title>
<polygon fill="white" stroke="black" points="-102.395,152.32 -156.395,152.32 -156.395,188.32 -102.395,188.32 -102.395,152.32"/>
<text text-anchor="middle" x="-129.395" y="172.72" font-family="arial" font-size="10.50" fill="#212121">time</text>
</g>
<!-- script.refresh_devices -->
<g id="node18" class="node"><title>script.refresh_devices</title>
<polygon fill="white" stroke="brown" points="180.86,139.986 53.8597,139.986 53.8597,175.986 180.86,175.986 180.86,139.986"/>
<text text-anchor="middle" x="117.36" y="160.386" font-family="arial" font-size="10.50" fill="#212121">script.refresh_devices</text>
</g>
<!-- mqtt -->
<g id="node19" class="node"><title>mqtt</title>
<polygon fill="white" stroke="black" points="242.254,140.034 188.254,140.034 188.254,176.034 242.254,176.034 242.254,140.034"/>
<text text-anchor="middle" x="215.254" y="160.434" font-family="arial" font-size="10.50" fill="#212121">mqtt</text>
</g>
<!-- script.refresh_devices&#45;&gt;mqtt -->
<g id="edge21" class="edge"><title>script.refresh_devices&#45;&gt;mqtt</title>
<path fill="none" stroke="black" d="M181.019,151.546C181.165,151.551 181.31,151.557 181.456,151.563"/>
<polygon fill="black" stroke="black" points="187.858,151.889 180.539,148.137 184.113,151.698 180.368,151.508 180.368,151.508 180.368,151.508 184.113,151.698 180.196,154.878 187.858,151.889 187.858,151.889"/>
<text text-anchor="middle" x="210.402" y="147.961" font-family="arial" font-size="10.50" fill="#212121">mqtt.publish</text>
</g>
<!-- script.refresh_devices&#45;&gt;mqtt -->
<g id="edge22" class="edge"><title>script.refresh_devices&#45;&gt;mqtt</title>
<path fill="none" stroke="black" d="M181.012,164.489C181.158,164.483 181.304,164.477 181.45,164.472"/>
<polygon fill="black" stroke="black" points="187.852,164.152 180.193,161.155 184.107,164.339 180.361,164.526 180.361,164.526 180.361,164.526 184.107,164.339 180.53,167.897 187.852,164.152 187.852,164.152"/>
<text text-anchor="middle" x="181.395" y="172.874" font-family="arial" font-size="10.50" fill="#212121">mqtt.publish</text>
</g>
<!-- scene.lr_off -->
<g id="node20" class="node"><title>scene.lr_off</title>
<polygon fill="white" stroke="turquoise" points="36.854,114.055 -41.146,114.055 -41.146,150.055 36.854,150.055 36.854,114.055"/>
<text text-anchor="middle" x="-2.146" y="134.455" font-family="arial" font-size="10.50" fill="#212121">scene.lr_off</text>
</g>
<!-- scene.lr_off&#45;&gt;light.hue_color_lamp_3 -->
<g id="edge23" class="edge"><title>scene.lr_off&#45;&gt;light.hue_color_lamp_3</title>
<path fill="none" stroke="black" d="M-25.2639,113.928C-44.3404,97.4721 -50.0125,84.7956 -62.7934,40.5444"/>
<polygon fill="black" stroke="black" points="-64.9088,33.1658 -66.0861,41.3056 -63.8753,36.7706 -62.8418,40.3754 -62.8418,40.3754 -62.8418,40.3754 -63.8753,36.7706 -59.5975,39.4452 -64.9088,33.1658 -64.9088,33.1658"/>
<text text-anchor="middle" x="-58.0417" y="72.1917" font-family="arial" font-size="10.50" fill="#212121">off</text>
</g>
<!-- scene.lr_off&#45;&gt;light.hue_color_lamp_2 -->
<g id="edge24" class="edge"><title>scene.lr_off&#45;&gt;light.hue_color_lamp_2</title>
<path fill="none" stroke="black" d="M22.3468,113.901C43.4656,96.8496 49.0537,84.75 60.1177,42.4047"/>
<polygon fill="black" stroke="black" points="62.0201,35.0453 56.8754,41.4619 61.0816,38.676 60.143,42.3066 60.143,42.3066 60.143,42.3066 61.0816,38.676 63.4106,43.1513 62.0201,35.0453 62.0201,35.0453"/>
<text text-anchor="middle" x="43.0662" y="85.7804" font-family="arial" font-size="10.50" fill="#212121">off</text>
</g>
<!-- scene.lr_off&#45;&gt;light.hue_color_lamp_1 -->
<g id="edge25" class="edge"><title>scene.lr_off&#45;&gt;light.hue_color_lamp_1</title>
<path fill="none" stroke="black" d="M9.26178,114.036C67.6285,21.5619 71.1126,8.95037 53.2171,-85.5649"/>
<polygon fill="black" stroke="black" points="51.7755,-93.1215 49.8658,-85.1219 52.4783,-89.4379 53.181,-85.7543 53.181,-85.7543 53.181,-85.7543 52.4783,-89.4379 56.4963,-86.3868 51.7755,-93.1215 51.7755,-93.1215"/>
<text text-anchor="middle" x="53.3551" y="11.3233" font-family="arial" font-size="10.50" fill="#212121">off</text>
</g>
<!-- input_select.scene_livingroom -->
<g id="node21" class="node"><title>input_select.scene_livingroom</title>
<polygon fill="white" stroke="black" points="246.88,-181.684 81.8803,-181.684 81.8803,-145.684 246.88,-145.684 246.88,-181.684"/>
<text text-anchor="middle" x="164.38" y="-161.284" font-family="arial" font-size="10.50" fill="#212121">input_select.scene_livingroom</text>
</g>
<!-- input_select.scene_livingroom&#45;&gt;input_select.scene_livingroom -->
<g id="edge27" class="edge"><title>input_select.scene_livingroom&#45;&gt;input_select.scene_livingroom</title>
<path fill="none" stroke="black" d="M247.177,-169.599C257.837,-168.573 264.88,-166.602 264.88,-163.684 264.88,-161.541 261.082,-159.908 254.842,-158.786"/>
<polygon fill="black" stroke="black" points="247.177,-157.768 255.056,-155.409 250.894,-158.261 254.611,-158.755 254.611,-158.755 254.611,-158.755 250.894,-158.261 254.167,-162.101 247.177,-157.768 247.177,-157.768"/>
<text text-anchor="middle" x="326.88" y="-161.284" font-family="arial" font-size="10.50" fill="#212121">input_select.select_option</text>
</g>
<!-- {% if is_state( &quot;input_select.scene_livingroom&quot;, &quot;Nightlight&quot; ) %}
 &#160;scene.livingroom_nightlight
{%&#45;elif is_state( &quot;input_select.scene_livingroom&quot;, &quot;Dimmed&quot; ) %}
 &#160;scene.livingroom_dimmed
{%&#45;elif is_state( &quot;input_select.scene_livingroom&quot;, &quot;Relax&quot; ) %}
 &#160;scene.livingroom_relax
{%&#45;elif is_state( &quot;input_select.scene_livingroom&quot;, &quot;Read&quot; ) %}
 &#160;scene.livingroom_read
{%&#45;elif is_state( &quot;input_select.scene_livingroom&quot;, &quot;Bright&quot; ) %}
 &#160;scene.livingroom_concentrate
{%&#45;elif is_state( &quot;input_select.scene_livingroom&quot;, &quot;Off&quot; ) %}
 &#160;scene.livingroom_off
{% endif %}
 -->
<g id="node22" class="node"><title>{% if is_state( &quot;input_select.scene_livingroom&quot;, &quot;Nightlight&quot; ) %}
 &#160;scene.livingroom_nightlight
{%&#45;elif is_state( &quot;input_select.scene_livingroom&quot;, &quot;Dimmed&quot; ) %}
 &#160;scene.livingroom_dimmed
{%&#45;elif is_state( &quot;input_select.scene_livingroom&quot;, &quot;Relax&quot; ) %}
 &#160;scene.livingroom_relax
{%&#45;elif is_state( &quot;input_select.scene_livingroom&quot;, &quot;Read&quot; ) %}
 &#160;scene.livingroom_read
{%&#45;elif is_state( &quot;input_select.scene_livingroom&quot;, &quot;Bright&quot; ) %}
 &#160;scene.livingroom_concentrate
{%&#45;elif is_state( &quot;input_select.scene_livingroom&quot;, &quot;Off&quot; ) %}
 &#160;scene.livingroom_off
{% endif %}
</title>
<polygon fill="white" stroke="black" points="586.057,-245.677 263.057,-245.677 263.057,-81.6774 586.057,-81.6774 586.057,-245.677"/>
<text text-anchor="middle" x="424.557" y="-233.277" font-family="arial" font-size="10.50" fill="#212121">{% if is_state( &quot;input_select.scene_livingroom&quot;, &quot;Nightlight&quot; ) %}</text>
<text text-anchor="middle" x="424.557" y="-221.277" font-family="arial" font-size="10.50" fill="#212121"> &#160;scene.livingroom_nightlight</text>
<text text-anchor="middle" x="424.557" y="-209.277" font-family="arial" font-size="10.50" fill="#212121">{%&#45;elif is_state( &quot;input_select.scene_livingroom&quot;, &quot;Dimmed&quot; ) %}</text>
<text text-anchor="middle" x="424.557" y="-197.277" font-family="arial" font-size="10.50" fill="#212121"> &#160;scene.livingroom_dimmed</text>
<text text-anchor="middle" x="424.557" y="-185.277" font-family="arial" font-size="10.50" fill="#212121">{%&#45;elif is_state( &quot;input_select.scene_livingroom&quot;, &quot;Relax&quot; ) %}</text>
<text text-anchor="middle" x="424.557" y="-173.277" font-family="arial" font-size="10.50" fill="#212121"> &#160;scene.livingroom_relax</text>
<text text-anchor="middle" x="424.557" y="-161.277" font-family="arial" font-size="10.50" fill="#212121">{%&#45;elif is_state( &quot;input_select.scene_livingroom&quot;, &quot;Read&quot; ) %}</text>
<text text-anchor="middle" x="424.557" y="-149.277" font-family="arial" font-size="10.50" fill="#212121"> &#160;scene.livingroom_read</text>
<text text-anchor="middle" x="424.557" y="-137.277" font-family="arial" font-size="10.50" fill="#212121">{%&#45;elif is_state( &quot;input_select.scene_livingroom&quot;, &quot;Bright&quot; ) %}</text>
<text text-anchor="middle" x="424.557" y="-125.277" font-family="arial" font-size="10.50" fill="#212121"> &#160;scene.livingroom_concentrate</text>
<text text-anchor="middle" x="424.557" y="-113.277" font-family="arial" font-size="10.50" fill="#212121">{%&#45;elif is_state( &quot;input_select.scene_livingroom&quot;, &quot;Off&quot; ) %}</text>
<text text-anchor="middle" x="424.557" y="-101.277" font-family="arial" font-size="10.50" fill="#212121"> &#160;scene.livingroom_off</text>
<text text-anchor="middle" x="424.557" y="-89.2774" font-family="arial" font-size="10.50" fill="#212121">{% endif %}</text>
</g>
<!-- input_select.scene_livingroom&#45;&gt;{% if is_state( &quot;input_select.scene_livingroom&quot;, &quot;Nightlight&quot; ) %}
 &#160;scene.livingroom_nightlight
{%&#45;elif is_state( &quot;input_select.scene_livingroom&quot;, &quot;Dimmed&quot; ) %}
 &#160;scene.livingroom_dimmed
{%&#45;elif is_state( &quot;input_select.scene_livingroom&quot;, &quot;Relax&quot; ) %}
 &#160;scene.livingroom_relax
{%&#45;elif is_state( &quot;input_select.scene_livingroom&quot;, &quot;Read&quot; ) %}
 &#160;scene.livingroom_read
{%&#45;elif is_state( &quot;input_select.scene_livingroom&quot;, &quot;Bright&quot; ) %}
 &#160;scene.livingroom_concentrate
{%&#45;elif is_state( &quot;input_select.scene_livingroom&quot;, &quot;Off&quot; ) %}
 &#160;scene.livingroom_off
{% endif %}
 -->
<g id="edge26" class="edge"><title>input_select.scene_livingroom&#45;&gt;{% if is_state( &quot;input_select.scene_livingroom&quot;, &quot;Nightlight&quot; ) %}
 &#160;scene.livingroom_nightlight
{%&#45;elif is_state( &quot;input_select.scene_livingroom&quot;, &quot;Dimmed&quot; ) %}
 &#160;scene.livingroom_dimmed
{%&#45;elif is_state( &quot;input_select.scene_livingroom&quot;, &quot;Relax&quot; ) %}
 &#160;scene.livingroom_relax
{%&#45;elif is_state( &quot;input_select.scene_livingroom&quot;, &quot;Read&quot; ) %}
 &#160;scene.livingroom_read
{%&#45;elif is_state( &quot;input_select.scene_livingroom&quot;, &quot;Bright&quot; ) %}
 &#160;scene.livingroom_concentrate
{%&#45;elif is_state( &quot;input_select.scene_livingroom&quot;, &quot;Off&quot; ) %}
 &#160;scene.livingroom_off
{% endif %}
</title>
<path fill="none" stroke="black" d="M246.968,-163.684C249.585,-163.684 252.276,-163.684 255.062,-163.684"/>
<polygon fill="black" stroke="black" points="262.674,-163.683 255.174,-167.059 258.924,-163.683 255.174,-163.684 255.174,-163.684 255.174,-163.684 258.924,-163.683 255.174,-160.309 262.674,-163.683 262.674,-163.683"/>
<text text-anchor="middle" x="220.041" y="-167.284" font-family="arial" font-size="10.50" fill="#212121">scene.turn_on</text>
</g>
<!-- device_tracker.bigdrakar_nicole -->
<g id="node23" class="node"><title>device_tracker.bigdrakar_nicole</title>
<polygon fill="white" stroke="purple" points="65.2432,-187.456 -107.757,-187.456 -107.757,-151.456 65.2432,-151.456 65.2432,-187.456"/>
<text text-anchor="middle" x="-21.2568" y="-167.056" font-family="arial" font-size="10.50" fill="#212121">device_tracker.bigdrakar_nicole</text>
</g>
<!-- device_tracker.bigdrakar_nicole&#45;&gt;notify -->
<g id="edge28" class="edge"><title>device_tracker.bigdrakar_nicole&#45;&gt;notify</title>
<path fill="none" stroke="black" d="M-34.2189,-187.463C-37.4586,-194.8 -40.5998,-203.415 -42.9741,-211.42"/>
<polygon fill="black" stroke="black" points="-45.0681,-219.152 -46.3651,-211.031 -44.0878,-215.533 -43.1075,-211.913 -43.1075,-211.913 -43.1075,-211.913 -44.0878,-215.533 -39.8498,-212.795 -45.0681,-219.152 -45.0681,-219.152"/>
<text text-anchor="middle" x="-66.7809" y="-206.625" font-family="arial" font-size="10.50" fill="#212121">notify.justin</text>
</g>
<!-- device_tracker.bigdrakar_nicole&#45;&gt;notify -->
<g id="edge29" class="edge"><title>device_tracker.bigdrakar_nicole&#45;&gt;notify</title>
<path fill="none" stroke="black" d="M-21.4635,-187.555C-23.2573,-195.058 -26.0945,-203.887 -29.2633,-212.029"/>
<polygon fill="black" stroke="black" points="-32.2462,-219.256 -32.5042,-211.035 -30.8153,-215.789 -29.3845,-212.323 -29.3845,-212.323 -29.3845,-212.323 -30.8153,-215.789 -26.2648,-213.611 -32.2462,-219.256 -32.2462,-219.256"/>
<text text-anchor="middle" x="0.358033" y="-207.071" font-family="arial" font-size="10.50" fill="#212121">notify.justin</text>
</g>
</g>
</svg>
