<?xml version="1.0" encoding="UTF-8" standalone="no"?>
<!DOCTYPE svg PUBLIC "-//W3C//DTD SVG 1.1//EN"
 "http://www.w3.org/Graphics/SVG/1.1/DTD/svg11.dtd">
<!-- Generated by graphviz version 2.38.0 (20140413.2041)
 -->
<!-- Title: %3 Pages: 1 -->
<svg width="546pt" height="468pt"
 viewBox="0.00 0.00 546.15 467.72" xmlns="http://www.w3.org/2000/svg" xmlns:xlink="http://www.w3.org/1999/xlink">
<g id="graph0" class="graph" transform="scale(1 1) rotate(0) translate(160.459 326.4)">
<title>%3</title>
<polygon fill="#e5e5e5" stroke="none" points="-160.459,141.32 -160.459,-326.4 385.692,-326.4 385.692,141.32 -160.459,141.32"/>
<!-- light.hue_color_lamp_3 -->
<g id="node1" class="node"><title>light.hue_color_lamp_3</title>
<polygon fill="white" stroke="yellow" points="305.796,-175.283 172.796,-175.283 172.796,-139.283 305.796,-139.283 305.796,-175.283"/>
<text text-anchor="middle" x="239.296" y="-154.883" font-family="arial" font-size="10.50" fill="#212121">light.hue_color_lamp_3</text>
</g>
<!-- light.hue_color_lamp_1 -->
<g id="node2" class="node"><title>light.hue_color_lamp_1</title>
<polygon fill="white" stroke="yellow" points="393.577,-227.813 260.577,-227.813 260.577,-191.813 393.577,-191.813 393.577,-227.813"/>
<text text-anchor="middle" x="327.077" y="-207.413" font-family="arial" font-size="10.50" fill="#212121">light.hue_color_lamp_1</text>
</g>
<!-- input_select.radio_station -->
<g id="node3" class="node"><title>input_select.radio_station</title>
<polygon fill="white" stroke="black" points="253.574,107.32 109.574,107.32 109.574,143.32 253.574,143.32 253.574,107.32"/>
<text text-anchor="middle" x="181.574" y="127.72" font-family="arial" font-size="10.50" fill="#212121">input_select.radio_station</text>
</g>
<!-- {% if is_state(&#39;input_select.radio_station_location&#39;, &#39;Kitchen&#39;) %}
 &#160;media_player.kitchen
{% elif is_state(&#39;input_select.radio_station_location&#39;, &#39;Backyard&#39;) %}
 &#160;media_player.backyard
{% endif %}
 -->
<g id="node4" class="node"><title>{% if is_state(&#39;input_select.radio_station_location&#39;, &#39;Kitchen&#39;) %}
 &#160;media_player.kitchen
{% elif is_state(&#39;input_select.radio_station_location&#39;, &#39;Backyard&#39;) %}
 &#160;media_player.backyard
{% endif %}
</title>
<polygon fill="white" stroke="black" points="598.087,91.3196 260.087,91.3196 260.087,159.32 598.087,159.32 598.087,91.3196"/>
<text text-anchor="middle" x="429.087" y="103.72" font-family="arial" font-size="10.50" fill="#212121">{% if is_state(&#39;input_select.radio_station_location&#39;, &#39;Kitchen&#39;) %}</text>
<text text-anchor="middle" x="429.087" y="115.72" font-family="arial" font-size="10.50" fill="#212121"> &#160;media_player.kitchen</text>
<text text-anchor="middle" x="429.087" y="127.72" font-family="arial" font-size="10.50" fill="#212121">{% elif is_state(&#39;input_select.radio_station_location&#39;, &#39;Backyard&#39;) %}</text>
<text text-anchor="middle" x="429.087" y="139.72" font-family="arial" font-size="10.50" fill="#212121"> &#160;media_player.backyard</text>
<text text-anchor="middle" x="429.087" y="151.72" font-family="arial" font-size="10.50" fill="#212121">{% endif %}</text>
</g>
<!-- input_select.radio_station&#45;&gt;{% if is_state(&#39;input_select.radio_station_location&#39;, &#39;Kitchen&#39;) %}
 &#160;media_player.kitchen
{% elif is_state(&#39;input_select.radio_station_location&#39;, &#39;Backyard&#39;) %}
 &#160;media_player.backyard
{% endif %}
 -->
<g id="edge1" class="edge"><title>input_select.radio_station&#45;&gt;{% if is_state(&#39;input_select.radio_station_location&#39;, &#39;Kitchen&#39;) %}
 &#160;media_player.kitchen
{% elif is_state(&#39;input_select.radio_station_location&#39;, &#39;Backyard&#39;) %}
 &#160;media_player.backyard
{% endif %}
</title>
<path fill="none" stroke="black" d="M253.838,125.32C253.964,125.32 254.091,125.32 254.217,125.32"/>
<polygon fill="black" stroke="black" points="260.015,125.32 252.515,121.944 256.265,125.319 252.515,125.319 252.515,125.319 252.515,125.319 256.265,125.319 252.515,128.694 260.015,125.32 260.015,125.32"/>
<text text-anchor="middle" x="254.17" y="133.72" font-family="arial" font-size="10.50" fill="#212121">media_player.play_media</text>
</g>
<!-- scene.lr_concentrate -->
<g id="node5" class="node"><title>scene.lr_concentrate</title>
<polygon fill="white" stroke="turquoise" points="209.344,-127.417 87.3441,-127.417 87.3441,-91.4174 209.344,-91.4174 209.344,-127.417"/>
<text text-anchor="middle" x="148.344" y="-107.017" font-family="arial" font-size="10.50" fill="#212121">scene.lr_concentrate</text>
</g>
<!-- scene.lr_concentrate&#45;&gt;light.hue_color_lamp_3 -->
<g id="edge2" class="edge"><title>scene.lr_concentrate&#45;&gt;light.hue_color_lamp_3</title>
<path fill="none" stroke="black" d="M189.545,-127.516C193.309,-129.639 197.562,-132.117 202.555,-135.081"/>
<polygon fill="black" stroke="black" points="209.293,-139.107 201.123,-138.158 206.074,-137.184 202.854,-135.261 202.854,-135.261 202.854,-135.261 206.074,-137.184 204.585,-132.363 209.293,-139.107 209.293,-139.107"/>
<text text-anchor="middle" x="205.882" y="-124.804" font-family="arial" font-size="10.50" fill="#212121">on</text>
</g>
<!-- scene.lr_concentrate&#45;&gt;light.hue_color_lamp_1 -->
<g id="edge3" class="edge"><title>scene.lr_concentrate&#45;&gt;light.hue_color_lamp_1</title>
<path fill="none" stroke="black" d="M199.552,-127.58C221.35,-137.504 243.755,-152.202 294.513,-187.261"/>
<polygon fill="black" stroke="black" points="300.845,-191.638 292.757,-190.15 297.761,-189.506 294.676,-187.374 294.676,-187.374 294.676,-187.374 297.761,-189.506 296.595,-184.597 300.845,-191.638 300.845,-191.638"/>
<text text-anchor="middle" x="244.998" y="-161.56" font-family="arial" font-size="10.50" fill="#212121">on</text>
</g>
<!-- light.hue_color_lamp_2 -->
<g id="node6" class="node"><title>light.hue_color_lamp_2</title>
<polygon fill="white" stroke="yellow" points="336.939,-309.905 203.939,-309.905 203.939,-273.905 336.939,-273.905 336.939,-309.905"/>
<text text-anchor="middle" x="270.439" y="-289.505" font-family="arial" font-size="10.50" fill="#212121">light.hue_color_lamp_2</text>
</g>
<!-- scene.lr_concentrate&#45;&gt;light.hue_color_lamp_2 -->
<g id="edge4" class="edge"><title>scene.lr_concentrate&#45;&gt;light.hue_color_lamp_2</title>
<path fill="none" stroke="black" d="M151.84,-127.583C164.629,-192.676 171.607,-204.188 243.933,-268.48"/>
<polygon fill="black" stroke="black" points="249.72,-273.614 241.87,-271.161 246.915,-271.125 244.109,-268.637 244.109,-268.637 244.109,-268.637 246.915,-271.125 246.349,-266.112 249.72,-273.614 249.72,-273.614"/>
<text text-anchor="middle" x="192.688" y="-216.177" font-family="arial" font-size="10.50" fill="#212121">on</text>
</g>
<!-- device_tracker.bigdrakar_nicole -->
<g id="node7" class="node"><title>device_tracker.bigdrakar_nicole</title>
<polygon fill="white" stroke="purple" points="29.9676,107.009 -143.032,107.009 -143.032,143.009 29.9676,143.009 29.9676,107.009"/>
<text text-anchor="middle" x="-56.5324" y="127.409" font-family="arial" font-size="10.50" fill="#212121">device_tracker.bigdrakar_nicole</text>
</g>
<!-- notify -->
<g id="node8" class="node"><title>notify</title>
<polygon fill="white" stroke="black" points="93.4588,107.011 39.4588,107.011 39.4588,143.011 93.4588,143.011 93.4588,107.011"/>
<text text-anchor="middle" x="66.4588" y="127.411" font-family="arial" font-size="10.50" fill="#212121">notify</text>
</g>
<!-- device_tracker.bigdrakar_nicole&#45;&gt;notify -->
<g id="edge5" class="edge"><title>device_tracker.bigdrakar_nicole&#45;&gt;notify</title>
<path fill="none" stroke="black" d="M30.2267,125.01C30.7251,125.01 31.2187,125.01 31.7082,125.01"/>
<polygon fill="black" stroke="black" points="39.3876,125.01 31.8877,121.635 35.6376,125.01 31.8876,125.01 31.8876,125.01 31.8876,125.01 35.6376,125.01 31.8875,128.385 39.3876,125.01 39.3876,125.01"/>
<text text-anchor="middle" x="58.1623" y="121.41" font-family="arial" font-size="10.50" fill="#212121">notify.justin</text>
</g>
<!-- scene.lr_nightlight -->
<g id="node9" class="node"><title>scene.lr_nightlight</title>
<polygon fill="white" stroke="turquoise" points="457.821,-305.633 348.821,-305.633 348.821,-269.633 457.821,-269.633 457.821,-305.633"/>
<text text-anchor="middle" x="403.321" y="-285.233" font-family="arial" font-size="10.50" fill="#212121">scene.lr_nightlight</text>
</g>
<!-- scene.lr_nightlight&#45;&gt;light.hue_color_lamp_3 -->
<g id="edge6" class="edge"><title>scene.lr_nightlight&#45;&gt;light.hue_color_lamp_3</title>
<path fill="none" stroke="black" d="M386.643,-269.297C360.644,-241.28 345.996,-230.094 272.14,-179.665"/>
<polygon fill="black" stroke="black" points="265.769,-175.317 273.867,-176.757 268.867,-177.431 271.964,-179.545 271.964,-179.545 271.964,-179.545 268.867,-177.431 270.062,-182.333 265.769,-175.317 265.769,-175.317"/>
<text text-anchor="middle" x="322.208" y="-222.57" font-family="arial" font-size="10.50" fill="#212121">on</text>
</g>
<!-- scene.lr_nightlight&#45;&gt;light.hue_color_lamp_1 -->
<g id="edge7" class="edge"><title>scene.lr_nightlight&#45;&gt;light.hue_color_lamp_1</title>
<path fill="none" stroke="black" d="M390.911,-269.258C383.221,-258.928 375.094,-251.023 354.358,-233.119"/>
<polygon fill="black" stroke="black" points="348.488,-228.071 356.375,-230.402 351.331,-230.516 354.174,-232.961 354.174,-232.961 354.174,-232.961 351.331,-230.516 351.973,-235.52 348.488,-228.071 348.488,-228.071"/>
<text text-anchor="middle" x="364.303" y="-251.254" font-family="arial" font-size="10.50" fill="#212121">on</text>
</g>
<!-- scene.lr_nightlight&#45;&gt;light.hue_color_lamp_2 -->
<g id="edge8" class="edge"><title>scene.lr_nightlight&#45;&gt;light.hue_color_lamp_2</title>
<path fill="none" stroke="black" d="M354.393,-305.654C351.279,-306.026 348.099,-306.188 344.728,-306.142"/>
<polygon fill="black" stroke="black" points="336.996,-305.713 344.671,-302.759 340.74,-305.921 344.484,-306.129 344.484,-306.129 344.484,-306.129 340.74,-305.921 344.297,-309.499 336.996,-305.713 336.996,-305.713"/>
<text text-anchor="middle" x="351.858" y="-309.748" font-family="arial" font-size="10.50" fill="#212121">on</text>
</g>
<!-- scene.lr_dimmed -->
<g id="node10" class="node"><title>scene.lr_dimmed</title>
<polygon fill="white" stroke="turquoise" points="202.557,-317.846 99.5572,-317.846 99.5572,-281.846 202.557,-281.846 202.557,-317.846"/>
<text text-anchor="middle" x="151.057" y="-297.446" font-family="arial" font-size="10.50" fill="#212121">scene.lr_dimmed</text>
</g>
<!-- scene.lr_dimmed&#45;&gt;light.hue_color_lamp_3 -->
<g id="edge9" class="edge"><title>scene.lr_dimmed&#45;&gt;light.hue_color_lamp_3</title>
<path fill="none" stroke="black" d="M154.738,-281.832C163.019,-243.222 169.739,-232.391 217.116,-181.135"/>
<polygon fill="black" stroke="black" points="222.458,-175.368 219.837,-183.163 219.91,-178.119 217.361,-180.87 217.361,-180.87 217.361,-180.87 219.91,-178.119 214.886,-178.576 222.458,-175.368 222.458,-175.368"/>
<text text-anchor="middle" x="187.171" y="-226.402" font-family="arial" font-size="10.50" fill="#212121">on</text>
</g>
<!-- scene.lr_dimmed&#45;&gt;light.hue_color_lamp_1 -->
<g id="edge10" class="edge"><title>scene.lr_dimmed&#45;&gt;light.hue_color_lamp_1</title>
<path fill="none" stroke="black" d="M202.835,-287.426C225.209,-279.406 246.39,-265.886 294.671,-232.393"/>
<polygon fill="black" stroke="black" points="301.017,-227.985 296.783,-235.035 297.937,-230.124 294.857,-232.264 294.857,-232.264 294.857,-232.264 297.937,-230.124 292.932,-229.492 301.017,-227.985 301.017,-227.985"/>
<text text-anchor="middle" x="247.226" y="-263.788" font-family="arial" font-size="10.50" fill="#212121">on</text>
</g>
<!-- scene.lr_dimmed&#45;&gt;light.hue_color_lamp_2 -->
<g id="edge11" class="edge"><title>scene.lr_dimmed&#45;&gt;light.hue_color_lamp_2</title>
<path fill="none" stroke="black" d="M202.596,-310.418C202.681,-310.41 202.767,-310.402 202.853,-310.394"/>
<polygon fill="black" stroke="black" points="206.801,-309.909 199.768,-314.173 203.079,-310.366 199.357,-310.823 199.357,-310.823 199.357,-310.823 203.079,-310.366 198.945,-307.473 206.801,-309.909 206.801,-309.909"/>
<text text-anchor="middle" x="209.288" y="-314" font-family="arial" font-size="10.50" fill="#212121">on</text>
</g>
<!-- scene.lr_off -->
<g id="node11" class="node"><title>scene.lr_off</title>
<polygon fill="white" stroke="turquoise" points="179.126,-226.499 101.126,-226.499 101.126,-190.499 179.126,-190.499 179.126,-226.499"/>
<text text-anchor="middle" x="140.126" y="-206.099" font-family="arial" font-size="10.50" fill="#212121">scene.lr_off</text>
</g>
<!-- scene.lr_off&#45;&gt;light.hue_color_lamp_3 -->
<g id="edge12" class="edge"><title>scene.lr_off&#45;&gt;light.hue_color_lamp_3</title>
<path fill="none" stroke="black" d="M157.326,-190.497C162.739,-185.52 167.932,-181.831 174.84,-178.431"/>
<polygon fill="black" stroke="black" points="181.721,-175.361 176.247,-181.499 178.296,-176.889 174.872,-178.417 174.872,-178.417 174.872,-178.417 178.296,-176.889 173.496,-175.335 181.721,-175.361 181.721,-175.361"/>
<text text-anchor="middle" x="162.307" y="-173.334" font-family="arial" font-size="10.50" fill="#212121">off</text>
</g>
<!-- scene.lr_off&#45;&gt;light.hue_color_lamp_1 -->
<g id="edge13" class="edge"><title>scene.lr_off&#45;&gt;light.hue_color_lamp_1</title>
<path fill="none" stroke="black" d="M179.492,-212.478C198.04,-213.799 216.039,-213.79 252.89,-212.587"/>
<polygon fill="black" stroke="black" points="260.517,-212.331 253.135,-215.956 256.769,-212.457 253.022,-212.583 253.022,-212.583 253.022,-212.583 256.769,-212.457 252.908,-209.21 260.517,-212.331 260.517,-212.331"/>
<text text-anchor="middle" x="213.671" y="-217.008" font-family="arial" font-size="10.50" fill="#212121">off</text>
</g>
<!-- scene.lr_off&#45;&gt;light.hue_color_lamp_2 -->
<g id="edge14" class="edge"><title>scene.lr_off&#45;&gt;light.hue_color_lamp_2</title>
<path fill="none" stroke="black" d="M152.408,-226.674C169.213,-251.004 179.319,-261.82 201.375,-271.058"/>
<polygon fill="black" stroke="black" points="208.624,-273.887 200.41,-274.304 205.13,-272.524 201.637,-271.16 201.637,-271.16 201.637,-271.16 205.13,-272.524 202.864,-268.016 208.624,-273.887 208.624,-273.887"/>
<text text-anchor="middle" x="169.465" y="-259.083" font-family="arial" font-size="10.50" fill="#212121">off</text>
</g>
<!-- script.play_cartoons -->
<g id="node12" class="node"><title>script.play_cartoons</title>
<polygon fill="white" stroke="brown" points="33.6181,-252.934 -84.3819,-252.934 -84.3819,-216.934 33.6181,-216.934 33.6181,-252.934"/>
<text text-anchor="middle" x="-25.3819" y="-232.534" font-family="arial" font-size="10.50" fill="#212121">script.play_cartoons</text>
</g>
<!-- shell_command -->
<g id="node13" class="node"><title>shell_command</title>
<polygon fill="white" stroke="black" points="66.6387,-195.61 -29.3613,-195.61 -29.3613,-159.61 66.6387,-159.61 66.6387,-195.61"/>
<text text-anchor="middle" x="18.6387" y="-175.21" font-family="arial" font-size="10.50" fill="#212121">shell_command</text>
</g>
<!-- script.play_cartoons&#45;&gt;shell_command -->
<g id="edge15" class="edge"><title>script.play_cartoons&#45;&gt;shell_command</title>
<path fill="none" stroke="black" d="M-1.86635,-216.703C0.82565,-213.134 3.43836,-208.675 6.62021,-202.483"/>
<polygon fill="black" stroke="black" points="10.0158,-195.681 9.68554,-203.899 8.34083,-199.036 6.66589,-202.391 6.66589,-202.391 6.66589,-202.391 8.34083,-199.036 3.64623,-200.884 10.0158,-195.681 10.0158,-195.681"/>
<text text-anchor="middle" x="-67.393" y="-197.907" font-family="arial" font-size="10.50" fill="#212121">shell_command.play_cartoons</text>
</g>
<!-- scene.lr_relax -->
<g id="node14" class="node"><title>scene.lr_relax</title>
<polygon fill="white" stroke="turquoise" points="464.437,-161.669 375.437,-161.669 375.437,-125.669 464.437,-125.669 464.437,-161.669"/>
<text text-anchor="middle" x="419.937" y="-141.269" font-family="arial" font-size="10.50" fill="#212121">scene.lr_relax</text>
</g>
<!-- scene.lr_relax&#45;&gt;light.hue_color_lamp_3 -->
<g id="edge16" class="edge"><title>scene.lr_relax&#45;&gt;light.hue_color_lamp_3</title>
<path fill="none" stroke="black" d="M375.43,-132.567C357.354,-129.797 341.375,-131.151 313.228,-137.703"/>
<polygon fill="black" stroke="black" points="305.801,-139.481 312.309,-134.452 309.448,-138.608 313.095,-137.735 313.095,-137.735 313.095,-137.735 309.448,-138.608 313.881,-141.017 305.801,-139.481 305.801,-139.481"/>
<text text-anchor="middle" x="334.012" y="-136.068" font-family="arial" font-size="10.50" fill="#212121">on</text>
</g>
<!-- scene.lr_relax&#45;&gt;light.hue_color_lamp_1 -->
<g id="edge17" class="edge"><title>scene.lr_relax&#45;&gt;light.hue_color_lamp_1</title>
<path fill="none" stroke="black" d="M402.659,-162.059C394.111,-170.119 385.013,-176.358 365.499,-187.803"/>
<polygon fill="black" stroke="black" points="358.785,-191.711 363.569,-185.021 362.026,-189.824 365.267,-187.938 365.267,-187.938 365.267,-187.938 362.026,-189.824 366.965,-190.855 358.785,-191.711 358.785,-191.711"/>
<text text-anchor="middle" x="375.192" y="-181.57" font-family="arial" font-size="10.50" fill="#212121">on</text>
</g>
<!-- scene.lr_relax&#45;&gt;light.hue_color_lamp_2 -->
<g id="edge18" class="edge"><title>scene.lr_relax&#45;&gt;light.hue_color_lamp_2</title>
<path fill="none" stroke="black" d="M412.601,-161.704C389.29,-218.274 379.886,-229.487 308.955,-270.141"/>
<polygon fill="black" stroke="black" points="302.363,-273.904 307.203,-267.255 305.62,-272.045 308.876,-270.186 308.876,-270.186 308.876,-270.186 305.62,-272.045 310.55,-273.117 302.363,-273.904 302.363,-273.904"/>
<text text-anchor="middle" x="362.31" y="-234.778" font-family="arial" font-size="10.50" fill="#212121">on</text>
</g>
<!-- event -->
<g id="node15" class="node"><title>event</title>
<polygon fill="white" stroke="black" points="69.7432,-127.456 15.7432,-127.456 15.7432,-91.456 69.7432,-91.456 69.7432,-127.456"/>
<text text-anchor="middle" x="42.7432" y="-107.056" font-family="arial" font-size="10.50" fill="#212121">event</text>
</g>
<!-- event&#45;&gt;shell_command -->
<g id="edge19" class="edge"><title>event&#45;&gt;shell_command</title>
<path fill="none" stroke="black" d="M41.7385,-127.509C40.6554,-134.729 38.221,-141.037 32.3173,-152.425"/>
<polygon fill="black" stroke="black" points="28.667,-159.312 29.1974,-151.104 30.4233,-155.998 32.1795,-152.685 32.1795,-152.685 32.1795,-152.685 30.4233,-155.998 35.1615,-154.265 28.667,-159.312 28.667,-159.312"/>
<text text-anchor="middle" x="-40.4776" y="-147.489" font-family="arial" font-size="10.50" fill="#212121">shell_command.generate_graph</text>
</g>
<!-- script.refresh_devices -->
<g id="node16" class="node"><title>script.refresh_devices</title>
<polygon fill="white" stroke="brown" points="-62.1403,-143.014 -189.14,-143.014 -189.14,-107.014 -62.1403,-107.014 -62.1403,-143.014"/>
<text text-anchor="middle" x="-125.64" y="-122.614" font-family="arial" font-size="10.50" fill="#212121">script.refresh_devices</text>
</g>
<!-- mqtt -->
<g id="node17" class="node"><title>mqtt</title>
<polygon fill="white" stroke="black" points="-0.745912,-142.966 -54.7459,-142.966 -54.7459,-106.966 -0.745912,-106.966 -0.745912,-142.966"/>
<text text-anchor="middle" x="-27.7459" y="-122.566" font-family="arial" font-size="10.50" fill="#212121">mqtt</text>
</g>
<!-- script.refresh_devices&#45;&gt;mqtt -->
<g id="edge20" class="edge"><title>script.refresh_devices&#45;&gt;mqtt</title>
<path fill="none" stroke="black" d="M-61.9815,-131.454C-61.8354,-131.449 -61.6895,-131.443 -61.5439,-131.437"/>
<polygon fill="black" stroke="black" points="-55.1422,-131.111 -62.4608,-134.863 -58.8873,-131.302 -62.6325,-131.492 -62.6325,-131.492 -62.6325,-131.492 -58.8873,-131.302 -62.8041,-128.122 -55.1422,-131.111 -55.1422,-131.111"/>
<text text-anchor="middle" x="-32.5985" y="-135.039" font-family="arial" font-size="10.50" fill="#212121">mqtt.publish</text>
</g>
<!-- script.refresh_devices&#45;&gt;mqtt -->
<g id="edge21" class="edge"><title>script.refresh_devices&#45;&gt;mqtt</title>
<path fill="none" stroke="black" d="M-61.9878,-118.511C-61.8417,-118.517 -61.6958,-118.523 -61.5501,-118.528"/>
<polygon fill="black" stroke="black" points="-55.1481,-118.848 -62.8071,-121.845 -58.8934,-118.661 -62.6388,-118.474 -62.6388,-118.474 -62.6388,-118.474 -58.8934,-118.661 -62.4704,-115.103 -55.1481,-118.848 -55.1481,-118.848"/>
<text text-anchor="middle" x="-32.6048" y="-122.126" font-family="arial" font-size="10.50" fill="#212121">mqtt.publish</text>
</g>
<!-- input_select.scene_livingroom -->
<g id="node18" class="node"><title>input_select.scene_livingroom</title>
<polygon fill="white" stroke="black" points="-95.1197,-9.68356 -260.12,-9.68356 -260.12,26.3164 -95.1197,26.3164 -95.1197,-9.68356"/>
<text text-anchor="middle" x="-177.62" y="10.7164" font-family="arial" font-size="10.50" fill="#212121">input_select.scene_livingroom</text>
</g>
<!-- input_select.scene_livingroom&#45;&gt;input_select.scene_livingroom -->
<g id="edge23" class="edge"><title>input_select.scene_livingroom&#45;&gt;input_select.scene_livingroom</title>
<path fill="none" stroke="black" d="M-94.8233,2.40072C-84.1626,3.42656 -77.1197,5.39847 -77.1197,8.31644 -77.1197,10.4593 -80.918,12.092 -87.158,13.2144"/>
<polygon fill="black" stroke="black" points="-94.8233,14.2322 -86.9443,16.5906 -91.1059,13.7386 -87.3885,13.245 -87.3885,13.245 -87.3885,13.245 -91.1059,13.7386 -87.8328,9.89932 -94.8233,14.2322 -94.8233,14.2322"/>
<text text-anchor="middle" x="-15.1197" y="10.7164" font-family="arial" font-size="10.50" fill="#212121">input_select.select_option</text>
</g>
<!-- {% if is_state( &quot;input_select.scene_livingroom&quot;, &quot;Nightlight&quot; ) %}
 &#160;scene.livingroom_nightlight
{%&#45;elif is_state( &quot;input_select.scene_livingroom&quot;, &quot;Dimmed&quot; ) %}
 &#160;scene.livingroom_dimmed
{%&#45;elif is_state( &quot;input_select.scene_livingroom&quot;, &quot;Relax&quot; ) %}
 &#160;scene.livingroom_relax
{%&#45;elif is_state( &quot;input_select.scene_livingroom&quot;, &quot;Read&quot; ) %}
 &#160;scene.livingroom_read
{%&#45;elif is_state( &quot;input_select.scene_livingroom&quot;, &quot;Bright&quot; ) %}
 &#160;scene.livingroom_concentrate
{%&#45;elif is_state( &quot;input_select.scene_livingroom&quot;, &quot;Off&quot; ) %}
 &#160;scene.livingroom_off
{% endif %}
 -->
<g id="node19" class="node"><title>{% if is_state( &quot;input_select.scene_livingroom&quot;, &quot;Nightlight&quot; ) %}
 &#160;scene.livingroom_nightlight
{%&#45;elif is_state( &quot;input_select.scene_livingroom&quot;, &quot;Dimmed&quot; ) %}
 &#160;scene.livingroom_dimmed
{%&#45;elif is_state( &quot;input_select.scene_livingroom&quot;, &quot;Relax&quot; ) %}
 &#160;scene.livingroom_relax
{%&#45;elif is_state( &quot;input_select.scene_livingroom&quot;, &quot;Read&quot; ) %}
 &#160;scene.livingroom_read
{%&#45;elif is_state( &quot;input_select.scene_livingroom&quot;, &quot;Bright&quot; ) %}
 &#160;scene.livingroom_concentrate
{%&#45;elif is_state( &quot;input_select.scene_livingroom&quot;, &quot;Off&quot; ) %}
 &#160;scene.livingroom_off
{% endif %}
</title>
<polygon fill="white" stroke="black" points="244.057,-73.6774 -78.9426,-73.6774 -78.9426,90.3226 244.057,90.3226 244.057,-73.6774"/>
<text text-anchor="middle" x="82.5574" y="-61.2774" font-family="arial" font-size="10.50" fill="#212121">{% if is_state( &quot;input_select.scene_livingroom&quot;, &quot;Nightlight&quot; ) %}</text>
<text text-anchor="middle" x="82.5574" y="-49.2774" font-family="arial" font-size="10.50" fill="#212121"> &#160;scene.livingroom_nightlight</text>
<text text-anchor="middle" x="82.5574" y="-37.2774" font-family="arial" font-size="10.50" fill="#212121">{%&#45;elif is_state( &quot;input_select.scene_livingroom&quot;, &quot;Dimmed&quot; ) %}</text>
<text text-anchor="middle" x="82.5574" y="-25.2774" font-family="arial" font-size="10.50" fill="#212121"> &#160;scene.livingroom_dimmed</text>
<text text-anchor="middle" x="82.5574" y="-13.2774" font-family="arial" font-size="10.50" fill="#212121">{%&#45;elif is_state( &quot;input_select.scene_livingroom&quot;, &quot;Relax&quot; ) %}</text>
<text text-anchor="middle" x="82.5574" y="-1.27739" font-family="arial" font-size="10.50" fill="#212121"> &#160;scene.livingroom_relax</text>
<text text-anchor="middle" x="82.5574" y="10.7226" font-family="arial" font-size="10.50" fill="#212121">{%&#45;elif is_state( &quot;input_select.scene_livingroom&quot;, &quot;Read&quot; ) %}</text>
<text text-anchor="middle" x="82.5574" y="22.7226" font-family="arial" font-size="10.50" fill="#212121"> &#160;scene.livingroom_read</text>
<text text-anchor="middle" x="82.5574" y="34.7226" font-family="arial" font-size="10.50" fill="#212121">{%&#45;elif is_state( &quot;input_select.scene_livingroom&quot;, &quot;Bright&quot; ) %}</text>
<text text-anchor="middle" x="82.5574" y="46.7226" font-family="arial" font-size="10.50" fill="#212121"> &#160;scene.livingroom_concentrate</text>
<text text-anchor="middle" x="82.5574" y="58.7226" font-family="arial" font-size="10.50" fill="#212121">{%&#45;elif is_state( &quot;input_select.scene_livingroom&quot;, &quot;Off&quot; ) %}</text>
<text text-anchor="middle" x="82.5574" y="70.7226" font-family="arial" font-size="10.50" fill="#212121"> &#160;scene.livingroom_off</text>
<text text-anchor="middle" x="82.5574" y="82.7226" font-family="arial" font-size="10.50" fill="#212121">{% endif %}</text>
</g>
<!-- input_select.scene_livingroom&#45;&gt;{% if is_state( &quot;input_select.scene_livingroom&quot;, &quot;Nightlight&quot; ) %}
 &#160;scene.livingroom_nightlight
{%&#45;elif is_state( &quot;input_select.scene_livingroom&quot;, &quot;Dimmed&quot; ) %}
 &#160;scene.livingroom_dimmed
{%&#45;elif is_state( &quot;input_select.scene_livingroom&quot;, &quot;Relax&quot; ) %}
 &#160;scene.livingroom_relax
{%&#45;elif is_state( &quot;input_select.scene_livingroom&quot;, &quot;Read&quot; ) %}
 &#160;scene.livingroom_read
{%&#45;elif is_state( &quot;input_select.scene_livingroom&quot;, &quot;Bright&quot; ) %}
 &#160;scene.livingroom_concentrate
{%&#45;elif is_state( &quot;input_select.scene_livingroom&quot;, &quot;Off&quot; ) %}
 &#160;scene.livingroom_off
{% endif %}
 -->
<g id="edge22" class="edge"><title>input_select.scene_livingroom&#45;&gt;{% if is_state( &quot;input_select.scene_livingroom&quot;, &quot;Nightlight&quot; ) %}
 &#160;scene.livingroom_nightlight
{%&#45;elif is_state( &quot;input_select.scene_livingroom&quot;, &quot;Dimmed&quot; ) %}
 &#160;scene.livingroom_dimmed
{%&#45;elif is_state( &quot;input_select.scene_livingroom&quot;, &quot;Relax&quot; ) %}
 &#160;scene.livingroom_relax
{%&#45;elif is_state( &quot;input_select.scene_livingroom&quot;, &quot;Read&quot; ) %}
 &#160;scene.livingroom_read
{%&#45;elif is_state( &quot;input_select.scene_livingroom&quot;, &quot;Bright&quot; ) %}
 &#160;scene.livingroom_concentrate
{%&#45;elif is_state( &quot;input_select.scene_livingroom&quot;, &quot;Off&quot; ) %}
 &#160;scene.livingroom_off
{% endif %}
</title>
<path fill="none" stroke="black" d="M-95.032,8.3163C-92.4153,8.31635 -89.7242,8.3164 -86.9378,8.31647"/>
<polygon fill="black" stroke="black" points="-79.3258,8.31666 -86.8256,4.94137 -83.0758,8.31652 -86.8258,8.31637 -86.8258,8.31637 -86.8258,8.31637 -83.0758,8.31652 -86.8259,11.6914 -79.3258,8.31666 -79.3258,8.31666"/>
<text text-anchor="middle" x="-121.959" y="4.71646" font-family="arial" font-size="10.50" fill="#212121">scene.turn_on</text>
</g>
<!-- time -->
<g id="node21" class="node"><title>time</title>
<polygon fill="white" stroke="black" points="-95.3952,-79.6804 -149.395,-79.6804 -149.395,-43.6804 -95.3952,-43.6804 -95.3952,-79.6804"/>
<text text-anchor="middle" x="-122.395" y="-59.2804" font-family="arial" font-size="10.50" fill="#212121">time</text>
</g>
<!-- scene.lr_read -->
<g id="node22" class="node"><title>scene.lr_read</title>
<polygon fill="white" stroke="turquoise" points="365.709,-123.312 277.709,-123.312 277.709,-87.3118 365.709,-87.3118 365.709,-123.312"/>
<text text-anchor="middle" x="321.709" y="-102.912" font-family="arial" font-size="10.50" fill="#212121">scene.lr_read</text>
</g>
<!-- scene.lr_read&#45;&gt;light.hue_color_lamp_3 -->
<g id="edge25" class="edge"><title>scene.lr_read&#45;&gt;light.hue_color_lamp_3</title>
<path fill="none" stroke="black" d="M277.548,-119.39C272.932,-122.812 268.008,-127.321 261.912,-133.465"/>
<polygon fill="black" stroke="black" points="256.497,-139.021 259.315,-131.295 259.114,-136.336 261.732,-133.65 261.732,-133.65 261.732,-133.65 259.114,-136.336 264.149,-136.006 256.497,-139.021 256.497,-139.021"/>
<text text-anchor="middle" x="260.297" y="-120.257" font-family="arial" font-size="10.50" fill="#212121">on</text>
</g>
<!-- scene.lr_read&#45;&gt;light.hue_color_lamp_1 -->
<g id="edge26" class="edge"><title>scene.lr_read&#45;&gt;light.hue_color_lamp_1</title>
<path fill="none" stroke="black" d="M329.981,-123.374C337.568,-141.546 337.688,-151.636 331.902,-184.018"/>
<polygon fill="black" stroke="black" points="330.488,-191.761 328.515,-183.777 331.161,-188.072 331.835,-184.383 331.835,-184.383 331.835,-184.383 331.161,-188.072 335.155,-184.989 330.488,-191.761 330.488,-191.761"/>
<text text-anchor="middle" x="329.175" y="-161.379" font-family="arial" font-size="10.50" fill="#212121">on</text>
</g>
<!-- scene.lr_read&#45;&gt;light.hue_color_lamp_2 -->
<g id="edge27" class="edge"><title>scene.lr_read&#45;&gt;light.hue_color_lamp_2</title>
<path fill="none" stroke="black" d="M324.291,-123.513C332.763,-185.068 329.944,-196.848 286.123,-266.98"/>
<polygon fill="black" stroke="black" points="282.043,-273.493 283.165,-265.345 284.034,-270.315 286.025,-267.137 286.025,-267.137 286.025,-267.137 284.034,-270.315 288.885,-268.929 282.043,-273.493 282.043,-273.493"/>
<text text-anchor="middle" x="313.785" y="-209.142" font-family="arial" font-size="10.50" fill="#212121">on</text>
</g>
</g>
</svg>
