<?xml version="1.0" encoding="UTF-8" standalone="no"?>
<!DOCTYPE svg PUBLIC "-//W3C//DTD SVG 1.1//EN"
 "http://www.w3.org/Graphics/SVG/1.1/DTD/svg11.dtd">
<!-- Generated by graphviz version 2.38.0 (20140413.2041)
 -->
<!-- Title: %3 Pages: 1 -->
<svg width="891pt" height="467pt"
 viewBox="0.00 0.00 890.64 467.20" xmlns="http://www.w3.org/2000/svg" xmlns:xlink="http://www.w3.org/1999/xlink">
<g id="graph0" class="graph" transform="scale(1 1) rotate(0) translate(237.556 286.722)">
<title>%3</title>
<polygon fill="#e5e5e5" stroke="none" points="-237.556,180.474 -237.556,-286.722 653.087,-286.722 653.087,180.474 -237.556,180.474"/>
<!-- scene.lr_relax -->
<g id="node1" class="node"><title>scene.lr_relax</title>
<polygon fill="white" stroke="turquoise" points="-153.598,-98.6364 -242.598,-98.6364 -242.598,-62.6364 -153.598,-62.6364 -153.598,-98.6364"/>
<text text-anchor="middle" x="-198.098" y="-78.2364" font-family="arial" font-size="10.50" fill="#212121">scene.lr_relax</text>
</g>
<!-- light.hue_color_lamp_1 -->
<g id="node2" class="node"><title>light.hue_color_lamp_1</title>
<polygon fill="white" stroke="yellow" points="-10.9989,-3.95696 -143.999,-3.95696 -143.999,32.043 -10.9989,32.043 -10.9989,-3.95696"/>
<text text-anchor="middle" x="-77.4989" y="16.443" font-family="arial" font-size="10.50" fill="#212121">light.hue_color_lamp_1</text>
</g>
<!-- scene.lr_relax&#45;&gt;light.hue_color_lamp_1 -->
<g id="edge1" class="edge"><title>scene.lr_relax&#45;&gt;light.hue_color_lamp_1</title>
<path fill="none" stroke="black" d="M-183.117,-62.571C-167.527,-44.6469 -155.603,-35.5987 -112.756,-8.27318"/>
<polygon fill="black" stroke="black" points="-106.206,-4.10568 -110.722,-10.9793 -109.37,-6.11874 -112.534,-8.13179 -112.534,-8.13179 -112.534,-8.13179 -109.37,-6.11874 -114.346,-5.28429 -106.206,-4.10568 -106.206,-4.10568"/>
<text text-anchor="middle" x="-153.28" y="-34.2536" font-family="arial" font-size="10.50" fill="#212121">on</text>
</g>
<!-- light.hue_color_lamp_2 -->
<g id="node3" class="node"><title>light.hue_color_lamp_2</title>
<polygon fill="white" stroke="yellow" points="127.671,-0.528304 -5.32851,-0.528304 -5.32851,35.4717 127.671,35.4717 127.671,-0.528304"/>
<text text-anchor="middle" x="61.1715" y="19.8717" font-family="arial" font-size="10.50" fill="#212121">light.hue_color_lamp_2</text>
</g>
<!-- scene.lr_relax&#45;&gt;light.hue_color_lamp_2 -->
<g id="edge2" class="edge"><title>scene.lr_relax&#45;&gt;light.hue_color_lamp_2</title>
<path fill="none" stroke="black" d="M-153.51,-70.0347C-112.783,-59.4754 -84.9371,-47.9493 13.9375,-3.70514"/>
<polygon fill="black" stroke="black" points="20.8665,-0.603134 15.4002,-6.74813 17.4438,-2.13543 14.0212,-3.66772 14.0212,-3.66772 14.0212,-3.66772 17.4438,-2.13543 12.6421,-0.587318 20.8665,-0.603134 20.8665,-0.603134"/>
<text text-anchor="middle" x="-71.3432" y="-42.0216" font-family="arial" font-size="10.50" fill="#212121">on</text>
</g>
<!-- light.hue_color_lamp_3 -->
<g id="node4" class="node"><title>light.hue_color_lamp_3</title>
<polygon fill="white" stroke="yellow" points="107.993,-129.688 -25.007,-129.688 -25.007,-93.6877 107.993,-93.6877 107.993,-129.688"/>
<text text-anchor="middle" x="41.493" y="-109.288" font-family="arial" font-size="10.50" fill="#212121">light.hue_color_lamp_3</text>
</g>
<!-- scene.lr_relax&#45;&gt;light.hue_color_lamp_3 -->
<g id="edge3" class="edge"><title>scene.lr_relax&#45;&gt;light.hue_color_lamp_3</title>
<path fill="none" stroke="black" d="M-167.665,-98.6562C-118.414,-127.016 -97.5468,-132.154 -32.8689,-123.427"/>
<polygon fill="black" stroke="black" points="-25.1916,-122.357 -32.1537,-126.735 -28.9057,-122.875 -32.6198,-123.393 -32.6198,-123.393 -32.6198,-123.393 -28.9057,-122.875 -33.0858,-120.05 -25.1916,-122.357 -25.1916,-122.357"/>
<text text-anchor="middle" x="-104.676" y="-129.796" font-family="arial" font-size="10.50" fill="#212121">on</text>
</g>
<!-- event -->
<g id="node5" class="node"><title>event</title>
<polygon fill="white" stroke="black" points="-34.3819,-316.934 -88.3819,-316.934 -88.3819,-280.934 -34.3819,-280.934 -34.3819,-316.934"/>
<text text-anchor="middle" x="-61.3819" y="-296.534" font-family="arial" font-size="10.50" fill="#212121">event</text>
</g>
<!-- shell_command -->
<g id="node6" class="node"><title>shell_command</title>
<polygon fill="white" stroke="black" points="30.6387,-259.61 -65.3613,-259.61 -65.3613,-223.61 30.6387,-223.61 30.6387,-259.61"/>
<text text-anchor="middle" x="-17.3613" y="-239.21" font-family="arial" font-size="10.50" fill="#212121">shell_command</text>
</g>
<!-- event&#45;&gt;shell_command -->
<g id="edge4" class="edge"><title>event&#45;&gt;shell_command</title>
<path fill="none" stroke="black" d="M-47.9921,-280.903C-45.0421,-277.035 -41.5174,-272.488 -36.3315,-265.846"/>
<polygon fill="black" stroke="black" points="-31.5607,-259.742 -33.5204,-267.73 -33.8701,-262.697 -36.1795,-265.651 -36.1795,-265.651 -36.1795,-265.651 -33.8701,-262.697 -38.8386,-263.573 -31.5607,-259.742 -31.5607,-259.742"/>
<text text-anchor="middle" x="36.8672" y="-274.322" font-family="arial" font-size="10.50" fill="#212121">shell_command.generate_graph</text>
</g>
<!-- input_select.scene_livingroom -->
<g id="node7" class="node"><title>input_select.scene_livingroom</title>
<polygon fill="white" stroke="black" points="247.88,-182.684 82.8803,-182.684 82.8803,-146.684 247.88,-146.684 247.88,-182.684"/>
<text text-anchor="middle" x="165.38" y="-162.284" font-family="arial" font-size="10.50" fill="#212121">input_select.scene_livingroom</text>
</g>
<!-- input_select.scene_livingroom&#45;&gt;input_select.scene_livingroom -->
<g id="edge6" class="edge"><title>input_select.scene_livingroom&#45;&gt;input_select.scene_livingroom</title>
<path fill="none" stroke="black" d="M248.177,-170.599C258.837,-169.573 265.88,-167.602 265.88,-164.684 265.88,-162.541 262.082,-160.908 255.842,-159.786"/>
<polygon fill="black" stroke="black" points="248.177,-158.768 256.056,-156.409 251.894,-159.261 255.611,-159.755 255.611,-159.755 255.611,-159.755 251.894,-159.261 255.167,-163.101 248.177,-158.768 248.177,-158.768"/>
<text text-anchor="middle" x="327.88" y="-162.284" font-family="arial" font-size="10.50" fill="#212121">input_select.select_option</text>
</g>
<!-- {% if is_state( &quot;input_select.scene_livingroom&quot;, &quot;Nightlight&quot; ) %}
 &#160;scene.livingroom_nightlight
{%&#45;elif is_state( &quot;input_select.scene_livingroom&quot;, &quot;Dimmed&quot; ) %}
 &#160;scene.livingroom_dimmed
{%&#45;elif is_state( &quot;input_select.scene_livingroom&quot;, &quot;Relax&quot; ) %}
 &#160;scene.livingroom_relax
{%&#45;elif is_state( &quot;input_select.scene_livingroom&quot;, &quot;Read&quot; ) %}
 &#160;scene.livingroom_read
{%&#45;elif is_state( &quot;input_select.scene_livingroom&quot;, &quot;Bright&quot; ) %}
 &#160;scene.livingroom_concentrate
{%&#45;elif is_state( &quot;input_select.scene_livingroom&quot;, &quot;Off&quot; ) %}
 &#160;scene.livingroom_off
{% endif %}
 -->
<g id="node8" class="node"><title>{% if is_state( &quot;input_select.scene_livingroom&quot;, &quot;Nightlight&quot; ) %}
 &#160;scene.livingroom_nightlight
{%&#45;elif is_state( &quot;input_select.scene_livingroom&quot;, &quot;Dimmed&quot; ) %}
 &#160;scene.livingroom_dimmed
{%&#45;elif is_state( &quot;input_select.scene_livingroom&quot;, &quot;Relax&quot; ) %}
 &#160;scene.livingroom_relax
{%&#45;elif is_state( &quot;input_select.scene_livingroom&quot;, &quot;Read&quot; ) %}
 &#160;scene.livingroom_read
{%&#45;elif is_state( &quot;input_select.scene_livingroom&quot;, &quot;Bright&quot; ) %}
 &#160;scene.livingroom_concentrate
{%&#45;elif is_state( &quot;input_select.scene_livingroom&quot;, &quot;Off&quot; ) %}
 &#160;scene.livingroom_off
{% endif %}
</title>
<polygon fill="white" stroke="black" points="587.057,-246.677 264.057,-246.677 264.057,-82.6774 587.057,-82.6774 587.057,-246.677"/>
<text text-anchor="middle" x="425.557" y="-234.277" font-family="arial" font-size="10.50" fill="#212121">{% if is_state( &quot;input_select.scene_livingroom&quot;, &quot;Nightlight&quot; ) %}</text>
<text text-anchor="middle" x="425.557" y="-222.277" font-family="arial" font-size="10.50" fill="#212121"> &#160;scene.livingroom_nightlight</text>
<text text-anchor="middle" x="425.557" y="-210.277" font-family="arial" font-size="10.50" fill="#212121">{%&#45;elif is_state( &quot;input_select.scene_livingroom&quot;, &quot;Dimmed&quot; ) %}</text>
<text text-anchor="middle" x="425.557" y="-198.277" font-family="arial" font-size="10.50" fill="#212121"> &#160;scene.livingroom_dimmed</text>
<text text-anchor="middle" x="425.557" y="-186.277" font-family="arial" font-size="10.50" fill="#212121">{%&#45;elif is_state( &quot;input_select.scene_livingroom&quot;, &quot;Relax&quot; ) %}</text>
<text text-anchor="middle" x="425.557" y="-174.277" font-family="arial" font-size="10.50" fill="#212121"> &#160;scene.livingroom_relax</text>
<text text-anchor="middle" x="425.557" y="-162.277" font-family="arial" font-size="10.50" fill="#212121">{%&#45;elif is_state( &quot;input_select.scene_livingroom&quot;, &quot;Read&quot; ) %}</text>
<text text-anchor="middle" x="425.557" y="-150.277" font-family="arial" font-size="10.50" fill="#212121"> &#160;scene.livingroom_read</text>
<text text-anchor="middle" x="425.557" y="-138.277" font-family="arial" font-size="10.50" fill="#212121">{%&#45;elif is_state( &quot;input_select.scene_livingroom&quot;, &quot;Bright&quot; ) %}</text>
<text text-anchor="middle" x="425.557" y="-126.277" font-family="arial" font-size="10.50" fill="#212121"> &#160;scene.livingroom_concentrate</text>
<text text-anchor="middle" x="425.557" y="-114.277" font-family="arial" font-size="10.50" fill="#212121">{%&#45;elif is_state( &quot;input_select.scene_livingroom&quot;, &quot;Off&quot; ) %}</text>
<text text-anchor="middle" x="425.557" y="-102.277" font-family="arial" font-size="10.50" fill="#212121"> &#160;scene.livingroom_off</text>
<text text-anchor="middle" x="425.557" y="-90.2774" font-family="arial" font-size="10.50" fill="#212121">{% endif %}</text>
</g>
<!-- input_select.scene_livingroom&#45;&gt;{% if is_state( &quot;input_select.scene_livingroom&quot;, &quot;Nightlight&quot; ) %}
 &#160;scene.livingroom_nightlight
{%&#45;elif is_state( &quot;input_select.scene_livingroom&quot;, &quot;Dimmed&quot; ) %}
 &#160;scene.livingroom_dimmed
{%&#45;elif is_state( &quot;input_select.scene_livingroom&quot;, &quot;Relax&quot; ) %}
 &#160;scene.livingroom_relax
{%&#45;elif is_state( &quot;input_select.scene_livingroom&quot;, &quot;Read&quot; ) %}
 &#160;scene.livingroom_read
{%&#45;elif is_state( &quot;input_select.scene_livingroom&quot;, &quot;Bright&quot; ) %}
 &#160;scene.livingroom_concentrate
{%&#45;elif is_state( &quot;input_select.scene_livingroom&quot;, &quot;Off&quot; ) %}
 &#160;scene.livingroom_off
{% endif %}
 -->
<g id="edge5" class="edge"><title>input_select.scene_livingroom&#45;&gt;{% if is_state( &quot;input_select.scene_livingroom&quot;, &quot;Nightlight&quot; ) %}
 &#160;scene.livingroom_nightlight
{%&#45;elif is_state( &quot;input_select.scene_livingroom&quot;, &quot;Dimmed&quot; ) %}
 &#160;scene.livingroom_dimmed
{%&#45;elif is_state( &quot;input_select.scene_livingroom&quot;, &quot;Relax&quot; ) %}
 &#160;scene.livingroom_relax
{%&#45;elif is_state( &quot;input_select.scene_livingroom&quot;, &quot;Read&quot; ) %}
 &#160;scene.livingroom_read
{%&#45;elif is_state( &quot;input_select.scene_livingroom&quot;, &quot;Bright&quot; ) %}
 &#160;scene.livingroom_concentrate
{%&#45;elif is_state( &quot;input_select.scene_livingroom&quot;, &quot;Off&quot; ) %}
 &#160;scene.livingroom_off
{% endif %}
</title>
<path fill="none" stroke="black" d="M247.968,-164.684C250.585,-164.684 253.276,-164.684 256.062,-164.684"/>
<polygon fill="black" stroke="black" points="263.674,-164.683 256.174,-168.059 259.924,-164.683 256.174,-164.684 256.174,-164.684 256.174,-164.684 259.924,-164.683 256.174,-161.309 263.674,-164.683 263.674,-164.683"/>
<text text-anchor="middle" x="221.041" y="-168.284" font-family="arial" font-size="10.50" fill="#212121">scene.turn_on</text>
</g>
<!-- scene.lr_nightlight -->
<g id="node9" class="node"><title>scene.lr_nightlight</title>
<polygon fill="white" stroke="turquoise" points="226.867,-105.779 117.867,-105.779 117.867,-69.7785 226.867,-69.7785 226.867,-105.779"/>
<text text-anchor="middle" x="172.367" y="-85.3785" font-family="arial" font-size="10.50" fill="#212121">scene.lr_nightlight</text>
</g>
<!-- scene.lr_nightlight&#45;&gt;light.hue_color_lamp_1 -->
<g id="edge7" class="edge"><title>scene.lr_nightlight&#45;&gt;light.hue_color_lamp_1</title>
<path fill="none" stroke="black" d="M117.564,-75.379C82.1265,-65.6416 52.2705,-51.5714 -34.7917,-7.58222"/>
<polygon fill="black" stroke="black" points="-41.7138,-4.08281 -33.4977,-4.45464 -38.3671,-5.77472 -35.0205,-7.46662 -35.0205,-7.46662 -35.0205,-7.46662 -38.3671,-5.77472 -36.5432,-10.4786 -41.7138,-4.08281 -41.7138,-4.08281"/>
<text text-anchor="middle" x="30.1145" y="-46.6685" font-family="arial" font-size="10.50" fill="#212121">on</text>
</g>
<!-- scene.lr_nightlight&#45;&gt;light.hue_color_lamp_2 -->
<g id="edge8" class="edge"><title>scene.lr_nightlight&#45;&gt;light.hue_color_lamp_2</title>
<path fill="none" stroke="black" d="M160.922,-69.7376C146.371,-47.7614 135.89,-38.1457 91.8437,-5.26866"/>
<polygon fill="black" stroke="black" points="85.7046,-0.696422 93.7356,-2.46953 88.7121,-2.93637 91.7196,-5.17632 91.7196,-5.17632 91.7196,-5.17632 88.7121,-2.93637 89.7037,-7.8831 85.7046,-0.696422 85.7046,-0.696422"/>
<text text-anchor="middle" x="119.797" y="-35.4777" font-family="arial" font-size="10.50" fill="#212121">on</text>
</g>
<!-- scene.lr_nightlight&#45;&gt;light.hue_color_lamp_3 -->
<g id="edge9" class="edge"><title>scene.lr_nightlight&#45;&gt;light.hue_color_lamp_3</title>
<path fill="none" stroke="black" d="M143.001,-105.85C134.03,-110.454 126.012,-113.041 115.71,-114.202"/>
<polygon fill="black" stroke="black" points="108.173,-114.785 115.391,-110.842 111.912,-114.496 115.651,-114.206 115.651,-114.206 115.651,-114.206 111.912,-114.496 115.912,-117.571 108.173,-114.785 108.173,-114.785"/>
<text text-anchor="middle" x="119.582" y="-115.97" font-family="arial" font-size="10.50" fill="#212121">on</text>
</g>
<!-- device_tracker.bigdrakar_nicole -->
<g id="node10" class="node"><title>device_tracker.bigdrakar_nicole</title>
<polygon fill="white" stroke="purple" points="342.968,28.009 169.968,28.009 169.968,64.009 342.968,64.009 342.968,28.009"/>
<text text-anchor="middle" x="256.468" y="48.409" font-family="arial" font-size="10.50" fill="#212121">device_tracker.bigdrakar_nicole</text>
</g>
<!-- notify -->
<g id="node11" class="node"><title>notify</title>
<polygon fill="white" stroke="black" points="406.459,28.0106 352.459,28.0106 352.459,64.0106 406.459,64.0106 406.459,28.0106"/>
<text text-anchor="middle" x="379.459" y="48.4106" font-family="arial" font-size="10.50" fill="#212121">notify</text>
</g>
<!-- device_tracker.bigdrakar_nicole&#45;&gt;notify -->
<g id="edge10" class="edge"><title>device_tracker.bigdrakar_nicole&#45;&gt;notify</title>
<path fill="none" stroke="black" d="M343.227,46.0099C343.725,46.0099 344.219,46.0099 344.708,46.0099"/>
<polygon fill="black" stroke="black" points="352.388,46.01 344.888,42.6348 348.638,46.0099 344.888,46.0098 344.888,46.0098 344.888,46.0098 348.638,46.0099 344.888,49.3848 352.388,46.01 352.388,46.01"/>
<text text-anchor="middle" x="344.662" y="54.4099" font-family="arial" font-size="10.50" fill="#212121">notify.justin</text>
</g>
<!-- script -->
<g id="node12" class="node"><title>script</title>
<polygon fill="white" stroke="brown" points="-174.605,142.68 -228.605,142.68 -228.605,178.68 -174.605,178.68 -174.605,142.68"/>
<text text-anchor="middle" x="-201.605" y="163.08" font-family="arial" font-size="10.50" fill="#212121">script</text>
</g>
<!-- script.play_cartoons -->
<g id="node13" class="node"><title>script.play_cartoons</title>
<polygon fill="white" stroke="brown" points="65.7432,-191.456 -52.2568,-191.456 -52.2568,-155.456 65.7432,-155.456 65.7432,-191.456"/>
<text text-anchor="middle" x="6.74319" y="-171.056" font-family="arial" font-size="10.50" fill="#212121">script.play_cartoons</text>
</g>
<!-- script.play_cartoons&#45;&gt;shell_command -->
<g id="edge11" class="edge"><title>script.play_cartoons&#45;&gt;shell_command</title>
<path fill="none" stroke="black" d="M-1.18119,-191.748C-3.40001,-197.528 -5.66959,-204.336 -9.43795,-216.264"/>
<polygon fill="black" stroke="black" points="-11.6949,-223.444 -12.6654,-215.277 -10.5703,-219.866 -9.44575,-216.289 -9.44575,-216.289 -9.44575,-216.289 -10.5703,-219.866 -6.22607,-217.301 -11.6949,-223.444 -11.6949,-223.444"/>
<text text-anchor="middle" x="-78.5818" y="-210.924" font-family="arial" font-size="10.50" fill="#212121">shell_command.play_cartoons</text>
</g>
<!-- time -->
<g id="node14" class="node"><title>time</title>
<polygon fill="white" stroke="black" points="-103.395,153.32 -157.395,153.32 -157.395,189.32 -103.395,189.32 -103.395,153.32"/>
<text text-anchor="middle" x="-130.395" y="173.72" font-family="arial" font-size="10.50" fill="#212121">time</text>
</g>
<!-- scene.lr_off -->
<g id="node15" class="node"><title>scene.lr_off</title>
<polygon fill="white" stroke="turquoise" points="-40.1427,-137.745 -118.143,-137.745 -118.143,-101.745 -40.1427,-101.745 -40.1427,-137.745"/>
<text text-anchor="middle" x="-79.1427" y="-117.345" font-family="arial" font-size="10.50" fill="#212121">scene.lr_off</text>
</g>
<!-- scene.lr_off&#45;&gt;light.hue_color_lamp_1 -->
<g id="edge13" class="edge"><title>scene.lr_off&#45;&gt;light.hue_color_lamp_1</title>
<path fill="none" stroke="black" d="M-86.2104,-101.43C-96.66,-72.8793 -96.0946,-61.4492 -83.829,-11.3656"/>
<polygon fill="black" stroke="black" points="-82.0206,-4.03626 -80.5406,-12.1264 -82.9189,-7.67707 -83.8173,-11.3179 -83.8173,-11.3179 -83.8173,-11.3179 -82.9189,-7.67707 -87.0941,-10.5093 -82.0206,-4.03626 -82.0206,-4.03626"/>
<text text-anchor="middle" x="-98.8581" y="-55.1774" font-family="arial" font-size="10.50" fill="#212121">off</text>
</g>
<!-- scene.lr_off&#45;&gt;light.hue_color_lamp_2 -->
<g id="edge14" class="edge"><title>scene.lr_off&#45;&gt;light.hue_color_lamp_2</title>
<path fill="none" stroke="black" d="M-39.9724,-102.171C-9.55204,-86.3825 3.86295,-69.2923 44.8558,-7.30109"/>
<polygon fill="black" stroke="black" points="49.1787,-0.753472 47.8629,-8.87196 47.1125,-3.88294 45.0464,-7.01241 45.0464,-7.01241 45.0464,-7.01241 47.1125,-3.88294 42.2298,-5.15286 49.1787,-0.753472 49.1787,-0.753472"/>
<text text-anchor="middle" x="4.68927" y="-59.8277" font-family="arial" font-size="10.50" fill="#212121">off</text>
</g>
<!-- scene.lr_off&#45;&gt;light.hue_color_lamp_3 -->
<g id="edge15" class="edge"><title>scene.lr_off&#45;&gt;light.hue_color_lamp_3</title>
<path fill="none" stroke="black" d="M-39.9586,-132.006C-28.566,-134.525 -19.6715,-134.59 -8.9093,-131.911"/>
<polygon fill="black" stroke="black" points="-1.52225,-129.753 -7.77463,-135.096 -5.12175,-130.805 -8.72124,-131.856 -8.72124,-131.856 -8.72124,-131.856 -5.12175,-130.805 -9.66784,-128.617 -1.52225,-129.753 -1.52225,-129.753"/>
<text text-anchor="middle" x="-27.4265" y="-137.412" font-family="arial" font-size="10.50" fill="#212121">off</text>
</g>
<!-- script.refresh_devices -->
<g id="node16" class="node"><title>script.refresh_devices</title>
<polygon fill="white" stroke="brown" points="179.86,139.986 52.8597,139.986 52.8597,175.986 179.86,175.986 179.86,139.986"/>
<text text-anchor="middle" x="116.36" y="160.386" font-family="arial" font-size="10.50" fill="#212121">script.refresh_devices</text>
</g>
<!-- mqtt -->
<g id="node17" class="node"><title>mqtt</title>
<polygon fill="white" stroke="black" points="241.254,140.034 187.254,140.034 187.254,176.034 241.254,176.034 241.254,140.034"/>
<text text-anchor="middle" x="214.254" y="160.434" font-family="arial" font-size="10.50" fill="#212121">mqtt</text>
</g>
<!-- script.refresh_devices&#45;&gt;mqtt -->
<g id="edge16" class="edge"><title>script.refresh_devices&#45;&gt;mqtt</title>
<path fill="none" stroke="black" d="M180.019,151.546C180.165,151.551 180.31,151.557 180.456,151.563"/>
<polygon fill="black" stroke="black" points="186.858,151.889 179.539,148.137 183.113,151.698 179.368,151.508 179.368,151.508 179.368,151.508 183.113,151.698 179.196,154.878 186.858,151.889 186.858,151.889"/>
<text text-anchor="middle" x="209.402" y="147.961" font-family="arial" font-size="10.50" fill="#212121">mqtt.publish</text>
</g>
<!-- script.refresh_devices&#45;&gt;mqtt -->
<g id="edge17" class="edge"><title>script.refresh_devices&#45;&gt;mqtt</title>
<path fill="none" stroke="black" d="M180.012,164.489C180.158,164.483 180.304,164.477 180.45,164.472"/>
<polygon fill="black" stroke="black" points="186.852,164.152 179.193,161.155 183.107,164.339 179.361,164.526 179.361,164.526 179.361,164.526 183.107,164.339 179.53,167.897 186.852,164.152 186.852,164.152"/>
<text text-anchor="middle" x="180.395" y="172.874" font-family="arial" font-size="10.50" fill="#212121">mqtt.publish</text>
</g>
<!-- scene.lr_dimmed -->
<g id="node18" class="node"><title>scene.lr_dimmed</title>
<polygon fill="white" stroke="turquoise" points="-130.556,90.1244 -233.556,90.1244 -233.556,126.124 -130.556,126.124 -130.556,90.1244"/>
<text text-anchor="middle" x="-182.056" y="110.524" font-family="arial" font-size="10.50" fill="#212121">scene.lr_dimmed</text>
</g>
<!-- scene.lr_dimmed&#45;&gt;light.hue_color_lamp_1 -->
<g id="edge18" class="edge"><title>scene.lr_dimmed&#45;&gt;light.hue_color_lamp_1</title>
<path fill="none" stroke="black" d="M-168.297,89.9933C-155.343,73.7969 -144.594,64.5211 -107.914,36.8493"/>
<polygon fill="black" stroke="black" points="-101.8,32.2463 -109.822,34.0611 -104.796,34.5019 -107.792,36.7574 -107.792,36.7574 -107.792,36.7574 -104.796,34.5019 -105.762,39.4537 -101.8,32.2463 -101.8,32.2463"/>
<text text-anchor="middle" x="-143.139" y="55.4413" font-family="arial" font-size="10.50" fill="#212121">on</text>
</g>
<!-- scene.lr_dimmed&#45;&gt;light.hue_color_lamp_2 -->
<g id="edge19" class="edge"><title>scene.lr_dimmed&#45;&gt;light.hue_color_lamp_2</title>
<path fill="none" stroke="black" d="M-130.302,102.438C-92.0877,96.2344 -64.8668,83.658 20.1123,39.0844"/>
<polygon fill="black" stroke="black" points="26.8728,35.5351 18.6634,36.0332 23.5525,37.2782 20.2323,39.0214 20.2323,39.0214 20.2323,39.0214 23.5525,37.2782 21.8012,42.0096 26.8728,35.5351 26.8728,35.5351"/>
<text text-anchor="middle" x="-55.7129" y="70.8479" font-family="arial" font-size="10.50" fill="#212121">on</text>
</g>
<!-- scene.lr_dimmed&#45;&gt;light.hue_color_lamp_3 -->
<g id="edge20" class="edge"><title>scene.lr_dimmed&#45;&gt;light.hue_color_lamp_3</title>
<path fill="none" stroke="black" d="M-174.436,89.9319C-135.339,-2.86981 -124.669,-14.866 3.70542,-89.745"/>
<polygon fill="black" stroke="black" points="10.3084,-93.5918 2.12894,-92.7325 7.06812,-91.704 3.82788,-89.8163 3.82788,-89.8163 3.82788,-89.8163 7.06812,-91.704 5.52683,-86.9001 10.3084,-93.5918 10.3084,-93.5918"/>
<text text-anchor="middle" x="-105.973" y="-27.4963" font-family="arial" font-size="10.50" fill="#212121">on</text>
</g>
<!-- scene.lr_concentrate -->
<g id="node19" class="node"><title>scene.lr_concentrate</title>
<polygon fill="white" stroke="turquoise" points="226.223,86.88 104.223,86.88 104.223,122.88 226.223,122.88 226.223,86.88"/>
<text text-anchor="middle" x="165.223" y="107.28" font-family="arial" font-size="10.50" fill="#212121">scene.lr_concentrate</text>
</g>
<!-- scene.lr_concentrate&#45;&gt;light.hue_color_lamp_1 -->
<g id="edge21" class="edge"><title>scene.lr_concentrate&#45;&gt;light.hue_color_lamp_1</title>
<path fill="none" stroke="black" d="M104.131,96.7308C70.9742,89.6402 41.5055,75.7317 -35.6985,35.7602"/>
<polygon fill="black" stroke="black" points="-42.8207,32.0693 -37.7147,38.5168 -39.4912,33.7948 -36.1617,35.5202 -36.1617,35.5202 -36.1617,35.5202 -39.4912,33.7948 -34.6088,32.5237 -42.8207,32.0693 -42.8207,32.0693"/>
<text text-anchor="middle" x="21.9923" y="64.6374" font-family="arial" font-size="10.50" fill="#212121">on</text>
</g>
<!-- scene.lr_concentrate&#45;&gt;light.hue_color_lamp_2 -->
<g id="edge22" class="edge"><title>scene.lr_concentrate&#45;&gt;light.hue_color_lamp_2</title>
<path fill="none" stroke="black" d="M149.723,86.6832C137.395,73.0423 126.411,64.1944 93.1417,40.2913"/>
<polygon fill="black" stroke="black" points="86.665,35.6483 90.7942,42.7611 89.7128,37.8332 92.7606,40.0181 92.7606,40.0181 92.7606,40.0181 89.7128,37.8332 94.727,37.2751 86.665,35.6483 86.665,35.6483"/>
<text text-anchor="middle" x="113.028" y="56.0593" font-family="arial" font-size="10.50" fill="#212121">on</text>
</g>
<!-- scene.lr_concentrate&#45;&gt;light.hue_color_lamp_3 -->
<g id="edge23" class="edge"><title>scene.lr_concentrate&#45;&gt;light.hue_color_lamp_3</title>
<path fill="none" stroke="black" d="M163.242,86.7058C153.573,-0.262303 147.766,-12.4611 66.8531,-88.1076"/>
<polygon fill="black" stroke="black" points="60.8965,-93.6657 64.0776,-86.0814 63.6383,-91.1074 66.3801,-88.549 66.3801,-88.549 66.3801,-88.549 63.6383,-91.1074 68.6826,-91.0166 60.8965,-93.6657 60.8965,-93.6657"/>
<text text-anchor="middle" x="126.686" y="-22.2105" font-family="arial" font-size="10.50" fill="#212121">on</text>
</g>
<!-- input_select.radio_station -->
<g id="node20" class="node"><title>input_select.radio_station</title>
<polygon fill="white" stroke="black" points="304.574,-46.6805 160.574,-46.6805 160.574,-10.6805 304.574,-10.6805 304.574,-46.6805"/>
<text text-anchor="middle" x="232.574" y="-26.2805" font-family="arial" font-size="10.50" fill="#212121">input_select.radio_station</text>
</g>
<!-- {% if is_state(&#39;input_select.radio_station_location&#39;, &#39;Kitchen&#39;) %}
 &#160;media_player.kitchen
{% elif is_state(&#39;input_select.radio_station_location&#39;, &#39;Backyard&#39;) %}
 &#160;media_player.backyard
{% endif %}
 -->
<g id="node21" class="node"><title>{% if is_state(&#39;input_select.radio_station_location&#39;, &#39;Kitchen&#39;) %}
 &#160;media_player.kitchen
{% elif is_state(&#39;input_select.radio_station_location&#39;, &#39;Backyard&#39;) %}
 &#160;media_player.backyard
{% endif %}
</title>
<polygon fill="white" stroke="black" points="649.087,-62.6804 311.087,-62.6804 311.087,5.31956 649.087,5.31956 649.087,-62.6804"/>
<text text-anchor="middle" x="480.087" y="-50.2804" font-family="arial" font-size="10.50" fill="#212121">{% if is_state(&#39;input_select.radio_station_location&#39;, &#39;Kitchen&#39;) %}</text>
<text text-anchor="middle" x="480.087" y="-38.2804" font-family="arial" font-size="10.50" fill="#212121"> &#160;media_player.kitchen</text>
<text text-anchor="middle" x="480.087" y="-26.2804" font-family="arial" font-size="10.50" fill="#212121">{% elif is_state(&#39;input_select.radio_station_location&#39;, &#39;Backyard&#39;) %}</text>
<text text-anchor="middle" x="480.087" y="-14.2804" font-family="arial" font-size="10.50" fill="#212121"> &#160;media_player.backyard</text>
<text text-anchor="middle" x="480.087" y="-2.28044" font-family="arial" font-size="10.50" fill="#212121">{% endif %}</text>
</g>
<!-- input_select.radio_station&#45;&gt;{% if is_state(&#39;input_select.radio_station_location&#39;, &#39;Kitchen&#39;) %}
 &#160;media_player.kitchen
{% elif is_state(&#39;input_select.radio_station_location&#39;, &#39;Backyard&#39;) %}
 &#160;media_player.backyard
{% endif %}
 -->
<g id="edge24" class="edge"><title>input_select.radio_station&#45;&gt;{% if is_state(&#39;input_select.radio_station_location&#39;, &#39;Kitchen&#39;) %}
 &#160;media_player.kitchen
{% elif is_state(&#39;input_select.radio_station_location&#39;, &#39;Backyard&#39;) %}
 &#160;media_player.backyard
{% endif %}
</title>
<path fill="none" stroke="black" d="M304.838,-28.6805C304.964,-28.6805 305.091,-28.6805 305.217,-28.6805"/>
<polygon fill="black" stroke="black" points="311.015,-28.6805 303.515,-32.0556 307.265,-28.6805 303.515,-28.6806 303.515,-28.6806 303.515,-28.6806 307.265,-28.6805 303.515,-25.3056 311.015,-28.6805 311.015,-28.6805"/>
<text text-anchor="middle" x="305.17" y="-20.2805" font-family="arial" font-size="10.50" fill="#212121">media_player.play_media</text>
</g>
<!-- scene.lr_read -->
<g id="node22" class="node"><title>scene.lr_read</title>
<polygon fill="white" stroke="turquoise" points="36.9216,116.662 -51.0784,116.662 -51.0784,152.662 36.9216,152.662 36.9216,116.662"/>
<text text-anchor="middle" x="-7.07838" y="137.062" font-family="arial" font-size="10.50" fill="#212121">scene.lr_read</text>
</g>
<!-- scene.lr_read&#45;&gt;light.hue_color_lamp_1 -->
<g id="edge25" class="edge"><title>scene.lr_read&#45;&gt;light.hue_color_lamp_1</title>
<path fill="none" stroke="black" d="M-30.9732,116.427C-52.4961,98.5797 -58.1922,85.8868 -70.7382,39.5062"/>
<polygon fill="black" stroke="black" points="-72.7276,32.0919 -74.0436,40.2103 -71.7558,35.7138 -70.7839,39.3357 -70.7839,39.3357 -70.7839,39.3357 -71.7558,35.7138 -67.5242,38.461 -72.7276,32.0919 -72.7276,32.0919"/>
<text text-anchor="middle" x="-65.684" y="85.6968" font-family="arial" font-size="10.50" fill="#212121">on</text>
</g>
<!-- scene.lr_read&#45;&gt;light.hue_color_lamp_2 -->
<g id="edge26" class="edge"><title>scene.lr_read&#45;&gt;light.hue_color_lamp_2</title>
<path fill="none" stroke="black" d="M16.7439,116.374C36.8923,99.4375 42.4739,86.9131 54.4215,42.8578"/>
<polygon fill="black" stroke="black" points="56.3968,35.511 51.1901,41.8774 55.4231,39.1324 54.4494,42.7538 54.4494,42.7538 54.4494,42.7538 55.4231,39.1324 57.7086,43.6301 56.3968,35.511 56.3968,35.511"/>
<text text-anchor="middle" x="37.007" y="74.9724" font-family="arial" font-size="10.50" fill="#212121">on</text>
</g>
<!-- scene.lr_read&#45;&gt;light.hue_color_lamp_3 -->
<g id="edge27" class="edge"><title>scene.lr_read&#45;&gt;light.hue_color_lamp_3</title>
<path fill="none" stroke="black" d="M4.57876,116.452C62.0571,26.3442 65.2248,13.6949 46.4644,-85.7388"/>
<polygon fill="black" stroke="black" points="45.0153,-93.3694 43.0989,-85.3714 45.715,-89.6853 46.4147,-86.0011 46.4147,-86.0011 46.4147,-86.0011 45.715,-89.6853 49.7304,-86.6308 45.0153,-93.3694 45.0153,-93.3694"/>
<text text-anchor="middle" x="47.8681" y="13.994" font-family="arial" font-size="10.50" fill="#212121">on</text>
</g>
</g>
</svg>
