<?xml version="1.0" encoding="UTF-8" standalone="no"?>
<!DOCTYPE svg PUBLIC "-//W3C//DTD SVG 1.1//EN"
 "http://www.w3.org/Graphics/SVG/1.1/DTD/svg11.dtd">
<!-- Generated by graphviz version 2.38.0 (20140413.2041)
 -->
<!-- Title: %3 Pages: 1 -->
<svg width="818pt" height="457pt"
 viewBox="0.00 0.00 818.28 456.73" xmlns="http://www.w3.org/2000/svg" xmlns:xlink="http://www.w3.org/1999/xlink">
<g id="graph0" class="graph" transform="scale(1 1) rotate(0) translate(229.221 282.722)">
<title>%3</title>
<polygon fill="#e5e5e5" stroke="none" points="-229.221,174.01 -229.221,-282.722 589.057,-282.722 589.057,174.01 -229.221,174.01"/>
<!-- scene.lr_nightlight -->
<g id="node1" class="node"><title>scene.lr_nightlight</title>
<polygon fill="white" stroke="turquoise" points="-142.772,-97.9133 -251.772,-97.9133 -251.772,-61.9133 -142.772,-61.9133 -142.772,-97.9133"/>
<text text-anchor="middle" x="-197.272" y="-77.5133" font-family="arial" font-size="10.50" fill="#212121">scene.lr_nightlight</text>
</g>
<!-- light.hue_color_lamp_3 -->
<g id="node2" class="node"><title>light.hue_color_lamp_3</title>
<polygon fill="white" stroke="yellow" points="-3.74413,-2.50982 -136.744,-2.50982 -136.744,33.4902 -3.74413,33.4902 -3.74413,-2.50982"/>
<text text-anchor="middle" x="-70.2441" y="17.8902" font-family="arial" font-size="10.50" fill="#212121">light.hue_color_lamp_3</text>
</g>
<!-- scene.lr_nightlight&#45;&gt;light.hue_color_lamp_3 -->
<g id="edge1" class="edge"><title>scene.lr_nightlight&#45;&gt;light.hue_color_lamp_3</title>
<path fill="none" stroke="black" d="M-180.94,-61.5991C-164.342,-43.835 -151.631,-34.6483 -106.427,-6.71748"/>
<polygon fill="black" stroke="black" points="-99.8289,-2.64907 -104.441,-9.45833 -103.021,-4.61731 -106.213,-6.58556 -106.213,-6.58556 -106.213,-6.58556 -103.021,-4.61731 -107.984,-3.71279 -99.8289,-2.64907 -99.8289,-2.64907"/>
<text text-anchor="middle" x="-148.862" y="-33.1563" font-family="arial" font-size="10.50" fill="#212121">on</text>
</g>
<!-- light.hue_color_lamp_2 -->
<g id="node3" class="node"><title>light.hue_color_lamp_2</title>
<polygon fill="white" stroke="yellow" points="133.523,0.172578 0.523247,0.172578 0.523247,36.1726 133.523,36.1726 133.523,0.172578"/>
<text text-anchor="middle" x="67.0232" y="20.5726" font-family="arial" font-size="10.50" fill="#212121">light.hue_color_lamp_2</text>
</g>
<!-- scene.lr_nightlight&#45;&gt;light.hue_color_lamp_2 -->
<g id="edge2" class="edge"><title>scene.lr_nightlight&#45;&gt;light.hue_color_lamp_2</title>
<path fill="none" stroke="black" d="M-142.572,-68.0783C-104.894,-58.4949 -73.7419,-45.3719 20.3062,-2.94589"/>
<polygon fill="black" stroke="black" points="27.1873,0.159773 21.7397,-6.0018 23.7693,-1.38291 20.3513,-2.92559 20.3513,-2.92559 20.3513,-2.92559 23.7693,-1.38291 18.9629,0.150608 27.1873,0.159773 27.1873,0.159773"/>
<text text-anchor="middle" x="-63.0114" y="-40.6588" font-family="arial" font-size="10.50" fill="#212121">on</text>
</g>
<!-- light.hue_color_lamp_1 -->
<g id="node4" class="node"><title>light.hue_color_lamp_1</title>
<polygon fill="white" stroke="yellow" points="114.367,-127.844 -18.6328,-127.844 -18.6328,-91.8438 114.367,-91.8438 114.367,-127.844"/>
<text text-anchor="middle" x="47.8672" y="-107.444" font-family="arial" font-size="10.50" fill="#212121">light.hue_color_lamp_1</text>
</g>
<!-- scene.lr_nightlight&#45;&gt;light.hue_color_lamp_1 -->
<g id="edge3" class="edge"><title>scene.lr_nightlight&#45;&gt;light.hue_color_lamp_1</title>
<path fill="none" stroke="black" d="M-166.262,-97.9894C-114.67,-127.264 -93.3971,-132.299 -26.2419,-122.398"/>
<polygon fill="black" stroke="black" points="-18.7146,-121.257 -25.6239,-125.718 -22.4222,-121.819 -26.1299,-122.381 -26.1299,-122.381 -26.1299,-122.381 -22.4222,-121.819 -26.6358,-119.044 -18.7146,-121.257 -18.7146,-121.257"/>
<text text-anchor="middle" x="-101.404" y="-129.578" font-family="arial" font-size="10.50" fill="#212121">on</text>
</g>
<!-- scene.lr_off -->
<g id="node5" class="node"><title>scene.lr_off</title>
<polygon fill="white" stroke="turquoise" points="221.466,-104.266 143.466,-104.266 143.466,-68.2659 221.466,-68.2659 221.466,-104.266"/>
<text text-anchor="middle" x="182.466" y="-83.8659" font-family="arial" font-size="10.50" fill="#212121">scene.lr_off</text>
</g>
<!-- scene.lr_off&#45;&gt;light.hue_color_lamp_3 -->
<g id="edge4" class="edge"><title>scene.lr_off&#45;&gt;light.hue_color_lamp_3</title>
<path fill="none" stroke="black" d="M143.338,-76.1859C100.838,-64.538 75.3392,-53.4514 -25.2184,-5.85794"/>
<polygon fill="black" stroke="black" points="-32.27,-2.519 -24.0471,-2.67838 -28.8807,-4.12385 -25.4915,-5.72871 -25.4915,-5.72871 -25.4915,-5.72871 -28.8807,-4.12385 -26.9358,-8.77904 -32.27,-2.519 -32.27,-2.519"/>
<text text-anchor="middle" x="47.3479" y="-46.3088" font-family="arial" font-size="10.50" fill="#212121">off</text>
</g>
<!-- scene.lr_off&#45;&gt;light.hue_color_lamp_2 -->
<g id="edge5" class="edge"><title>scene.lr_off&#45;&gt;light.hue_color_lamp_2</title>
<path fill="none" stroke="black" d="M170.42,-68.1866C155.16,-46.2273 144.3,-36.6868 99.0293,-4.45511"/>
<polygon fill="black" stroke="black" points="92.72,0.0267047 100.789,-1.56522 95.7772,-2.14499 98.8344,-4.31669 98.8344,-4.31669 98.8344,-4.31669 95.7772,-2.14499 96.8799,-7.06815 92.72,0.0267047 92.72,0.0267047"/>
<text text-anchor="middle" x="127.975" y="-34.1873" font-family="arial" font-size="10.50" fill="#212121">off</text>
</g>
<!-- scene.lr_off&#45;&gt;light.hue_color_lamp_1 -->
<g id="edge6" class="edge"><title>scene.lr_off&#45;&gt;light.hue_color_lamp_1</title>
<path fill="none" stroke="black" d="M151.952,-104.396C142.428,-109.034 133.817,-111.51 122.279,-112.496"/>
<polygon fill="black" stroke="black" points="114.683,-112.923 121.981,-109.132 118.427,-112.713 122.171,-112.502 122.171,-112.502 122.171,-112.502 118.427,-112.713 122.36,-115.872 114.683,-112.923 114.683,-112.923"/>
<text text-anchor="middle" x="127.263" y="-114.425" font-family="arial" font-size="10.50" fill="#212121">off</text>
</g>
<!-- input_select.radio_station -->
<g id="node6" class="node"><title>input_select.radio_station</title>
<polygon fill="white" stroke="black" points="312.574,-43.6805 168.574,-43.6805 168.574,-7.68046 312.574,-7.68046 312.574,-43.6805"/>
<text text-anchor="middle" x="240.574" y="-23.2805" font-family="arial" font-size="10.50" fill="#212121">input_select.radio_station</text>
</g>
<!-- {% if is_state(&#39;input_select.radio_station_location&#39;, &#39;Kitchen&#39;) %}
 &#160;media_player.kitchen
{% elif is_state(&#39;input_select.radio_station_location&#39;, &#39;Backyard&#39;) %}
 &#160;media_player.backyard
{% endif %}
 -->
<g id="node7" class="node"><title>{% if is_state(&#39;input_select.radio_station_location&#39;, &#39;Kitchen&#39;) %}
 &#160;media_player.kitchen
{% elif is_state(&#39;input_select.radio_station_location&#39;, &#39;Backyard&#39;) %}
 &#160;media_player.backyard
{% endif %}
</title>
<polygon fill="white" stroke="black" points="657.087,-59.6804 319.087,-59.6804 319.087,8.31956 657.087,8.31956 657.087,-59.6804"/>
<text text-anchor="middle" x="488.087" y="-47.2804" font-family="arial" font-size="10.50" fill="#212121">{% if is_state(&#39;input_select.radio_station_location&#39;, &#39;Kitchen&#39;) %}</text>
<text text-anchor="middle" x="488.087" y="-35.2804" font-family="arial" font-size="10.50" fill="#212121"> &#160;media_player.kitchen</text>
<text text-anchor="middle" x="488.087" y="-23.2804" font-family="arial" font-size="10.50" fill="#212121">{% elif is_state(&#39;input_select.radio_station_location&#39;, &#39;Backyard&#39;) %}</text>
<text text-anchor="middle" x="488.087" y="-11.2804" font-family="arial" font-size="10.50" fill="#212121"> &#160;media_player.backyard</text>
<text text-anchor="middle" x="488.087" y="0.719561" font-family="arial" font-size="10.50" fill="#212121">{% endif %}</text>
</g>
<!-- input_select.radio_station&#45;&gt;{% if is_state(&#39;input_select.radio_station_location&#39;, &#39;Kitchen&#39;) %}
 &#160;media_player.kitchen
{% elif is_state(&#39;input_select.radio_station_location&#39;, &#39;Backyard&#39;) %}
 &#160;media_player.backyard
{% endif %}
 -->
<g id="edge7" class="edge"><title>input_select.radio_station&#45;&gt;{% if is_state(&#39;input_select.radio_station_location&#39;, &#39;Kitchen&#39;) %}
 &#160;media_player.kitchen
{% elif is_state(&#39;input_select.radio_station_location&#39;, &#39;Backyard&#39;) %}
 &#160;media_player.backyard
{% endif %}
</title>
<path fill="none" stroke="black" d="M312.838,-25.6805C312.964,-25.6805 313.091,-25.6805 313.217,-25.6805"/>
<polygon fill="black" stroke="black" points="319.015,-25.6805 311.515,-29.0556 315.265,-25.6805 311.515,-25.6806 311.515,-25.6806 311.515,-25.6806 315.265,-25.6805 311.515,-22.3056 319.015,-25.6805 319.015,-25.6805"/>
<text text-anchor="middle" x="313.17" y="-17.2805" font-family="arial" font-size="10.50" fill="#212121">media_player.play_media</text>
</g>
<!-- event -->
<g id="node8" class="node"><title>event</title>
<polygon fill="white" stroke="black" points="-36.3819,-312.934 -90.3819,-312.934 -90.3819,-276.934 -36.3819,-276.934 -36.3819,-312.934"/>
<text text-anchor="middle" x="-63.3819" y="-292.534" font-family="arial" font-size="10.50" fill="#212121">event</text>
</g>
<!-- shell_command -->
<g id="node9" class="node"><title>shell_command</title>
<polygon fill="white" stroke="black" points="28.6387,-255.61 -67.3613,-255.61 -67.3613,-219.61 28.6387,-219.61 28.6387,-255.61"/>
<text text-anchor="middle" x="-19.3613" y="-235.21" font-family="arial" font-size="10.50" fill="#212121">shell_command</text>
</g>
<!-- event&#45;&gt;shell_command -->
<g id="edge8" class="edge"><title>event&#45;&gt;shell_command</title>
<path fill="none" stroke="black" d="M-49.9921,-276.903C-47.0421,-273.035 -43.5174,-268.488 -38.3315,-261.846"/>
<polygon fill="black" stroke="black" points="-33.5607,-255.742 -35.5204,-263.73 -35.8701,-258.697 -38.1795,-261.651 -38.1795,-261.651 -38.1795,-261.651 -35.8701,-258.697 -40.8386,-259.573 -33.5607,-255.742 -33.5607,-255.742"/>
<text text-anchor="middle" x="34.8672" y="-270.322" font-family="arial" font-size="10.50" fill="#212121">shell_command.generate_graph</text>
</g>
<!-- device_tracker.bigdrakar_nicole -->
<g id="node10" class="node"><title>device_tracker.bigdrakar_nicole</title>
<polygon fill="white" stroke="purple" points="230.968,140.009 57.9676,140.009 57.9676,176.009 230.968,176.009 230.968,140.009"/>
<text text-anchor="middle" x="144.468" y="160.409" font-family="arial" font-size="10.50" fill="#212121">device_tracker.bigdrakar_nicole</text>
</g>
<!-- notify -->
<g id="node11" class="node"><title>notify</title>
<polygon fill="white" stroke="black" points="294.459,140.011 240.459,140.011 240.459,176.011 294.459,176.011 294.459,140.011"/>
<text text-anchor="middle" x="267.459" y="160.411" font-family="arial" font-size="10.50" fill="#212121">notify</text>
</g>
<!-- device_tracker.bigdrakar_nicole&#45;&gt;notify -->
<g id="edge9" class="edge"><title>device_tracker.bigdrakar_nicole&#45;&gt;notify</title>
<path fill="none" stroke="black" d="M231.227,158.01C231.725,158.01 232.219,158.01 232.708,158.01"/>
<polygon fill="black" stroke="black" points="240.388,158.01 232.888,154.635 236.638,158.01 232.888,158.01 232.888,158.01 232.888,158.01 236.638,158.01 232.888,161.385 240.388,158.01 240.388,158.01"/>
<text text-anchor="middle" x="232.662" y="166.41" font-family="arial" font-size="10.50" fill="#212121">notify.justin</text>
</g>
<!-- script -->
<g id="node12" class="node"><title>script</title>
<polygon fill="white" stroke="brown" points="-173.605,141.68 -227.605,141.68 -227.605,177.68 -173.605,177.68 -173.605,141.68"/>
<text text-anchor="middle" x="-200.605" y="162.08" font-family="arial" font-size="10.50" fill="#212121">script</text>
</g>
<!-- time -->
<g id="node13" class="node"><title>time</title>
<polygon fill="white" stroke="black" points="-102.395,152.32 -156.395,152.32 -156.395,188.32 -102.395,188.32 -102.395,152.32"/>
<text text-anchor="middle" x="-129.395" y="172.72" font-family="arial" font-size="10.50" fill="#212121">time</text>
</g>
<!-- script.play_cartoons -->
<g id="node14" class="node"><title>script.play_cartoons</title>
<polygon fill="white" stroke="brown" points="63.7432,-187.456 -54.2568,-187.456 -54.2568,-151.456 63.7432,-151.456 63.7432,-187.456"/>
<text text-anchor="middle" x="4.74319" y="-167.056" font-family="arial" font-size="10.50" fill="#212121">script.play_cartoons</text>
</g>
<!-- script.play_cartoons&#45;&gt;shell_command -->
<g id="edge11" class="edge"><title>script.play_cartoons&#45;&gt;shell_command</title>
<path fill="none" stroke="black" d="M-3.18119,-187.748C-5.40001,-193.528 -7.66959,-200.336 -11.438,-212.264"/>
<polygon fill="black" stroke="black" points="-13.6949,-219.444 -14.6654,-211.277 -12.5703,-215.866 -11.4457,-212.289 -11.4457,-212.289 -11.4457,-212.289 -12.5703,-215.866 -8.22607,-213.301 -13.6949,-219.444 -13.6949,-219.444"/>
<text text-anchor="middle" x="-80.5818" y="-206.924" font-family="arial" font-size="10.50" fill="#212121">shell_command.play_cartoons</text>
</g>
<!-- input_select.scene_livingroom -->
<g id="node15" class="node"><title>input_select.scene_livingroom</title>
<polygon fill="white" stroke="black" points="245.88,-180.684 80.8803,-180.684 80.8803,-144.684 245.88,-144.684 245.88,-180.684"/>
<text text-anchor="middle" x="163.38" y="-160.284" font-family="arial" font-size="10.50" fill="#212121">input_select.scene_livingroom</text>
</g>
<!-- input_select.scene_livingroom&#45;&gt;input_select.scene_livingroom -->
<g id="edge13" class="edge"><title>input_select.scene_livingroom&#45;&gt;input_select.scene_livingroom</title>
<path fill="none" stroke="black" d="M246.177,-168.599C256.837,-167.573 263.88,-165.602 263.88,-162.684 263.88,-160.541 260.082,-158.908 253.842,-157.786"/>
<polygon fill="black" stroke="black" points="246.177,-156.768 254.056,-154.409 249.894,-157.261 253.611,-157.755 253.611,-157.755 253.611,-157.755 249.894,-157.261 253.167,-161.101 246.177,-156.768 246.177,-156.768"/>
<text text-anchor="middle" x="325.88" y="-160.284" font-family="arial" font-size="10.50" fill="#212121">input_select.select_option</text>
</g>
<!-- {% if is_state( &quot;input_select.scene_livingroom&quot;, &quot;Nightlight&quot; ) %}
 &#160;scene.livingroom_nightlight
{%&#45;elif is_state( &quot;input_select.scene_livingroom&quot;, &quot;Dimmed&quot; ) %}
 &#160;scene.livingroom_dimmed
{%&#45;elif is_state( &quot;input_select.scene_livingroom&quot;, &quot;Relax&quot; ) %}
 &#160;scene.livingroom_relax
{%&#45;elif is_state( &quot;input_select.scene_livingroom&quot;, &quot;Read&quot; ) %}
 &#160;scene.livingroom_read
{%&#45;elif is_state( &quot;input_select.scene_livingroom&quot;, &quot;Bright&quot; ) %}
 &#160;scene.livingroom_concentrate
{%&#45;elif is_state( &quot;input_select.scene_livingroom&quot;, &quot;Off&quot; ) %}
 &#160;scene.livingroom_off
{% endif %}
 -->
<g id="node16" class="node"><title>{% if is_state( &quot;input_select.scene_livingroom&quot;, &quot;Nightlight&quot; ) %}
 &#160;scene.livingroom_nightlight
{%&#45;elif is_state( &quot;input_select.scene_livingroom&quot;, &quot;Dimmed&quot; ) %}
 &#160;scene.livingroom_dimmed
{%&#45;elif is_state( &quot;input_select.scene_livingroom&quot;, &quot;Relax&quot; ) %}
 &#160;scene.livingroom_relax
{%&#45;elif is_state( &quot;input_select.scene_livingroom&quot;, &quot;Read&quot; ) %}
 &#160;scene.livingroom_read
{%&#45;elif is_state( &quot;input_select.scene_livingroom&quot;, &quot;Bright&quot; ) %}
 &#160;scene.livingroom_concentrate
{%&#45;elif is_state( &quot;input_select.scene_livingroom&quot;, &quot;Off&quot; ) %}
 &#160;scene.livingroom_off
{% endif %}
</title>
<polygon fill="white" stroke="black" points="585.057,-244.677 262.057,-244.677 262.057,-80.6774 585.057,-80.6774 585.057,-244.677"/>
<text text-anchor="middle" x="423.557" y="-232.277" font-family="arial" font-size="10.50" fill="#212121">{% if is_state( &quot;input_select.scene_livingroom&quot;, &quot;Nightlight&quot; ) %}</text>
<text text-anchor="middle" x="423.557" y="-220.277" font-family="arial" font-size="10.50" fill="#212121"> &#160;scene.livingroom_nightlight</text>
<text text-anchor="middle" x="423.557" y="-208.277" font-family="arial" font-size="10.50" fill="#212121">{%&#45;elif is_state( &quot;input_select.scene_livingroom&quot;, &quot;Dimmed&quot; ) %}</text>
<text text-anchor="middle" x="423.557" y="-196.277" font-family="arial" font-size="10.50" fill="#212121"> &#160;scene.livingroom_dimmed</text>
<text text-anchor="middle" x="423.557" y="-184.277" font-family="arial" font-size="10.50" fill="#212121">{%&#45;elif is_state( &quot;input_select.scene_livingroom&quot;, &quot;Relax&quot; ) %}</text>
<text text-anchor="middle" x="423.557" y="-172.277" font-family="arial" font-size="10.50" fill="#212121"> &#160;scene.livingroom_relax</text>
<text text-anchor="middle" x="423.557" y="-160.277" font-family="arial" font-size="10.50" fill="#212121">{%&#45;elif is_state( &quot;input_select.scene_livingroom&quot;, &quot;Read&quot; ) %}</text>
<text text-anchor="middle" x="423.557" y="-148.277" font-family="arial" font-size="10.50" fill="#212121"> &#160;scene.livingroom_read</text>
<text text-anchor="middle" x="423.557" y="-136.277" font-family="arial" font-size="10.50" fill="#212121">{%&#45;elif is_state( &quot;input_select.scene_livingroom&quot;, &quot;Bright&quot; ) %}</text>
<text text-anchor="middle" x="423.557" y="-124.277" font-family="arial" font-size="10.50" fill="#212121"> &#160;scene.livingroom_concentrate</text>
<text text-anchor="middle" x="423.557" y="-112.277" font-family="arial" font-size="10.50" fill="#212121">{%&#45;elif is_state( &quot;input_select.scene_livingroom&quot;, &quot;Off&quot; ) %}</text>
<text text-anchor="middle" x="423.557" y="-100.277" font-family="arial" font-size="10.50" fill="#212121"> &#160;scene.livingroom_off</text>
<text text-anchor="middle" x="423.557" y="-88.2774" font-family="arial" font-size="10.50" fill="#212121">{% endif %}</text>
</g>
<!-- input_select.scene_livingroom&#45;&gt;{% if is_state( &quot;input_select.scene_livingroom&quot;, &quot;Nightlight&quot; ) %}
 &#160;scene.livingroom_nightlight
{%&#45;elif is_state( &quot;input_select.scene_livingroom&quot;, &quot;Dimmed&quot; ) %}
 &#160;scene.livingroom_dimmed
{%&#45;elif is_state( &quot;input_select.scene_livingroom&quot;, &quot;Relax&quot; ) %}
 &#160;scene.livingroom_relax
{%&#45;elif is_state( &quot;input_select.scene_livingroom&quot;, &quot;Read&quot; ) %}
 &#160;scene.livingroom_read
{%&#45;elif is_state( &quot;input_select.scene_livingroom&quot;, &quot;Bright&quot; ) %}
 &#160;scene.livingroom_concentrate
{%&#45;elif is_state( &quot;input_select.scene_livingroom&quot;, &quot;Off&quot; ) %}
 &#160;scene.livingroom_off
{% endif %}
 -->
<g id="edge12" class="edge"><title>input_select.scene_livingroom&#45;&gt;{% if is_state( &quot;input_select.scene_livingroom&quot;, &quot;Nightlight&quot; ) %}
 &#160;scene.livingroom_nightlight
{%&#45;elif is_state( &quot;input_select.scene_livingroom&quot;, &quot;Dimmed&quot; ) %}
 &#160;scene.livingroom_dimmed
{%&#45;elif is_state( &quot;input_select.scene_livingroom&quot;, &quot;Relax&quot; ) %}
 &#160;scene.livingroom_relax
{%&#45;elif is_state( &quot;input_select.scene_livingroom&quot;, &quot;Read&quot; ) %}
 &#160;scene.livingroom_read
{%&#45;elif is_state( &quot;input_select.scene_livingroom&quot;, &quot;Bright&quot; ) %}
 &#160;scene.livingroom_concentrate
{%&#45;elif is_state( &quot;input_select.scene_livingroom&quot;, &quot;Off&quot; ) %}
 &#160;scene.livingroom_off
{% endif %}
</title>
<path fill="none" stroke="black" d="M245.968,-162.684C248.585,-162.684 251.276,-162.684 254.062,-162.684"/>
<polygon fill="black" stroke="black" points="261.674,-162.683 254.174,-166.059 257.924,-162.683 254.174,-162.684 254.174,-162.684 254.174,-162.684 257.924,-162.683 254.174,-159.309 261.674,-162.683 261.674,-162.683"/>
<text text-anchor="middle" x="219.041" y="-166.284" font-family="arial" font-size="10.50" fill="#212121">scene.turn_on</text>
</g>
<!-- scene.lr_dimmed -->
<g id="node17" class="node"><title>scene.lr_dimmed</title>
<polygon fill="white" stroke="turquoise" points="-21.2153,-134.354 -124.215,-134.354 -124.215,-98.3542 -21.2153,-98.3542 -21.2153,-134.354"/>
<text text-anchor="middle" x="-72.7153" y="-113.954" font-family="arial" font-size="10.50" fill="#212121">scene.lr_dimmed</text>
</g>
<!-- scene.lr_dimmed&#45;&gt;light.hue_color_lamp_3 -->
<g id="edge14" class="edge"><title>scene.lr_dimmed&#45;&gt;light.hue_color_lamp_3</title>
<path fill="none" stroke="black" d="M-79.4353,-98.142C-88.9456,-70.8184 -88.3142,-59.3814 -76.5376,-10.2918"/>
<polygon fill="black" stroke="black" points="-74.7191,-2.76953 -73.201,-10.8526 -75.6003,-6.41453 -76.4815,-10.0595 -76.4815,-10.0595 -76.4815,-10.0595 -75.6003,-6.41453 -79.762,-9.26644 -74.7191,-2.76953 -74.7191,-2.76953"/>
<text text-anchor="middle" x="-91.1709" y="-52.647" font-family="arial" font-size="10.50" fill="#212121">on</text>
</g>
<!-- scene.lr_dimmed&#45;&gt;light.hue_color_lamp_2 -->
<g id="edge15" class="edge"><title>scene.lr_dimmed&#45;&gt;light.hue_color_lamp_2</title>
<path fill="none" stroke="black" d="M-29.4688,-98.2768C0.980508,-83.1213 14.1403,-65.8581 51.5549,-6.49237"/>
<polygon fill="black" stroke="black" points="55.7434,0.166634 54.607,-7.97891 53.7468,-3.00766 51.7502,-6.18194 51.7502,-6.18194 51.7502,-6.18194 53.7468,-3.00766 48.8933,-4.38498 55.7434,0.166634 55.7434,0.166634"/>
<text text-anchor="middle" x="13.6828" y="-57.5997" font-family="arial" font-size="10.50" fill="#212121">on</text>
</g>
<!-- scene.lr_dimmed&#45;&gt;light.hue_color_lamp_1 -->
<g id="edge16" class="edge"><title>scene.lr_dimmed&#45;&gt;light.hue_color_lamp_1</title>
<path fill="none" stroke="black" d="M-20.8879,-131.091C-14.993,-131.563 -9.44469,-131.176 -3.40497,-129.885"/>
<polygon fill="black" stroke="black" points="3.96108,-127.952 -2.43668,-133.121 0.333872,-128.904 -3.29333,-129.856 -3.29333,-129.856 -3.29333,-129.856 0.333872,-128.904 -4.14998,-126.592 3.96108,-127.952 3.96108,-127.952"/>
<text text-anchor="middle" x="-14.903" y="-134.361" font-family="arial" font-size="10.50" fill="#212121">on</text>
</g>
<!-- script.refresh_devices -->
<g id="node18" class="node"><title>script.refresh_devices</title>
<polygon fill="white" stroke="brown" points="305.86,29.9863 178.86,29.9863 178.86,65.9863 305.86,65.9863 305.86,29.9863"/>
<text text-anchor="middle" x="242.36" y="50.3863" font-family="arial" font-size="10.50" fill="#212121">script.refresh_devices</text>
</g>
<!-- mqtt -->
<g id="node19" class="node"><title>mqtt</title>
<polygon fill="white" stroke="black" points="367.254,30.0338 313.254,30.0338 313.254,66.0338 367.254,66.0338 367.254,30.0338"/>
<text text-anchor="middle" x="340.254" y="50.4338" font-family="arial" font-size="10.50" fill="#212121">mqtt</text>
</g>
<!-- script.refresh_devices&#45;&gt;mqtt -->
<g id="edge17" class="edge"><title>script.refresh_devices&#45;&gt;mqtt</title>
<path fill="none" stroke="black" d="M306.019,41.5457C306.165,41.5514 306.31,41.5573 306.456,41.5632"/>
<polygon fill="black" stroke="black" points="312.858,41.8891 305.539,38.1371 309.113,41.6984 305.368,41.5077 305.368,41.5077 305.368,41.5077 309.113,41.6984 305.196,44.8783 312.858,41.8891 312.858,41.8891"/>
<text text-anchor="middle" x="335.402" y="37.961" font-family="arial" font-size="10.50" fill="#212121">mqtt.publish</text>
</g>
<!-- script.refresh_devices&#45;&gt;mqtt -->
<g id="edge18" class="edge"><title>script.refresh_devices&#45;&gt;mqtt</title>
<path fill="none" stroke="black" d="M306.012,54.4887C306.158,54.4831 306.304,54.4773 306.45,54.4716"/>
<polygon fill="black" stroke="black" points="312.852,54.1519 305.193,51.1552 309.107,54.3389 305.361,54.526 305.361,54.526 305.361,54.526 309.107,54.3389 305.53,57.8968 312.852,54.1519 312.852,54.1519"/>
<text text-anchor="middle" x="306.395" y="62.8737" font-family="arial" font-size="10.50" fill="#212121">mqtt.publish</text>
</g>
<!-- scene.lr_relax -->
<g id="node20" class="node"><title>scene.lr_relax</title>
<polygon fill="white" stroke="turquoise" points="-136.221,89.1213 -225.221,89.1213 -225.221,125.121 -136.221,125.121 -136.221,89.1213"/>
<text text-anchor="middle" x="-180.721" y="109.521" font-family="arial" font-size="10.50" fill="#212121">scene.lr_relax</text>
</g>
<!-- scene.lr_relax&#45;&gt;light.hue_color_lamp_3 -->
<g id="edge19" class="edge"><title>scene.lr_relax&#45;&gt;light.hue_color_lamp_3</title>
<path fill="none" stroke="black" d="M-164.899,89.0334C-151.161,74.0962 -139.574,64.8768 -102.091,38.112"/>
<polygon fill="black" stroke="black" points="-95.8489,33.6622 -103.915,35.2674 -98.9025,35.8389 -101.956,38.0156 -101.956,38.0156 -101.956,38.0156 -98.9025,35.8389 -99.9971,40.7639 -95.8489,33.6622 -95.8489,33.6622"/>
<text text-anchor="middle" x="-138.115" y="56.0133" font-family="arial" font-size="10.50" fill="#212121">on</text>
</g>
<!-- scene.lr_relax&#45;&gt;light.hue_color_lamp_2 -->
<g id="edge20" class="edge"><title>scene.lr_relax&#45;&gt;light.hue_color_lamp_2</title>
<path fill="none" stroke="black" d="M-135.872,103.903C-91.4375,99.1925 -66.3299,88.1789 25.8638,39.8369"/>
<polygon fill="black" stroke="black" points="32.6189,36.2914 24.4095,36.7886 29.2985,38.0342 25.978,39.777 25.978,39.777 25.978,39.777 29.2985,38.0342 27.5466,42.7654 32.6189,36.2914 32.6189,36.2914"/>
<text text-anchor="middle" x="-54.7782" y="85.8072" font-family="arial" font-size="10.50" fill="#212121">on</text>
</g>
<!-- scene.lr_relax&#45;&gt;light.hue_color_lamp_1 -->
<g id="edge21" class="edge"><title>scene.lr_relax&#45;&gt;light.hue_color_lamp_1</title>
<path fill="none" stroke="black" d="M-172.746,89.0146C-131.926,-3.15293 -120.95,-15.1582 8.67007,-87.9394"/>
<polygon fill="black" stroke="black" points="15.3369,-91.6781 7.14445,-90.9533 12.0661,-89.8438 8.79528,-88.0096 8.79528,-88.0096 8.79528,-88.0096 12.0661,-89.8438 10.4461,-85.0658 15.3369,-91.6781 15.3369,-91.6781"/>
<text text-anchor="middle" x="-102.148" y="-27.3175" font-family="arial" font-size="10.50" fill="#212121">on</text>
</g>
<!-- scene.lr_concentrate -->
<g id="node21" class="node"><title>scene.lr_concentrate</title>
<polygon fill="white" stroke="turquoise" points="235.412,86.6233 113.412,86.6233 113.412,122.623 235.412,122.623 235.412,86.6233"/>
<text text-anchor="middle" x="174.412" y="107.023" font-family="arial" font-size="10.50" fill="#212121">scene.lr_concentrate</text>
</g>
<!-- scene.lr_concentrate&#45;&gt;light.hue_color_lamp_3 -->
<g id="edge22" class="edge"><title>scene.lr_concentrate&#45;&gt;light.hue_color_lamp_3</title>
<path fill="none" stroke="black" d="M113.189,95.0356C81.0817,87.6015 51.0124,74.198 -25.806,37.0512"/>
<polygon fill="black" stroke="black" points="-32.8905,33.6225 -27.6099,39.9277 -29.515,35.2561 -26.1396,36.8898 -26.1396,36.8898 -26.1396,36.8898 -29.515,35.2561 -24.6693,33.8519 -32.8905,33.6225 -32.8905,33.6225"/>
<text text-anchor="middle" x="32.0266" y="63.9295" font-family="arial" font-size="10.50" fill="#212121">on</text>
</g>
<!-- scene.lr_concentrate&#45;&gt;light.hue_color_lamp_2 -->
<g id="edge23" class="edge"><title>scene.lr_concentrate&#45;&gt;light.hue_color_lamp_2</title>
<path fill="none" stroke="black" d="M158.329,86.4383C145.528,72.8031 134.18,64.0589 99.7657,40.4682"/>
<polygon fill="black" stroke="black" points="93.5567,36.2211 97.8416,43.2412 96.6519,38.3383 99.7471,40.4555 99.7471,40.4555 99.7471,40.4555 96.6519,38.3383 101.653,37.6699 93.5567,36.2211 93.5567,36.2211"/>
<text text-anchor="middle" x="120.558" y="55.9922" font-family="arial" font-size="10.50" fill="#212121">on</text>
</g>
<!-- scene.lr_concentrate&#45;&gt;light.hue_color_lamp_1 -->
<g id="edge24" class="edge"><title>scene.lr_concentrate&#45;&gt;light.hue_color_lamp_1</title>
<path fill="none" stroke="black" d="M172.162,86.3933C161.412,0.898682 155.369,-11.2893 73.7706,-86.195"/>
<polygon fill="black" stroke="black" points="67.7639,-91.6985 71.0139,-84.1434 70.5289,-89.1652 73.2938,-86.6319 73.2938,-86.6319 73.2938,-86.6319 70.5289,-89.1652 75.5738,-89.1204 67.7639,-91.6985 67.7639,-91.6985"/>
<text text-anchor="middle" x="134.297" y="-20.9803" font-family="arial" font-size="10.50" fill="#212121">on</text>
</g>
<!-- scene.lr_read -->
<g id="node22" class="node"><title>scene.lr_read</title>
<polygon fill="white" stroke="turquoise" points="42.3438,114.439 -45.6562,114.439 -45.6562,150.439 42.3438,150.439 42.3438,114.439"/>
<text text-anchor="middle" x="-1.65624" y="134.839" font-family="arial" font-size="10.50" fill="#212121">scene.lr_read</text>
</g>
<!-- scene.lr_read&#45;&gt;light.hue_color_lamp_3 -->
<g id="edge25" class="edge"><title>scene.lr_read&#45;&gt;light.hue_color_lamp_3</title>
<path fill="none" stroke="black" d="M-25.0182,114.334C-44.2959,97.8961 -50.0261,85.2231 -62.9345,40.9753"/>
<polygon fill="black" stroke="black" points="-65.071,33.5973 -66.2266,41.7401 -64.0279,37.1993 -62.9848,40.8013 -62.9848,40.8013 -62.9848,40.8013 -64.0279,37.1993 -59.743,39.8625 -65.071,33.5973 -65.071,33.5973"/>
<text text-anchor="middle" x="-58.0697" y="72.6185" font-family="arial" font-size="10.50" fill="#212121">on</text>
</g>
<!-- scene.lr_read&#45;&gt;light.hue_color_lamp_2 -->
<g id="edge26" class="edge"><title>scene.lr_read&#45;&gt;light.hue_color_lamp_2</title>
<path fill="none" stroke="black" d="M23.0479,114.217C43.7614,97.5052 49.345,85.3922 60.4621,43.4987"/>
<polygon fill="black" stroke="black" points="62.3738,36.2192 57.2044,42.6159 61.4212,39.8462 60.4687,43.4732 60.4687,43.4732 60.4687,43.4732 61.4212,39.8462 63.733,44.3305 62.3738,36.2192 62.3738,36.2192"/>
<text text-anchor="middle" x="43.3909" y="86.5348" font-family="arial" font-size="10.50" fill="#212121">on</text>
</g>
<!-- scene.lr_read&#45;&gt;light.hue_color_lamp_1 -->
<g id="edge27" class="edge"><title>scene.lr_read&#45;&gt;light.hue_color_lamp_1</title>
<path fill="none" stroke="black" d="M9.82151,114.405C67.3742,23.6853 70.774,11.081 52.8379,-83.958"/>
<polygon fill="black" stroke="black" points="51.3932,-91.5566 49.4785,-83.5582 52.0936,-87.8726 52.7941,-84.1886 52.7941,-84.1886 52.7941,-84.1886 52.0936,-87.8726 56.1097,-84.819 51.3932,-91.5566 51.3932,-91.5566"/>
<text text-anchor="middle" x="53.1719" y="13.0888" font-family="arial" font-size="10.50" fill="#212121">on</text>
</g>
</g>
</svg>
