<?xml version="1.0" encoding="UTF-8" standalone="no"?>
<!DOCTYPE svg PUBLIC "-//W3C//DTD SVG 1.1//EN"
 "http://www.w3.org/Graphics/SVG/1.1/DTD/svg11.dtd">
<!-- Generated by graphviz version 2.38.0 (20140413.2041)
 -->
<!-- Title: %3 Pages: 1 -->
<svg width="742pt" height="557pt"
 viewBox="0.00 0.00 742.37 557.32" xmlns="http://www.w3.org/2000/svg" xmlns:xlink="http://www.w3.org/1999/xlink">
<g id="graph0" class="graph" transform="scale(1 1) rotate(0) translate(154.312 380.307)">
<title>%3</title>
<polygon fill="#e5e5e5" stroke="none" points="-154.312,177.01 -154.312,-380.307 588.057,-380.307 588.057,177.01 -154.312,177.01"/>
<!-- scene.lr_relax -->
<g id="node1" class="node"><title>scene.lr_relax</title>
<polygon fill="white" stroke="turquoise" points="-143.88,-95.3566 -232.88,-95.3566 -232.88,-59.3566 -143.88,-59.3566 -143.88,-95.3566"/>
<text text-anchor="middle" x="-188.38" y="-74.9566" font-family="arial" font-size="10.50" fill="#212121">scene.lr_relax</text>
</g>
<!-- light.hue_color_lamp_2 -->
<g id="node2" class="node"><title>light.hue_color_lamp_2</title>
<polygon fill="white" stroke="yellow" points="-2.84718,-3.44506 -135.847,-3.44506 -135.847,32.5549 -2.84718,32.5549 -2.84718,-3.44506"/>
<text text-anchor="middle" x="-69.3472" y="16.9549" font-family="arial" font-size="10.50" fill="#212121">light.hue_color_lamp_2</text>
</g>
<!-- scene.lr_relax&#45;&gt;light.hue_color_lamp_2 -->
<g id="edge1" class="edge"><title>scene.lr_relax&#45;&gt;light.hue_color_lamp_2</title>
<path fill="none" stroke="black" d="M-172.616,-59.1728C-157.571,-42.6886 -145.538,-33.7419 -104.701,-7.76632"/>
<polygon fill="black" stroke="black" points="-98.1804,-3.62802 -102.705,-10.4963 -101.347,-5.63737 -104.513,-7.64671 -104.513,-7.64671 -104.513,-7.64671 -101.347,-5.63737 -106.321,-4.79708 -98.1804,-3.62802 -98.1804,-3.62802"/>
<text text-anchor="middle" x="-143.812" y="-32.7109" font-family="arial" font-size="10.50" fill="#212121">on</text>
</g>
<!-- light.hue_color_lamp_3 -->
<g id="node3" class="node"><title>light.hue_color_lamp_3</title>
<polygon fill="white" stroke="yellow" points="130.549,-0.0240173 -2.45106,-0.0240173 -2.45106,35.976 130.549,35.976 130.549,-0.0240173"/>
<text text-anchor="middle" x="64.0489" y="20.376" font-family="arial" font-size="10.50" fill="#212121">light.hue_color_lamp_3</text>
</g>
<!-- scene.lr_relax&#45;&gt;light.hue_color_lamp_3 -->
<g id="edge2" class="edge"><title>scene.lr_relax&#45;&gt;light.hue_color_lamp_3</title>
<path fill="none" stroke="black" d="M-143.567,-67.968C-103.791,-58.5822 -76.5785,-47.1105 18.048,-3.34832"/>
<polygon fill="black" stroke="black" points="24.9787,-0.14122 19.5894,-6.35391 21.5754,-1.71608 18.1721,-3.29094 18.1721,-3.29094 18.1721,-3.29094 21.5754,-1.71608 16.7547,-0.227972 24.9787,-0.14122 24.9787,-0.14122"/>
<text text-anchor="middle" x="-64.3674" y="-41.4142" font-family="arial" font-size="10.50" fill="#212121">on</text>
</g>
<!-- light.hue_color_lamp_1 -->
<g id="node4" class="node"><title>light.hue_color_lamp_1</title>
<polygon fill="white" stroke="yellow" points="110.887,-127.239 -22.1129,-127.239 -22.1129,-91.2386 110.887,-91.2386 110.887,-127.239"/>
<text text-anchor="middle" x="44.3871" y="-106.839" font-family="arial" font-size="10.50" fill="#212121">light.hue_color_lamp_1</text>
</g>
<!-- scene.lr_relax&#45;&gt;light.hue_color_lamp_1 -->
<g id="edge3" class="edge"><title>scene.lr_relax&#45;&gt;light.hue_color_lamp_1</title>
<path fill="none" stroke="black" d="M-158.327,-95.4787C-110.474,-123.561 -90.0008,-129.047 -29.9877,-121.102"/>
<polygon fill="black" stroke="black" points="-22.4685,-120.067 -29.4383,-124.433 -26.1835,-120.578 -29.8985,-121.089 -29.8985,-121.089 -29.8985,-121.089 -26.1835,-120.578 -30.3587,-117.746 -22.4685,-120.067 -22.4685,-120.067"/>
<text text-anchor="middle" x="-99.0482" y="-126.516" font-family="arial" font-size="10.50" fill="#212121">on</text>
</g>
<!-- shell_command -->
<g id="node6" class="node"><title>shell_command</title>
<polygon fill="white" stroke="black" points="411.639,-365.61 315.639,-365.61 315.639,-329.61 411.639,-329.61 411.639,-365.61"/>
<text text-anchor="middle" x="363.639" y="-345.21" font-family="arial" font-size="10.50" fill="#212121">shell_command</text>
</g>
<!-- script.play_cartoons&#45;&gt;shell_command -->
<g id="edge4" class="edge"><title>script.play_cartoons&#45;&gt;shell_command</title>
<path fill="none" stroke="black" d="M343.134,-386.703C345.826,-383.134 348.438,-378.675 351.62,-372.483"/>
<polygon fill="black" stroke="black" points="355.016,-365.681 354.686,-373.899 353.341,-369.036 351.666,-372.391 351.666,-372.391 351.666,-372.391 353.341,-369.036 348.646,-370.884 355.016,-365.681 355.016,-365.681"/>
<text text-anchor="middle" x="277.607" y="-367.907" font-family="arial" font-size="10.50" fill="#212121">shell_command.play_cartoons</text>
</g>
<!-- scene.lr_read -->
<g id="node7" class="node"><title>scene.lr_read</title>
<polygon fill="white" stroke="turquoise" points="215.134,-101.936 127.134,-101.936 127.134,-65.9363 215.134,-65.9363 215.134,-101.936"/>
<text text-anchor="middle" x="171.134" y="-81.5363" font-family="arial" font-size="10.50" fill="#212121">scene.lr_read</text>
</g>
<!-- scene.lr_read&#45;&gt;light.hue_color_lamp_2 -->
<g id="edge5" class="edge"><title>scene.lr_read&#45;&gt;light.hue_color_lamp_2</title>
<path fill="none" stroke="black" d="M126.862,-72.9364C89.8317,-62.6942 63.3516,-50.6741 -25.7289,-6.91618"/>
<polygon fill="black" stroke="black" points="-32.5354,-3.57095 -24.3157,-3.85018 -29.1699,-5.22504 -25.8044,-6.87913 -25.8044,-6.87913 -25.8044,-6.87913 -29.1699,-5.22504 -27.2931,-9.90808 -32.5354,-3.57095 -32.5354,-3.57095"/>
<text text-anchor="middle" x="39.1267" y="-45.0066" font-family="arial" font-size="10.50" fill="#212121">on</text>
</g>
<!-- scene.lr_read&#45;&gt;light.hue_color_lamp_3 -->
<g id="edge6" class="edge"><title>scene.lr_read&#45;&gt;light.hue_color_lamp_3</title>
<path fill="none" stroke="black" d="M159.715,-65.6198C146.113,-44.8396 135.818,-35.3774 94.5119,-4.57202"/>
<polygon fill="black" stroke="black" points="88.4741,-0.0802057 96.506,-1.84903 91.4828,-2.31855 94.4915,-4.55689 94.4915,-4.55689 94.4915,-4.55689 91.4828,-2.31855 92.477,-7.26475 88.4741,-0.0802057 88.4741,-0.0802057"/>
<text text-anchor="middle" x="120.442" y="-33.2303" font-family="arial" font-size="10.50" fill="#212121">on</text>
</g>
<!-- scene.lr_read&#45;&gt;light.hue_color_lamp_1 -->
<g id="edge7" class="edge"><title>scene.lr_read&#45;&gt;light.hue_color_lamp_1</title>
<path fill="none" stroke="black" d="M142.882,-101.971C134.891,-106.241 127.664,-108.821 118.726,-110.206"/>
<polygon fill="black" stroke="black" points="111.144,-111.07 118.213,-106.867 114.87,-110.645 118.595,-110.221 118.595,-110.221 118.595,-110.221 114.87,-110.645 118.978,-113.574 111.144,-111.07 111.144,-111.07"/>
<text text-anchor="middle" x="120.937" y="-111.934" font-family="arial" font-size="10.50" fill="#212121">on</text>
</g>
<!-- scene.lr_off -->
<g id="node8" class="node"><title>scene.lr_off</title>
<polygon fill="white" stroke="turquoise" points="-33.713,-133.946 -111.713,-133.946 -111.713,-97.9462 -33.713,-97.9462 -33.713,-133.946"/>
<text text-anchor="middle" x="-72.713" y="-113.546" font-family="arial" font-size="10.50" fill="#212121">scene.lr_off</text>
</g>
<!-- scene.lr_off&#45;&gt;light.hue_color_lamp_2 -->
<g id="edge8" class="edge"><title>scene.lr_off&#45;&gt;light.hue_color_lamp_2</title>
<path fill="none" stroke="black" d="M-79.2546,-97.5814C-88.156,-70.9444 -87.3966,-59.485 -75.6283,-10.932"/>
<polygon fill="black" stroke="black" points="-73.8119,-3.4931 -72.3123,-11.5796 -74.7015,-7.13607 -75.591,-10.7791 -75.591,-10.7791 -75.591,-10.7791 -74.7015,-7.13607 -78.8697,-9.97847 -73.8119,-3.4931 -73.8119,-3.4931"/>
<text text-anchor="middle" x="-90.3125" y="-52.8875" font-family="arial" font-size="10.50" fill="#212121">off</text>
</g>
<!-- scene.lr_off&#45;&gt;light.hue_color_lamp_3 -->
<g id="edge9" class="edge"><title>scene.lr_off&#45;&gt;light.hue_color_lamp_3</title>
<path fill="none" stroke="black" d="M-33.503,-99.1311C-2.1325,-83.6137 10.5011,-67.234 48.5758,-6.73139"/>
<polygon fill="black" stroke="black" points="52.5904,-0.339914 51.4591,-8.48617 50.5958,-3.51545 48.6011,-6.69098 48.6011,-6.69098 48.6011,-6.69098 50.5958,-3.51545 45.7431,-4.89579 52.5904,-0.339914 52.5904,-0.339914"/>
<text text-anchor="middle" x="10.3383" y="-58.4259" font-family="arial" font-size="10.50" fill="#212121">off</text>
</g>
<!-- scene.lr_off&#45;&gt;light.hue_color_lamp_1 -->
<g id="edge10" class="edge"><title>scene.lr_off&#45;&gt;light.hue_color_lamp_1</title>
<path fill="none" stroke="black" d="M-33.6864,-128.344C-23.841,-130.557 -15.9357,-130.882 -7.03767,-129.149"/>
<polygon fill="black" stroke="black" points="0.3672,-127.315 -6.10149,-132.394 -3.27283,-128.216 -6.91286,-129.118 -6.91286,-129.118 -6.91286,-129.118 -3.27283,-128.216 -7.72424,-125.842 0.3672,-127.315 0.3672,-127.315"/>
<text text-anchor="middle" x="-22.8823" y="-133.828" font-family="arial" font-size="10.50" fill="#212121">off</text>
</g>
<!-- script.refresh_devices -->
<g id="node9" class="node"><title>script.refresh_devices</title>
<polygon fill="white" stroke="brown" points="-67.1403,-208.014 -194.14,-208.014 -194.14,-172.014 -67.1403,-172.014 -67.1403,-208.014"/>
<text text-anchor="middle" x="-130.64" y="-187.614" font-family="arial" font-size="10.50" fill="#212121">script.refresh_devices</text>
</g>
<!-- mqtt -->
<g id="node10" class="node"><title>mqtt</title>
<polygon fill="white" stroke="black" points="-5.74591,-207.966 -59.7459,-207.966 -59.7459,-171.966 -5.74591,-171.966 -5.74591,-207.966"/>
<text text-anchor="middle" x="-32.7459" y="-187.566" font-family="arial" font-size="10.50" fill="#212121">mqtt</text>
</g>
<!-- script.refresh_devices&#45;&gt;mqtt -->
<g id="edge11" class="edge"><title>script.refresh_devices&#45;&gt;mqtt</title>
<path fill="none" stroke="black" d="M-66.9815,-196.454C-66.8354,-196.449 -66.6895,-196.443 -66.5439,-196.437"/>
<polygon fill="black" stroke="black" points="-60.1422,-196.111 -67.4608,-199.863 -63.8873,-196.302 -67.6325,-196.492 -67.6325,-196.492 -67.6325,-196.492 -63.8873,-196.302 -67.8041,-193.122 -60.1422,-196.111 -60.1422,-196.111"/>
<text text-anchor="middle" x="-37.5985" y="-200.039" font-family="arial" font-size="10.50" fill="#212121">mqtt.publish</text>
</g>
<!-- script.refresh_devices&#45;&gt;mqtt -->
<g id="edge12" class="edge"><title>script.refresh_devices&#45;&gt;mqtt</title>
<path fill="none" stroke="black" d="M-66.9878,-183.511C-66.8417,-183.517 -66.6958,-183.523 -66.5501,-183.528"/>
<polygon fill="black" stroke="black" points="-60.1481,-183.848 -67.8071,-186.845 -63.8934,-183.661 -67.6388,-183.474 -67.6388,-183.474 -67.6388,-183.474 -63.8934,-183.661 -67.4704,-180.103 -60.1481,-183.848 -60.1481,-183.848"/>
<text text-anchor="middle" x="-66.6048" y="-175.126" font-family="arial" font-size="10.50" fill="#212121">mqtt.publish</text>
</g>
<!-- script.radio_station_108 -->
<g id="node11" class="node"><title>script.radio_station_108</title>
<polygon fill="white" stroke="brown" points="301.798,1.51108 164.798,1.51108 164.798,37.5111 301.798,37.5111 301.798,1.51108"/>
<text text-anchor="middle" x="233.298" y="21.9111" font-family="arial" font-size="10.50" fill="#212121">script.radio_station_108</text>
</g>
<!-- media_player.kitchen -->
<g id="node12" class="node"><title>media_player.kitchen</title>
<polygon fill="white" stroke="orange" points="403.319,50.3035 281.319,50.3035 281.319,86.3035 403.319,86.3035 403.319,50.3035"/>
<text text-anchor="middle" x="342.319" y="70.7035" font-family="arial" font-size="10.50" fill="#212121">media_player.kitchen</text>
</g>
<!-- script.radio_station_108&#45;&gt;media_player.kitchen -->
<g id="edge13" class="edge"><title>script.radio_station_108&#45;&gt;media_player.kitchen</title>
<path fill="none" stroke="black" d="M252.34,37.6689C259.11,43.3807 265.406,47.3342 274.09,50.8108"/>
<polygon fill="black" stroke="black" points="281.243,53.3975 275.338,47.6732 277.717,52.1223 274.19,50.8471 274.19,50.8471 274.19,50.8471 277.717,52.1223 273.043,54.0209 281.243,53.3975 281.243,53.3975"/>
<text text-anchor="middle" x="205.365" y="55.4044" font-family="arial" font-size="10.50" fill="#212121">media_player.play_media</text>
</g>
<!-- scene.lr_dimmed -->
<g id="node13" class="node"><title>scene.lr_dimmed</title>
<polygon fill="white" stroke="turquoise" points="-119.923,91.5174 -222.923,91.5174 -222.923,127.517 -119.923,127.517 -119.923,91.5174"/>
<text text-anchor="middle" x="-171.423" y="111.917" font-family="arial" font-size="10.50" fill="#212121">scene.lr_dimmed</text>
</g>
<!-- scene.lr_dimmed&#45;&gt;light.hue_color_lamp_2 -->
<g id="edge14" class="edge"><title>scene.lr_dimmed&#45;&gt;light.hue_color_lamp_2</title>
<path fill="none" stroke="black" d="M-158.005,91.4926C-145.312,75.2887 -134.779,65.8951 -98.5586,37.4056"/>
<polygon fill="black" stroke="black" points="-92.5207,32.6653 -100.504,34.6421 -95.4703,34.981 -98.4199,37.2967 -98.4199,37.2967 -98.4199,37.2967 -95.4703,34.981 -96.3357,39.9514 -92.5207,32.6653 -92.5207,32.6653"/>
<text text-anchor="middle" x="-133.4" y="56.5972" font-family="arial" font-size="10.50" fill="#212121">on</text>
</g>
<!-- scene.lr_dimmed&#45;&gt;light.hue_color_lamp_3 -->
<g id="edge15" class="edge"><title>scene.lr_dimmed&#45;&gt;light.hue_color_lamp_3</title>
<path fill="none" stroke="black" d="M-119.905,104.348C-82.0674,98.421 -55.9647,85.6156 24.9967,40.0426"/>
<polygon fill="black" stroke="black" points="31.9563,36.1208 23.7654,36.8625 28.6893,37.9618 25.4223,39.8028 25.4223,39.8028 25.4223,39.8028 28.6893,37.9618 27.0792,42.7431 31.9563,36.1208 31.9563,36.1208"/>
<text text-anchor="middle" x="-47.6523" y="84.5685" font-family="arial" font-size="10.50" fill="#212121">on</text>
</g>
<!-- scene.lr_dimmed&#45;&gt;light.hue_color_lamp_1 -->
<g id="edge16" class="edge"><title>scene.lr_dimmed&#45;&gt;light.hue_color_lamp_1</title>
<path fill="none" stroke="black" d="M-164.198,91.3818C-127.201,-0.940319 -116.885,-13.0227 6.95954,-86.9905"/>
<polygon fill="black" stroke="black" points="13.7171,-91.0212 5.54699,-90.0777 10.4965,-89.1002 7.2759,-87.1792 7.2759,-87.1792 7.2759,-87.1792 10.4965,-89.1002 9.00481,-84.2806 13.7171,-91.0212 13.7171,-91.0212"/>
<text text-anchor="middle" x="-99.3854" y="-25.155" font-family="arial" font-size="10.50" fill="#212121">on</text>
</g>
<!-- event -->
<g id="node14" class="node"><title>event</title>
<polygon fill="white" stroke="black" points="414.743,-297.456 360.743,-297.456 360.743,-261.456 414.743,-261.456 414.743,-297.456"/>
<text text-anchor="middle" x="387.743" y="-277.056" font-family="arial" font-size="10.50" fill="#212121">event</text>
</g>
<!-- event&#45;&gt;shell_command -->
<g id="edge17" class="edge"><title>event&#45;&gt;shell_command</title>
<path fill="none" stroke="black" d="M386.738,-297.509C385.655,-304.729 383.221,-311.037 377.317,-322.425"/>
<polygon fill="black" stroke="black" points="373.667,-329.312 374.197,-321.104 375.423,-325.998 377.179,-322.685 377.179,-322.685 377.179,-322.685 375.423,-325.998 380.161,-324.265 373.667,-329.312 373.667,-329.312"/>
<text text-anchor="middle" x="304.522" y="-317.489" font-family="arial" font-size="10.50" fill="#212121">shell_command.generate_graph</text>
</g>
<!-- device_tracker.bigdrakar_nicole -->
<g id="node15" class="node"><title>device_tracker.bigdrakar_nicole</title>
<polygon fill="white" stroke="purple" points="246.968,143.009 73.9676,143.009 73.9676,179.009 246.968,179.009 246.968,143.009"/>
<text text-anchor="middle" x="160.468" y="163.409" font-family="arial" font-size="10.50" fill="#212121">device_tracker.bigdrakar_nicole</text>
</g>
<!-- notify -->
<g id="node16" class="node"><title>notify</title>
<polygon fill="white" stroke="black" points="310.459,143.011 256.459,143.011 256.459,179.011 310.459,179.011 310.459,143.011"/>
<text text-anchor="middle" x="283.459" y="163.411" font-family="arial" font-size="10.50" fill="#212121">notify</text>
</g>
<!-- device_tracker.bigdrakar_nicole&#45;&gt;notify -->
<g id="edge18" class="edge"><title>device_tracker.bigdrakar_nicole&#45;&gt;notify</title>
<path fill="none" stroke="black" d="M247.227,161.01C247.725,161.01 248.219,161.01 248.708,161.01"/>
<polygon fill="black" stroke="black" points="256.388,161.01 248.888,157.635 252.638,161.01 248.888,161.01 248.888,161.01 248.888,161.01 252.638,161.01 248.888,164.385 256.388,161.01 256.388,161.01"/>
<text text-anchor="middle" x="248.662" y="169.41" font-family="arial" font-size="10.50" fill="#212121">notify.justin</text>
</g>
<!-- scene.lr_nightlight -->
<g id="node17" class="node"><title>scene.lr_nightlight</title>
<polygon fill="white" stroke="turquoise" points="216.161,90.0829 107.161,90.0829 107.161,126.083 216.161,126.083 216.161,90.0829"/>
<text text-anchor="middle" x="161.661" y="110.483" font-family="arial" font-size="10.50" fill="#212121">scene.lr_nightlight</text>
</g>
<!-- scene.lr_nightlight&#45;&gt;light.hue_color_lamp_2 -->
<g id="edge19" class="edge"><title>scene.lr_nightlight&#45;&gt;light.hue_color_lamp_2</title>
<path fill="none" stroke="black" d="M106.965,98.3514C74.587,90.4401 47.0358,76.9438 -28.6228,36.431"/>
<polygon fill="black" stroke="black" points="-35.6061,32.6884 -30.5899,39.206 -32.3008,34.4598 -28.9956,36.2313 -28.9956,36.2313 -28.9956,36.2313 -32.3008,34.4598 -27.4013,33.2565 -35.6061,32.6884 -35.6061,32.6884"/>
<text text-anchor="middle" x="27.4228" y="65.6155" font-family="arial" font-size="10.50" fill="#212121">on</text>
</g>
<!-- scene.lr_nightlight&#45;&gt;light.hue_color_lamp_3 -->
<g id="edge20" class="edge"><title>scene.lr_nightlight&#45;&gt;light.hue_color_lamp_3</title>
<path fill="none" stroke="black" d="M148.26,89.8957C136.638,75.0516 126.432,66.0444 93.5017,40.5893"/>
<polygon fill="black" stroke="black" points="87.5538,36.0021 91.4315,43.2549 90.5232,38.2922 93.4927,40.5824 93.4927,40.5824 93.4927,40.5824 90.5232,38.2922 95.5539,37.9099 87.5538,36.0021 87.5538,36.0021"/>
<text text-anchor="middle" x="112.93" y="57.5213" font-family="arial" font-size="10.50" fill="#212121">on</text>
</g>
<!-- scene.lr_nightlight&#45;&gt;light.hue_color_lamp_1 -->
<g id="edge21" class="edge"><title>scene.lr_nightlight&#45;&gt;light.hue_color_lamp_1</title>
<path fill="none" stroke="black" d="M160.13,89.9739C152.618,3.31491 147.162,-8.90863 68.9147,-85.3947"/>
<polygon fill="black" stroke="black" points="63.1541,-91.0147 66.1657,-83.3615 65.8383,-88.396 68.5226,-85.7773 68.5226,-85.7773 68.5226,-85.7773 65.8383,-88.396 70.8794,-88.1931 63.1541,-91.0147 63.1541,-91.0147"/>
<text text-anchor="middle" x="126.386" y="-18.8486" font-family="arial" font-size="10.50" fill="#212121">on</text>
</g>
<!-- time -->
<g id="node19" class="node"><title>time</title>
<polygon fill="white" stroke="black" points="-105.395,155.32 -159.395,155.32 -159.395,191.32 -105.395,191.32 -105.395,155.32"/>
<text text-anchor="middle" x="-132.395" y="175.72" font-family="arial" font-size="10.50" fill="#212121">time</text>
</g>
<!-- script.radio_station_3fm -->
<g id="node20" class="node"><title>script.radio_station_3fm</title>
<polygon fill="white" stroke="brown" points="542.216,69.5811 406.216,69.5811 406.216,105.581 542.216,105.581 542.216,69.5811"/>
<text text-anchor="middle" x="474.216" y="89.9811" font-family="arial" font-size="10.50" fill="#212121">script.radio_station_3fm</text>
</g>
<!-- script.radio_station_3fm&#45;&gt;media_player.kitchen -->
<g id="edge23" class="edge"><title>script.radio_station_3fm&#45;&gt;media_player.kitchen</title>
<path fill="none" stroke="black" d="M405.993,88.6762C405.666,88.5904 405.336,88.5033 405.004,88.4148"/>
<polygon fill="black" stroke="black" points="397.645,86.3519 403.955,91.626 401.256,87.364 404.866,88.3762 404.866,88.3762 404.866,88.3762 401.256,87.364 405.777,85.1265 397.645,86.3519 397.645,86.3519"/>
<text text-anchor="middle" x="344.566" y="96.8313" font-family="arial" font-size="10.50" fill="#212121">media_player.play_media</text>
</g>
<!-- script.radio_station_thebeat -->
<g id="node21" class="node"><title>script.radio_station_thebeat</title>
<polygon fill="white" stroke="brown" points="520.686,-60.0848 365.686,-60.0848 365.686,-24.0848 520.686,-24.0848 520.686,-60.0848"/>
<text text-anchor="middle" x="443.186" y="-39.6848" font-family="arial" font-size="10.50" fill="#212121">script.radio_station_thebeat</text>
</g>
<!-- script.radio_station_thebeat&#45;&gt;media_player.kitchen -->
<g id="edge24" class="edge"><title>script.radio_station_thebeat&#45;&gt;media_player.kitchen</title>
<path fill="none" stroke="black" d="M434.947,-23.9244C422.571,2.14651 413.676,11.8142 371.426,45.3899"/>
<polygon fill="black" stroke="black" points="365.53,50.0605 373.505,48.0488 368.47,47.7319 371.409,45.4033 371.409,45.4033 371.409,45.4033 368.47,47.7319 369.313,42.7578 365.53,50.0605 365.53,50.0605"/>
<text text-anchor="middle" x="464.89" y="14.2599" font-family="arial" font-size="10.50" fill="#212121">media_player.play_media</text>
</g>
<!-- input_select.radio_station -->
<g id="node22" class="node"><title>input_select.radio_station</title>
<polygon fill="white" stroke="black" points="8.81371,-260.681 -135.186,-260.681 -135.186,-224.681 8.81371,-224.681 8.81371,-260.681"/>
<text text-anchor="middle" x="-63.1863" y="-240.281" font-family="arial" font-size="10.50" fill="#212121">input_select.radio_station</text>
</g>
<!-- input_select.radio_station&#45;&gt;input_select.radio_station -->
<g id="edge25" class="edge"><title>input_select.radio_station&#45;&gt;input_select.radio_station</title>
<path fill="none" stroke="black" d="M8.83978,-248.805C19.5618,-247.851 26.8137,-245.81 26.8137,-242.681 26.8137,-240.383 22.9027,-238.672 16.5785,-237.548"/>
<polygon fill="black" stroke="black" points="8.83978,-236.558 16.7074,-234.162 12.5595,-237.034 16.2792,-237.51 16.2792,-237.51 16.2792,-237.51 12.5595,-237.034 15.8509,-240.857 8.83978,-236.558 8.83978,-236.558"/>
<text text-anchor="middle" x="88.8137" y="-240.281" font-family="arial" font-size="10.50" fill="#212121">input_select.select_option</text>
</g>
<!-- {% if trigger.to_state.state == &#39;Hot108&#39; %}
 &#160;script.radio_station_108
{%&#45;elif trigger.to_state.state == &#39;The Beat&#39; %}
 &#160;script.radio_station_thebeat
{%&#45;elif trigger.to_state.state == &#39;3FM&#39; %}
 &#160;script.radio_station_3fm
{% endif %}
 -->
<g id="node23" class="node"><title>{% if trigger.to_state.state == &#39;Hot108&#39; %}
 &#160;script.radio_station_108
{%&#45;elif trigger.to_state.state == &#39;The Beat&#39; %}
 &#160;script.radio_station_thebeat
{%&#45;elif trigger.to_state.state == &#39;3FM&#39; %}
 &#160;script.radio_station_3fm
{% endif %}
</title>
<polygon fill="white" stroke="black" points="245.244,-288.68 10.2435,-288.68 10.2435,-196.68 245.244,-196.68 245.244,-288.68"/>
<text text-anchor="middle" x="127.744" y="-276.28" font-family="arial" font-size="10.50" fill="#212121">{% if trigger.to_state.state == &#39;Hot108&#39; %}</text>
<text text-anchor="middle" x="127.744" y="-264.28" font-family="arial" font-size="10.50" fill="#212121"> &#160;script.radio_station_108</text>
<text text-anchor="middle" x="127.744" y="-252.28" font-family="arial" font-size="10.50" fill="#212121">{%&#45;elif trigger.to_state.state == &#39;The Beat&#39; %}</text>
<text text-anchor="middle" x="127.744" y="-240.28" font-family="arial" font-size="10.50" fill="#212121"> &#160;script.radio_station_thebeat</text>
<text text-anchor="middle" x="127.744" y="-228.28" font-family="arial" font-size="10.50" fill="#212121">{%&#45;elif trigger.to_state.state == &#39;3FM&#39; %}</text>
<text text-anchor="middle" x="127.744" y="-216.28" font-family="arial" font-size="10.50" fill="#212121"> &#160;script.radio_station_3fm</text>
<text text-anchor="middle" x="127.744" y="-204.28" font-family="arial" font-size="10.50" fill="#212121">{% endif %}</text>
</g>
<!-- input_select.radio_station&#45;&gt;{% if trigger.to_state.state == &#39;Hot108&#39; %}
 &#160;script.radio_station_108
{%&#45;elif trigger.to_state.state == &#39;The Beat&#39; %}
 &#160;script.radio_station_thebeat
{%&#45;elif trigger.to_state.state == &#39;3FM&#39; %}
 &#160;script.radio_station_3fm
{% endif %}
 -->
<g id="edge26" class="edge"><title>input_select.radio_station&#45;&gt;{% if trigger.to_state.state == &#39;Hot108&#39; %}
 &#160;script.radio_station_108
{%&#45;elif trigger.to_state.state == &#39;The Beat&#39; %}
 &#160;script.radio_station_thebeat
{%&#45;elif trigger.to_state.state == &#39;3FM&#39; %}
 &#160;script.radio_station_3fm
{% endif %}
</title>
<path fill="none" stroke="black" d="M8.8233,-242.681C8.93828,-242.681 9.05348,-242.681 9.16891,-242.681"/>
<polygon fill="black" stroke="black" points="10.2142,-242.681 2.71455,-246.057 6.46419,-242.682 2.71419,-242.682 2.71419,-242.682 2.71419,-242.682 6.46419,-242.682 2.71384,-239.307 10.2142,-242.681 10.2142,-242.681"/>
<text text-anchor="middle" x="-24.0041" y="-246.281" font-family="arial" font-size="10.50" fill="#212121">script.turn_on</text>
</g>
<!-- scene.lr_concentrate -->
<g id="node24" class="node"><title>scene.lr_concentrate</title>
<polygon fill="white" stroke="turquoise" points="56.6682,115.184 -65.3318,115.184 -65.3318,151.184 56.6682,151.184 56.6682,115.184"/>
<text text-anchor="middle" x="-4.33177" y="135.584" font-family="arial" font-size="10.50" fill="#212121">scene.lr_concentrate</text>
</g>
<!-- scene.lr_concentrate&#45;&gt;light.hue_color_lamp_2 -->
<g id="edge27" class="edge"><title>scene.lr_concentrate&#45;&gt;light.hue_color_lamp_2</title>
<path fill="none" stroke="black" d="M-26.2494,115.131C-45.4255,97.9051 -50.7656,85.2919 -62.7659,39.893"/>
<polygon fill="black" stroke="black" points="-64.6694,32.6371 -66.0307,40.7481 -63.7178,36.2644 -62.7661,39.8916 -62.7661,39.8916 -62.7661,39.8916 -63.7178,36.2644 -59.5016,39.0352 -64.6694,32.6371 -64.6694,32.6371"/>
<text text-anchor="middle" x="-58.6497" y="72.3644" font-family="arial" font-size="10.50" fill="#212121">on</text>
</g>
<!-- scene.lr_concentrate&#45;&gt;light.hue_color_lamp_3 -->
<g id="edge28" class="edge"><title>scene.lr_concentrate&#45;&gt;light.hue_color_lamp_3</title>
<path fill="none" stroke="black" d="M20.0143,114.959C40.4434,98.2243 46.0335,85.9932 57.3585,43.6036"/>
<polygon fill="black" stroke="black" points="59.3067,36.2378 54.1261,42.6254 58.3478,39.8631 57.3889,43.4884 57.3889,43.4884 57.3889,43.4884 58.3478,39.8631 60.6517,44.3515 59.3067,36.2378 59.3067,36.2378"/>
<text text-anchor="middle" x="40.1466" y="87.0351" font-family="arial" font-size="10.50" fill="#212121">on</text>
</g>
<!-- scene.lr_concentrate&#45;&gt;light.hue_color_lamp_1 -->
<g id="edge29" class="edge"><title>scene.lr_concentrate&#45;&gt;light.hue_color_lamp_1</title>
<path fill="none" stroke="black" d="M7.26289,114.943C64.3751,24.7828 67.5964,12.2411 49.3078,-83.8078"/>
<polygon fill="black" stroke="black" points="47.8949,-91.1781 45.9924,-83.1768 48.601,-87.4952 49.3071,-83.8122 49.3071,-83.8122 49.3071,-83.8122 48.601,-87.4952 52.6217,-84.4477 47.8949,-91.1781 47.8949,-91.1781"/>
<text text-anchor="middle" x="50.1265" y="13.8663" font-family="arial" font-size="10.50" fill="#212121">on</text>
</g>
<!-- input_select.scene_livingroom -->
<g id="node25" class="node"><title>input_select.scene_livingroom</title>
<polygon fill="white" stroke="black" points="244.88,-179.684 79.8803,-179.684 79.8803,-143.684 244.88,-143.684 244.88,-179.684"/>
<text text-anchor="middle" x="162.38" y="-159.284" font-family="arial" font-size="10.50" fill="#212121">input_select.scene_livingroom</text>
</g>
<!-- input_select.scene_livingroom&#45;&gt;input_select.scene_livingroom -->
<g id="edge31" class="edge"><title>input_select.scene_livingroom&#45;&gt;input_select.scene_livingroom</title>
<path fill="none" stroke="black" d="M245.177,-167.599C255.837,-166.573 262.88,-164.602 262.88,-161.684 262.88,-159.541 259.082,-157.908 252.842,-156.786"/>
<polygon fill="black" stroke="black" points="245.177,-155.768 253.056,-153.409 248.894,-156.261 252.611,-156.755 252.611,-156.755 252.611,-156.755 248.894,-156.261 252.167,-160.101 245.177,-155.768 245.177,-155.768"/>
<text text-anchor="middle" x="324.88" y="-159.284" font-family="arial" font-size="10.50" fill="#212121">input_select.select_option</text>
</g>
<!-- {% if is_state( &quot;input_select.scene_livingroom&quot;, &quot;Nightlight&quot; ) %}
 &#160;scene.livingroom_nightlight
{%&#45;elif is_state( &quot;input_select.scene_livingroom&quot;, &quot;Dimmed&quot; ) %}
 &#160;scene.livingroom_dimmed
{%&#45;elif is_state( &quot;input_select.scene_livingroom&quot;, &quot;Relax&quot; ) %}
 &#160;scene.livingroom_relax
{%&#45;elif is_state( &quot;input_select.scene_livingroom&quot;, &quot;Read&quot; ) %}
 &#160;scene.livingroom_read
{%&#45;elif is_state( &quot;input_select.scene_livingroom&quot;, &quot;Bright&quot; ) %}
 &#160;scene.livingroom_concentrate
{%&#45;elif is_state( &quot;input_select.scene_livingroom&quot;, &quot;Off&quot; ) %}
 &#160;scene.livingroom_off
{% endif %}
 -->
<g id="node26" class="node"><title>{% if is_state( &quot;input_select.scene_livingroom&quot;, &quot;Nightlight&quot; ) %}
 &#160;scene.livingroom_nightlight
{%&#45;elif is_state( &quot;input_select.scene_livingroom&quot;, &quot;Dimmed&quot; ) %}
 &#160;scene.livingroom_dimmed
{%&#45;elif is_state( &quot;input_select.scene_livingroom&quot;, &quot;Relax&quot; ) %}
 &#160;scene.livingroom_relax
{%&#45;elif is_state( &quot;input_select.scene_livingroom&quot;, &quot;Read&quot; ) %}
 &#160;scene.livingroom_read
{%&#45;elif is_state( &quot;input_select.scene_livingroom&quot;, &quot;Bright&quot; ) %}
 &#160;scene.livingroom_concentrate
{%&#45;elif is_state( &quot;input_select.scene_livingroom&quot;, &quot;Off&quot; ) %}
 &#160;scene.livingroom_off
{% endif %}
</title>
<polygon fill="white" stroke="black" points="584.057,-243.677 261.057,-243.677 261.057,-79.6774 584.057,-79.6774 584.057,-243.677"/>
<text text-anchor="middle" x="422.557" y="-231.277" font-family="arial" font-size="10.50" fill="#212121">{% if is_state( &quot;input_select.scene_livingroom&quot;, &quot;Nightlight&quot; ) %}</text>
<text text-anchor="middle" x="422.557" y="-219.277" font-family="arial" font-size="10.50" fill="#212121"> &#160;scene.livingroom_nightlight</text>
<text text-anchor="middle" x="422.557" y="-207.277" font-family="arial" font-size="10.50" fill="#212121">{%&#45;elif is_state( &quot;input_select.scene_livingroom&quot;, &quot;Dimmed&quot; ) %}</text>
<text text-anchor="middle" x="422.557" y="-195.277" font-family="arial" font-size="10.50" fill="#212121"> &#160;scene.livingroom_dimmed</text>
<text text-anchor="middle" x="422.557" y="-183.277" font-family="arial" font-size="10.50" fill="#212121">{%&#45;elif is_state( &quot;input_select.scene_livingroom&quot;, &quot;Relax&quot; ) %}</text>
<text text-anchor="middle" x="422.557" y="-171.277" font-family="arial" font-size="10.50" fill="#212121"> &#160;scene.livingroom_relax</text>
<text text-anchor="middle" x="422.557" y="-159.277" font-family="arial" font-size="10.50" fill="#212121">{%&#45;elif is_state( &quot;input_select.scene_livingroom&quot;, &quot;Read&quot; ) %}</text>
<text text-anchor="middle" x="422.557" y="-147.277" font-family="arial" font-size="10.50" fill="#212121"> &#160;scene.livingroom_read</text>
<text text-anchor="middle" x="422.557" y="-135.277" font-family="arial" font-size="10.50" fill="#212121">{%&#45;elif is_state( &quot;input_select.scene_livingroom&quot;, &quot;Bright&quot; ) %}</text>
<text text-anchor="middle" x="422.557" y="-123.277" font-family="arial" font-size="10.50" fill="#212121"> &#160;scene.livingroom_concentrate</text>
<text text-anchor="middle" x="422.557" y="-111.277" font-family="arial" font-size="10.50" fill="#212121">{%&#45;elif is_state( &quot;input_select.scene_livingroom&quot;, &quot;Off&quot; ) %}</text>
<text text-anchor="middle" x="422.557" y="-99.2774" font-family="arial" font-size="10.50" fill="#212121"> &#160;scene.livingroom_off</text>
<text text-anchor="middle" x="422.557" y="-87.2774" font-family="arial" font-size="10.50" fill="#212121">{% endif %}</text>
</g>
<!-- input_select.scene_livingroom&#45;&gt;{% if is_state( &quot;input_select.scene_livingroom&quot;, &quot;Nightlight&quot; ) %}
 &#160;scene.livingroom_nightlight
{%&#45;elif is_state( &quot;input_select.scene_livingroom&quot;, &quot;Dimmed&quot; ) %}
 &#160;scene.livingroom_dimmed
{%&#45;elif is_state( &quot;input_select.scene_livingroom&quot;, &quot;Relax&quot; ) %}
 &#160;scene.livingroom_relax
{%&#45;elif is_state( &quot;input_select.scene_livingroom&quot;, &quot;Read&quot; ) %}
 &#160;scene.livingroom_read
{%&#45;elif is_state( &quot;input_select.scene_livingroom&quot;, &quot;Bright&quot; ) %}
 &#160;scene.livingroom_concentrate
{%&#45;elif is_state( &quot;input_select.scene_livingroom&quot;, &quot;Off&quot; ) %}
 &#160;scene.livingroom_off
{% endif %}
 -->
<g id="edge30" class="edge"><title>input_select.scene_livingroom&#45;&gt;{% if is_state( &quot;input_select.scene_livingroom&quot;, &quot;Nightlight&quot; ) %}
 &#160;scene.livingroom_nightlight
{%&#45;elif is_state( &quot;input_select.scene_livingroom&quot;, &quot;Dimmed&quot; ) %}
 &#160;scene.livingroom_dimmed
{%&#45;elif is_state( &quot;input_select.scene_livingroom&quot;, &quot;Relax&quot; ) %}
 &#160;scene.livingroom_relax
{%&#45;elif is_state( &quot;input_select.scene_livingroom&quot;, &quot;Read&quot; ) %}
 &#160;scene.livingroom_read
{%&#45;elif is_state( &quot;input_select.scene_livingroom&quot;, &quot;Bright&quot; ) %}
 &#160;scene.livingroom_concentrate
{%&#45;elif is_state( &quot;input_select.scene_livingroom&quot;, &quot;Off&quot; ) %}
 &#160;scene.livingroom_off
{% endif %}
</title>
<path fill="none" stroke="black" d="M244.968,-161.684C247.585,-161.684 250.276,-161.684 253.062,-161.684"/>
<polygon fill="black" stroke="black" points="260.674,-161.683 253.174,-165.059 256.924,-161.683 253.174,-161.684 253.174,-161.684 253.174,-161.684 256.924,-161.683 253.174,-158.309 260.674,-161.683 260.674,-161.683"/>
<text text-anchor="middle" x="218.041" y="-165.284" font-family="arial" font-size="10.50" fill="#212121">scene.turn_on</text>
</g>
</g>
</svg>
