<?xml version="1.0" encoding="UTF-8" standalone="no"?>
<!DOCTYPE svg PUBLIC "-//W3C//DTD SVG 1.1//EN"
 "http://www.w3.org/Graphics/SVG/1.1/DTD/svg11.dtd">
<!-- Generated by graphviz version 2.38.0 (20140413.2041)
 -->
<!-- Title: %3 Pages: 1 -->
<svg width="944pt" height="522pt"
 viewBox="0.00 0.00 944.30 521.88" xmlns="http://www.w3.org/2000/svg" xmlns:xlink="http://www.w3.org/1999/xlink">
<g id="graph0" class="graph" transform="scale(1 1) rotate(0) translate(278.214 331.85)">
<title>%3</title>
<polygon fill="#e5e5e5" stroke="none" points="-278.214,190.034 -278.214,-331.85 666.087,-331.85 666.087,190.034 -278.214,190.034"/>
<!-- light.hue_color_lamp_3 -->
<g id="node1" class="node"><title>light.hue_color_lamp_3</title>
<polygon fill="white" stroke="yellow" points="-2.89474,7.18578 -135.895,7.18578 -135.895,43.1858 -2.89474,43.1858 -2.89474,7.18578"/>
<text text-anchor="middle" x="-69.3947" y="27.5858" font-family="arial" font-size="10.50" fill="#212121">light.hue_color_lamp_3</text>
</g>
<!-- light.hue_color_lamp_2 -->
<g id="node2" class="node"><title>light.hue_color_lamp_2</title>
<polygon fill="white" stroke="yellow" points="140.997,-11.8418 7.99744,-11.8418 7.99744,24.1582 140.997,24.1582 140.997,-11.8418"/>
<text text-anchor="middle" x="74.4974" y="8.55818" font-family="arial" font-size="10.50" fill="#212121">light.hue_color_lamp_2</text>
</g>
<!-- scene.lr_concentrate -->
<g id="node3" class="node"><title>scene.lr_concentrate</title>
<polygon fill="white" stroke="turquoise" points="-130.81,132.115 -252.81,132.115 -252.81,168.115 -130.81,168.115 -130.81,132.115"/>
<text text-anchor="middle" x="-191.81" y="152.515" font-family="arial" font-size="10.50" fill="#212121">scene.lr_concentrate</text>
</g>
<!-- scene.lr_concentrate&#45;&gt;light.hue_color_lamp_3 -->
<g id="edge1" class="edge"><title>scene.lr_concentrate&#45;&gt;light.hue_color_lamp_3</title>
<path fill="none" stroke="black" d="M-178.628,131.798C-160.681,107.478 -149.076,96.1023 -95.6675,48.5371"/>
<polygon fill="black" stroke="black" points="-90.015,43.5065 -97.8614,45.9715 -92.8163,45.9996 -95.6176,48.4927 -95.6176,48.4927 -95.6176,48.4927 -92.8163,45.9996 -93.3738,51.0138 -90.015,43.5065 -90.015,43.5065"/>
<text text-anchor="middle" x="-142.94" y="81.8057" font-family="arial" font-size="10.50" fill="#212121">on</text>
</g>
<!-- scene.lr_concentrate&#45;&gt;light.hue_color_lamp_2 -->
<g id="edge2" class="edge"><title>scene.lr_concentrate&#45;&gt;light.hue_color_lamp_2</title>
<path fill="none" stroke="black" d="M-130.473,133.399C-87.816,119.127 -56.5346,98.4946 42.5134,28.7191"/>
<polygon fill="black" stroke="black" points="48.8246,24.2713 40.7498,25.833 45.7593,26.4316 42.694,28.5918 42.694,28.5918 42.694,28.5918 45.7593,26.4316 44.6382,31.3506 48.8246,24.2713 48.8246,24.2713"/>
<text text-anchor="middle" x="-43.8657" y="80.4238" font-family="arial" font-size="10.50" fill="#212121">on</text>
</g>
<!-- light.hue_color_lamp_1 -->
<g id="node4" class="node"><title>light.hue_color_lamp_1</title>
<polygon fill="white" stroke="yellow" points="65.0176,-143.478 -67.9824,-143.478 -67.9824,-107.478 65.0176,-107.478 65.0176,-143.478"/>
<text text-anchor="middle" x="-1.48239" y="-123.078" font-family="arial" font-size="10.50" fill="#212121">light.hue_color_lamp_1</text>
</g>
<!-- scene.lr_concentrate&#45;&gt;light.hue_color_lamp_1 -->
<g id="edge3" class="edge"><title>scene.lr_concentrate&#45;&gt;light.hue_color_lamp_1</title>
<path fill="none" stroke="black" d="M-188.089,132.002C-164.822,19.561 -157.134,7.29582 -28.5124,-102.463"/>
<polygon fill="black" stroke="black" points="-22.6954,-107.423 -30.5921,-105.125 -25.5488,-104.99 -28.4022,-102.557 -28.4022,-102.557 -28.4022,-102.557 -25.5488,-104.99 -26.2123,-99.9888 -22.6954,-107.423 -22.6954,-107.423"/>
<text text-anchor="middle" x="-136.226" y="-12.9132" font-family="arial" font-size="10.50" fill="#212121">on</text>
</g>
<!-- input_select.scene_livingroom -->
<g id="node5" class="node"><title>input_select.scene_livingroom</title>
<polygon fill="white" stroke="black" points="249.88,-184.684 84.8803,-184.684 84.8803,-148.684 249.88,-148.684 249.88,-184.684"/>
<text text-anchor="middle" x="167.38" y="-164.284" font-family="arial" font-size="10.50" fill="#212121">input_select.scene_livingroom</text>
</g>
<!-- input_select.scene_livingroom&#45;&gt;input_select.scene_livingroom -->
<g id="edge4" class="edge"><title>input_select.scene_livingroom&#45;&gt;input_select.scene_livingroom</title>
<path fill="none" stroke="black" d="M250.177,-172.599C260.837,-171.573 267.88,-169.602 267.88,-166.684 267.88,-164.541 264.082,-162.908 257.842,-161.786"/>
<polygon fill="black" stroke="black" points="250.177,-160.768 258.056,-158.409 253.894,-161.261 257.611,-161.755 257.611,-161.755 257.611,-161.755 253.894,-161.261 257.167,-165.101 250.177,-160.768 250.177,-160.768"/>
<text text-anchor="middle" x="329.88" y="-164.284" font-family="arial" font-size="10.50" fill="#212121">input_select.select_option</text>
</g>
<!-- {% if is_state( &quot;input_select.scene_livingroom&quot;, &quot;Nightlight&quot; ) %}
 &#160;scene.livingroom_nightlight
{%&#45;elif is_state( &quot;input_select.scene_livingroom&quot;, &quot;Dimmed&quot; ) %}
 &#160;scene.livingroom_dimmed
{%&#45;elif is_state( &quot;input_select.scene_livingroom&quot;, &quot;Relax&quot; ) %}
 &#160;scene.livingroom_relax
{%&#45;elif is_state( &quot;input_select.scene_livingroom&quot;, &quot;Read&quot; ) %}
 &#160;scene.livingroom_read
{%&#45;elif is_state( &quot;input_select.scene_livingroom&quot;, &quot;Bright&quot; ) %}
 &#160;scene.livingroom_concentrate
{%&#45;elif is_state( &quot;input_select.scene_livingroom&quot;, &quot;Off&quot; ) %}
 &#160;scene.livingroom_off
{% endif %}
 -->
<g id="node6" class="node"><title>{% if is_state( &quot;input_select.scene_livingroom&quot;, &quot;Nightlight&quot; ) %}
 &#160;scene.livingroom_nightlight
{%&#45;elif is_state( &quot;input_select.scene_livingroom&quot;, &quot;Dimmed&quot; ) %}
 &#160;scene.livingroom_dimmed
{%&#45;elif is_state( &quot;input_select.scene_livingroom&quot;, &quot;Relax&quot; ) %}
 &#160;scene.livingroom_relax
{%&#45;elif is_state( &quot;input_select.scene_livingroom&quot;, &quot;Read&quot; ) %}
 &#160;scene.livingroom_read
{%&#45;elif is_state( &quot;input_select.scene_livingroom&quot;, &quot;Bright&quot; ) %}
 &#160;scene.livingroom_concentrate
{%&#45;elif is_state( &quot;input_select.scene_livingroom&quot;, &quot;Off&quot; ) %}
 &#160;scene.livingroom_off
{% endif %}
</title>
<polygon fill="white" stroke="black" points="589.057,-248.677 266.057,-248.677 266.057,-84.6774 589.057,-84.6774 589.057,-248.677"/>
<text text-anchor="middle" x="427.557" y="-236.277" font-family="arial" font-size="10.50" fill="#212121">{% if is_state( &quot;input_select.scene_livingroom&quot;, &quot;Nightlight&quot; ) %}</text>
<text text-anchor="middle" x="427.557" y="-224.277" font-family="arial" font-size="10.50" fill="#212121"> &#160;scene.livingroom_nightlight</text>
<text text-anchor="middle" x="427.557" y="-212.277" font-family="arial" font-size="10.50" fill="#212121">{%&#45;elif is_state( &quot;input_select.scene_livingroom&quot;, &quot;Dimmed&quot; ) %}</text>
<text text-anchor="middle" x="427.557" y="-200.277" font-family="arial" font-size="10.50" fill="#212121"> &#160;scene.livingroom_dimmed</text>
<text text-anchor="middle" x="427.557" y="-188.277" font-family="arial" font-size="10.50" fill="#212121">{%&#45;elif is_state( &quot;input_select.scene_livingroom&quot;, &quot;Relax&quot; ) %}</text>
<text text-anchor="middle" x="427.557" y="-176.277" font-family="arial" font-size="10.50" fill="#212121"> &#160;scene.livingroom_relax</text>
<text text-anchor="middle" x="427.557" y="-164.277" font-family="arial" font-size="10.50" fill="#212121">{%&#45;elif is_state( &quot;input_select.scene_livingroom&quot;, &quot;Read&quot; ) %}</text>
<text text-anchor="middle" x="427.557" y="-152.277" font-family="arial" font-size="10.50" fill="#212121"> &#160;scene.livingroom_read</text>
<text text-anchor="middle" x="427.557" y="-140.277" font-family="arial" font-size="10.50" fill="#212121">{%&#45;elif is_state( &quot;input_select.scene_livingroom&quot;, &quot;Bright&quot; ) %}</text>
<text text-anchor="middle" x="427.557" y="-128.277" font-family="arial" font-size="10.50" fill="#212121"> &#160;scene.livingroom_concentrate</text>
<text text-anchor="middle" x="427.557" y="-116.277" font-family="arial" font-size="10.50" fill="#212121">{%&#45;elif is_state( &quot;input_select.scene_livingroom&quot;, &quot;Off&quot; ) %}</text>
<text text-anchor="middle" x="427.557" y="-104.277" font-family="arial" font-size="10.50" fill="#212121"> &#160;scene.livingroom_off</text>
<text text-anchor="middle" x="427.557" y="-92.2774" font-family="arial" font-size="10.50" fill="#212121">{% endif %}</text>
</g>
<!-- input_select.scene_livingroom&#45;&gt;{% if is_state( &quot;input_select.scene_livingroom&quot;, &quot;Nightlight&quot; ) %}
 &#160;scene.livingroom_nightlight
{%&#45;elif is_state( &quot;input_select.scene_livingroom&quot;, &quot;Dimmed&quot; ) %}
 &#160;scene.livingroom_dimmed
{%&#45;elif is_state( &quot;input_select.scene_livingroom&quot;, &quot;Relax&quot; ) %}
 &#160;scene.livingroom_relax
{%&#45;elif is_state( &quot;input_select.scene_livingroom&quot;, &quot;Read&quot; ) %}
 &#160;scene.livingroom_read
{%&#45;elif is_state( &quot;input_select.scene_livingroom&quot;, &quot;Bright&quot; ) %}
 &#160;scene.livingroom_concentrate
{%&#45;elif is_state( &quot;input_select.scene_livingroom&quot;, &quot;Off&quot; ) %}
 &#160;scene.livingroom_off
{% endif %}
 -->
<g id="edge5" class="edge"><title>input_select.scene_livingroom&#45;&gt;{% if is_state( &quot;input_select.scene_livingroom&quot;, &quot;Nightlight&quot; ) %}
 &#160;scene.livingroom_nightlight
{%&#45;elif is_state( &quot;input_select.scene_livingroom&quot;, &quot;Dimmed&quot; ) %}
 &#160;scene.livingroom_dimmed
{%&#45;elif is_state( &quot;input_select.scene_livingroom&quot;, &quot;Relax&quot; ) %}
 &#160;scene.livingroom_relax
{%&#45;elif is_state( &quot;input_select.scene_livingroom&quot;, &quot;Read&quot; ) %}
 &#160;scene.livingroom_read
{%&#45;elif is_state( &quot;input_select.scene_livingroom&quot;, &quot;Bright&quot; ) %}
 &#160;scene.livingroom_concentrate
{%&#45;elif is_state( &quot;input_select.scene_livingroom&quot;, &quot;Off&quot; ) %}
 &#160;scene.livingroom_off
{% endif %}
</title>
<path fill="none" stroke="black" d="M249.968,-166.684C252.585,-166.684 255.276,-166.684 258.062,-166.684"/>
<polygon fill="black" stroke="black" points="265.674,-166.683 258.174,-170.059 261.924,-166.683 258.174,-166.684 258.174,-166.684 258.174,-166.684 261.924,-166.683 258.174,-163.309 265.674,-166.683 265.674,-166.683"/>
<text text-anchor="middle" x="223.041" y="-170.284" font-family="arial" font-size="10.50" fill="#212121">scene.turn_on</text>
</g>
<!-- script -->
<g id="node7" class="node"><title>script</title>
<polygon fill="white" stroke="brown" points="-59.6048,175.68 -113.605,175.68 -113.605,211.68 -59.6048,211.68 -59.6048,175.68"/>
<text text-anchor="middle" x="-86.6048" y="196.08" font-family="arial" font-size="10.50" fill="#212121">script</text>
</g>
<!-- time -->
<g id="node8" class="node"><title>time</title>
<polygon fill="white" stroke="black" points="11.6048,186.32 -42.3952,186.32 -42.3952,222.32 11.6048,222.32 11.6048,186.32"/>
<text text-anchor="middle" x="-15.3952" y="206.72" font-family="arial" font-size="10.50" fill="#212121">time</text>
</g>
<!-- input_select.radio_station -->
<g id="node9" class="node"><title>input_select.radio_station</title>
<polygon fill="white" stroke="black" points="317.574,-51.6805 173.574,-51.6805 173.574,-15.6805 317.574,-15.6805 317.574,-51.6805"/>
<text text-anchor="middle" x="245.574" y="-31.2805" font-family="arial" font-size="10.50" fill="#212121">input_select.radio_station</text>
</g>
<!-- {% if is_state(&#39;input_select.radio_station_location&#39;, &#39;Kitchen&#39;) %}
 &#160;media_player.kitchen
{% elif is_state(&#39;input_select.radio_station_location&#39;, &#39;Backyard&#39;) %}
 &#160;media_player.backyard
{% endif %}
 -->
<g id="node10" class="node"><title>{% if is_state(&#39;input_select.radio_station_location&#39;, &#39;Kitchen&#39;) %}
 &#160;media_player.kitchen
{% elif is_state(&#39;input_select.radio_station_location&#39;, &#39;Backyard&#39;) %}
 &#160;media_player.backyard
{% endif %}
</title>
<polygon fill="white" stroke="black" points="662.087,-67.6804 324.087,-67.6804 324.087,0.319561 662.087,0.319561 662.087,-67.6804"/>
<text text-anchor="middle" x="493.087" y="-55.2804" font-family="arial" font-size="10.50" fill="#212121">{% if is_state(&#39;input_select.radio_station_location&#39;, &#39;Kitchen&#39;) %}</text>
<text text-anchor="middle" x="493.087" y="-43.2804" font-family="arial" font-size="10.50" fill="#212121"> &#160;media_player.kitchen</text>
<text text-anchor="middle" x="493.087" y="-31.2804" font-family="arial" font-size="10.50" fill="#212121">{% elif is_state(&#39;input_select.radio_station_location&#39;, &#39;Backyard&#39;) %}</text>
<text text-anchor="middle" x="493.087" y="-19.2804" font-family="arial" font-size="10.50" fill="#212121"> &#160;media_player.backyard</text>
<text text-anchor="middle" x="493.087" y="-7.28044" font-family="arial" font-size="10.50" fill="#212121">{% endif %}</text>
</g>
<!-- input_select.radio_station&#45;&gt;{% if is_state(&#39;input_select.radio_station_location&#39;, &#39;Kitchen&#39;) %}
 &#160;media_player.kitchen
{% elif is_state(&#39;input_select.radio_station_location&#39;, &#39;Backyard&#39;) %}
 &#160;media_player.backyard
{% endif %}
 -->
<g id="edge7" class="edge"><title>input_select.radio_station&#45;&gt;{% if is_state(&#39;input_select.radio_station_location&#39;, &#39;Kitchen&#39;) %}
 &#160;media_player.kitchen
{% elif is_state(&#39;input_select.radio_station_location&#39;, &#39;Backyard&#39;) %}
 &#160;media_player.backyard
{% endif %}
</title>
<path fill="none" stroke="black" d="M317.838,-33.6805C317.964,-33.6805 318.091,-33.6805 318.217,-33.6805"/>
<polygon fill="black" stroke="black" points="324.015,-33.6805 316.515,-37.0556 320.265,-33.6805 316.515,-33.6806 316.515,-33.6806 316.515,-33.6806 320.265,-33.6805 316.515,-30.3056 324.015,-33.6805 324.015,-33.6805"/>
<text text-anchor="middle" x="318.17" y="-25.2805" font-family="arial" font-size="10.50" fill="#212121">media_player.play_media</text>
</g>
<!-- device_tracker.bigdrakar_nicole -->
<g id="node11" class="node"><title>device_tracker.bigdrakar_nicole</title>
<polygon fill="white" stroke="purple" points="368.118,18.0665 195.118,18.0665 195.118,54.0665 368.118,54.0665 368.118,18.0665"/>
<text text-anchor="middle" x="281.618" y="38.4665" font-family="arial" font-size="10.50" fill="#212121">device_tracker.bigdrakar_nicole</text>
</g>
<!-- notify -->
<g id="node12" class="node"><title>notify</title>
<polygon fill="white" stroke="black" points="352.639,75.3895 298.639,75.3895 298.639,111.39 352.639,111.39 352.639,75.3895"/>
<text text-anchor="middle" x="325.639" y="95.7895" font-family="arial" font-size="10.50" fill="#212121">notify</text>
</g>
<!-- device_tracker.bigdrakar_nicole&#45;&gt;notify -->
<g id="edge8" class="edge"><title>device_tracker.bigdrakar_nicole&#45;&gt;notify</title>
<path fill="none" stroke="black" d="M303.999,54.3726C307.83,58.9893 311.644,64.0086 315.011,68.8708"/>
<polygon fill="black" stroke="black" points="319.284,75.3513 317.973,67.2321 317.22,72.2207 315.155,69.09 315.155,69.09 315.155,69.09 317.22,72.2207 312.338,70.948 319.284,75.3513 319.284,75.3513"/>
<text text-anchor="middle" x="285.574" y="73.1435" font-family="arial" font-size="10.50" fill="#212121">notify.justin</text>
</g>
<!-- device_tracker.bigdrakar_nicole&#45;&gt;notify -->
<g id="edge9" class="edge"><title>device_tracker.bigdrakar_nicole&#45;&gt;notify</title>
<path fill="none" stroke="black" d="M288.005,54.1569C290.947,58.868 294.558,64.0071 298.38,68.9758"/>
<polygon fill="black" stroke="black" points="303.299,75.1332 301.255,67.1669 300.958,72.2034 298.618,69.2735 298.618,69.2735 298.618,69.2735 300.958,72.2034 295.981,71.3801 303.299,75.1332 303.299,75.1332"/>
<text text-anchor="middle" x="268.715" y="61.1563" font-family="arial" font-size="10.50" fill="#212121">notify.justin</text>
</g>
<!-- scene.lr_dimmed -->
<g id="node13" class="node"><title>scene.lr_dimmed</title>
<polygon fill="white" stroke="turquoise" points="248.558,-120.287 145.558,-120.287 145.558,-84.287 248.558,-84.287 248.558,-120.287"/>
<text text-anchor="middle" x="197.058" y="-99.887" font-family="arial" font-size="10.50" fill="#212121">scene.lr_dimmed</text>
</g>
<!-- scene.lr_dimmed&#45;&gt;light.hue_color_lamp_3 -->
<g id="edge10" class="edge"><title>scene.lr_dimmed&#45;&gt;light.hue_color_lamp_3</title>
<path fill="none" stroke="black" d="M146.841,-84.2743C106.397,-68.8017 75.6279,-52.8881 -29.0648,3.46029"/>
<polygon fill="black" stroke="black" points="-35.7387,7.05317 -27.535,6.46969 -32.4368,5.27556 -29.1349,3.49795 -29.1349,3.49795 -29.1349,3.49795 -32.4368,5.27556 -30.7347,0.526215 -35.7387,7.05317 -35.7387,7.05317"/>
<text text-anchor="middle" x="47.7092" y="-44.5571" font-family="arial" font-size="10.50" fill="#212121">on</text>
</g>
<!-- scene.lr_dimmed&#45;&gt;light.hue_color_lamp_2 -->
<g id="edge11" class="edge"><title>scene.lr_dimmed&#45;&gt;light.hue_color_lamp_2</title>
<path fill="none" stroke="black" d="M183.16,-83.9823C166.357,-62.6576 154.459,-52.5543 105.533,-16.5694"/>
<polygon fill="black" stroke="black" points="99.3795,-12.0502 107.422,-13.7698 102.402,-14.2701 105.424,-16.49 105.424,-16.49 105.424,-16.49 102.402,-14.2701 103.426,-19.2101 99.3795,-12.0502 99.3795,-12.0502"/>
<text text-anchor="middle" x="137.056" y="-48.812" font-family="arial" font-size="10.50" fill="#212121">on</text>
</g>
<!-- scene.lr_dimmed&#45;&gt;light.hue_color_lamp_1 -->
<g id="edge12" class="edge"><title>scene.lr_dimmed&#45;&gt;light.hue_color_lamp_1</title>
<path fill="none" stroke="black" d="M164.636,-120.432C133.592,-136.709 115.514,-140.419 72.9805,-135.931"/>
<polygon fill="black" stroke="black" points="65.3458,-135.071 73.1766,-132.557 69.0722,-135.491 72.7986,-135.911 72.7986,-135.911 72.7986,-135.911 69.0722,-135.491 72.4207,-139.265 65.3458,-135.071 65.3458,-135.071"/>
<text text-anchor="middle" x="109.393" y="-140.579" font-family="arial" font-size="10.50" fill="#212121">on</text>
</g>
<!-- event -->
<g id="node14" class="node"><title>event</title>
<polygon fill="white" stroke="black" points="-86.0525,-247.473 -140.053,-247.473 -140.053,-211.473 -86.0525,-211.473 -86.0525,-247.473"/>
<text text-anchor="middle" x="-113.053" y="-227.073" font-family="arial" font-size="10.50" fill="#212121">event</text>
</g>
<!-- shell_command -->
<g id="node15" class="node"><title>shell_command</title>
<polygon fill="white" stroke="black" points="11.1368,-257.009 -84.8632,-257.009 -84.8632,-221.009 11.1368,-221.009 11.1368,-257.009"/>
<text text-anchor="middle" x="-36.8632" y="-236.609" font-family="arial" font-size="10.50" fill="#212121">shell_command</text>
</g>
<!-- event&#45;&gt;shell_command -->
<g id="edge13" class="edge"><title>event&#45;&gt;shell_command</title>
<path fill="none" stroke="black" d="M-85.6987,-231.57C-85.6246,-231.58 -85.5502,-231.589 -85.4756,-231.599"/>
<polygon fill="black" stroke="black" points="-85.251,-231.627 -93.1193,-234.023 -88.9709,-231.151 -92.6907,-230.675 -92.6907,-230.675 -92.6907,-230.675 -88.9709,-231.151 -92.2621,-227.327 -85.251,-231.627 -85.251,-231.627"/>
<text text-anchor="middle" x="-162.587" y="-235.184" font-family="arial" font-size="10.50" fill="#212121">shell_command.generate_graph</text>
</g>
<!-- script.play_cartoons -->
<g id="node16" class="node"><title>script.play_cartoons</title>
<polygon fill="white" stroke="brown" points="68.2538,-195.668 -49.7462,-195.668 -49.7462,-159.668 68.2538,-159.668 68.2538,-195.668"/>
<text text-anchor="middle" x="9.25381" y="-175.268" font-family="arial" font-size="10.50" fill="#212121">script.play_cartoons</text>
</g>
<!-- script.play_cartoons&#45;&gt;shell_command -->
<g id="edge14" class="edge"><title>script.play_cartoons&#45;&gt;shell_command</title>
<path fill="none" stroke="black" d="M-5.63447,-195.834C-9.14259,-200.409 -13.2147,-205.973 -19.4788,-214.692"/>
<polygon fill="black" stroke="black" points="-23.9279,-220.898 -22.301,-212.836 -21.743,-217.85 -19.558,-214.802 -19.558,-214.802 -19.558,-214.802 -21.743,-217.85 -16.8151,-216.768 -23.9279,-220.898 -23.9279,-220.898"/>
<text text-anchor="middle" x="-86.9206" y="-199.971" font-family="arial" font-size="10.50" fill="#212121">shell_command.play_cartoons</text>
</g>
<!-- scene.lr_relax -->
<g id="node17" class="node"><title>scene.lr_relax</title>
<polygon fill="white" stroke="turquoise" points="-148.584,-145.102 -237.584,-145.102 -237.584,-109.102 -148.584,-109.102 -148.584,-145.102"/>
<text text-anchor="middle" x="-193.084" y="-124.702" font-family="arial" font-size="10.50" fill="#212121">scene.lr_relax</text>
</g>
<!-- scene.lr_relax&#45;&gt;light.hue_color_lamp_3 -->
<g id="edge15" class="edge"><title>scene.lr_relax&#45;&gt;light.hue_color_lamp_3</title>
<path fill="none" stroke="black" d="M-184.661,-109.049C-166.924,-71.8774 -157.158,-60.3285 -93.6043,1.63765"/>
<polygon fill="black" stroke="black" points="-88.1154,6.98494 -91.1324,-0.666121 -90.8015,4.36815 -93.4876,1.75135 -93.4876,1.75135 -93.4876,1.75135 -90.8015,4.36815 -95.8427,4.16883 -88.1154,6.98494 -88.1154,6.98494"/>
<text text-anchor="middle" x="-147.881" y="-49.7952" font-family="arial" font-size="10.50" fill="#212121">on</text>
</g>
<!-- scene.lr_relax&#45;&gt;light.hue_color_lamp_2 -->
<g id="edge16" class="edge"><title>scene.lr_relax&#45;&gt;light.hue_color_lamp_2</title>
<path fill="none" stroke="black" d="M-148.471,-118.642C-93.6577,-106.829 -68.5892,-91.8137 41.6272,-16.3775"/>
<polygon fill="black" stroke="black" points="47.9703,-12.0339 43.689,-19.0561 44.8762,-14.1527 41.7821,-16.2714 41.7821,-16.2714 41.7821,-16.2714 44.8762,-14.1527 39.8752,-13.4868 47.9703,-12.0339 47.9703,-12.0339"/>
<text text-anchor="middle" x="-51.0911" y="-77.4737" font-family="arial" font-size="10.50" fill="#212121">on</text>
</g>
<!-- scene.lr_relax&#45;&gt;light.hue_color_lamp_1 -->
<g id="edge17" class="edge"><title>scene.lr_relax&#45;&gt;light.hue_color_lamp_1</title>
<path fill="none" stroke="black" d="M-148.467,-144.551C-124.652,-152.142 -107.236,-152.434 -75.1465,-145.25"/>
<polygon fill="black" stroke="black" points="-67.6047,-143.491 -74.1424,-148.481 -71.2567,-144.343 -74.9088,-145.194 -74.9088,-145.194 -74.9088,-145.194 -71.2567,-144.343 -75.6752,-141.908 -67.6047,-143.491 -67.6047,-143.491"/>
<text text-anchor="middle" x="-114.348" y="-153.888" font-family="arial" font-size="10.50" fill="#212121">on</text>
</g>
<!-- script.refresh_devices -->
<g id="node18" class="node"><title>script.refresh_devices</title>
<polygon fill="white" stroke="brown" points="200.86,149.986 73.8597,149.986 73.8597,185.986 200.86,185.986 200.86,149.986"/>
<text text-anchor="middle" x="137.36" y="170.386" font-family="arial" font-size="10.50" fill="#212121">script.refresh_devices</text>
</g>
<!-- mqtt -->
<g id="node19" class="node"><title>mqtt</title>
<polygon fill="white" stroke="black" points="262.254,150.034 208.254,150.034 208.254,186.034 262.254,186.034 262.254,150.034"/>
<text text-anchor="middle" x="235.254" y="170.434" font-family="arial" font-size="10.50" fill="#212121">mqtt</text>
</g>
<!-- script.refresh_devices&#45;&gt;mqtt -->
<g id="edge18" class="edge"><title>script.refresh_devices&#45;&gt;mqtt</title>
<path fill="none" stroke="black" d="M201.019,161.546C201.165,161.551 201.31,161.557 201.456,161.563"/>
<polygon fill="black" stroke="black" points="207.858,161.889 200.539,158.137 204.113,161.698 200.368,161.508 200.368,161.508 200.368,161.508 204.113,161.698 200.196,164.878 207.858,161.889 207.858,161.889"/>
<text text-anchor="middle" x="230.402" y="157.961" font-family="arial" font-size="10.50" fill="#212121">mqtt.publish</text>
</g>
<!-- script.refresh_devices&#45;&gt;mqtt -->
<g id="edge19" class="edge"><title>script.refresh_devices&#45;&gt;mqtt</title>
<path fill="none" stroke="black" d="M201.012,174.489C201.158,174.483 201.304,174.477 201.45,174.472"/>
<polygon fill="black" stroke="black" points="207.852,174.152 200.193,171.155 204.107,174.339 200.361,174.526 200.361,174.526 200.361,174.526 204.107,174.339 200.53,177.897 207.852,174.152 207.852,174.152"/>
<text text-anchor="middle" x="230.395" y="170.874" font-family="arial" font-size="10.50" fill="#212121">mqtt.publish</text>
</g>
<!-- updater.updater -->
<g id="node20" class="node"><title>updater.updater</title>
<polygon fill="white" stroke="black" points="398.743,143.544 300.743,143.544 300.743,179.544 398.743,179.544 398.743,143.544"/>
<text text-anchor="middle" x="349.743" y="163.944" font-family="arial" font-size="10.50" fill="#212121">updater.updater</text>
</g>
<!-- updater.updater&#45;&gt;notify -->
<g id="edge20" class="edge"><title>updater.updater&#45;&gt;notify</title>
<path fill="none" stroke="black" d="M348.918,143.244C347.884,135.957 345.443,129.658 339.477,118.356"/>
<polygon fill="black" stroke="black" points="335.786,111.525 336.382,119.728 337.568,114.824 339.351,118.124 339.351,118.124 339.351,118.124 337.568,114.824 342.32,116.519 335.786,111.525 335.786,111.525"/>
<text text-anchor="middle" x="317.221" y="123.238" font-family="arial" font-size="10.50" fill="#212121">notify.justin</text>
</g>
<!-- script.play_all_tv -->
<g id="node21" class="node"><title>script.play_all_tv</title>
<polygon fill="white" stroke="brown" points="43.1619,-327.85 -57.8381,-327.85 -57.8381,-291.85 43.1619,-291.85 43.1619,-327.85"/>
<text text-anchor="middle" x="-7.33806" y="-307.45" font-family="arial" font-size="10.50" fill="#212121">script.play_all_tv</text>
</g>
<!-- script.play_all_tv&#45;&gt;shell_command -->
<g id="edge21" class="edge"><title>script.play_all_tv&#45;&gt;shell_command</title>
<path fill="none" stroke="black" d="M-14.5548,-291.766C-17.2189,-285.24 -20.2799,-277.966 -26.0871,-264.31"/>
<polygon fill="black" stroke="black" points="-29.1687,-257.068 -23.1264,-262.648 -27.7003,-260.519 -26.2319,-263.969 -26.2319,-263.969 -26.2319,-263.969 -27.7003,-260.519 -29.3374,-265.291 -29.1687,-257.068 -29.1687,-257.068"/>
<text text-anchor="middle" x="-85.2867" y="-278.043" font-family="arial" font-size="10.50" fill="#212121">shell_command.play_all_tv</text>
</g>
<!-- scene.lr_read -->
<g id="node22" class="node"><title>scene.lr_read</title>
<polygon fill="white" stroke="turquoise" points="-186.214,-7.90444 -274.214,-7.90444 -274.214,28.0956 -186.214,28.0956 -186.214,-7.90444"/>
<text text-anchor="middle" x="-230.214" y="12.4956" font-family="arial" font-size="10.50" fill="#212121">scene.lr_read</text>
</g>
<!-- scene.lr_read&#45;&gt;light.hue_color_lamp_3 -->
<g id="edge22" class="edge"><title>scene.lr_read&#45;&gt;light.hue_color_lamp_3</title>
<path fill="none" stroke="black" d="M-185.848,17.3247C-174.902,18.6326 -162.473,19.6655 -143.719,20.8778"/>
<polygon fill="black" stroke="black" points="-135.905,21.3712 -143.177,17.5302 -139.648,21.1348 -143.39,20.8985 -143.39,20.8985 -143.39,20.8985 -139.648,21.1348 -143.603,24.2668 -135.905,21.3712 -135.905,21.3712"/>
<text text-anchor="middle" x="-167.514" y="16.0728" font-family="arial" font-size="10.50" fill="#212121">on</text>
</g>
<!-- scene.lr_read&#45;&gt;light.hue_color_lamp_2 -->
<g id="edge23" class="edge"><title>scene.lr_read&#45;&gt;light.hue_color_lamp_2</title>
<path fill="none" stroke="black" d="M-185.986,7.54703C-140.048,5.14674 -109.63,4.91872 0.160983,5.63676"/>
<polygon fill="black" stroke="black" points="7.85587,5.68774 0.378441,2.26303 4.10596,5.66285 0.356038,5.63796 0.356038,5.63796 0.356038,5.63796 4.10596,5.66285 0.333635,9.01288 7.85587,5.68774 7.85587,5.68774"/>
<text text-anchor="middle" x="-95.6671" y="1.68193" font-family="arial" font-size="10.50" fill="#212121">on</text>
</g>
<!-- scene.lr_read&#45;&gt;light.hue_color_lamp_1 -->
<g id="edge24" class="edge"><title>scene.lr_read&#45;&gt;light.hue_color_lamp_1</title>
<path fill="none" stroke="black" d="M-217.179,-7.92783C-171.313,-70.9308 -155.805,-85.126 -75.6712,-106.811"/>
<polygon fill="black" stroke="black" points="-68.2364,-108.796 -76.3533,-110.122 -71.8594,-107.829 -75.4825,-106.861 -75.4825,-106.861 -75.4825,-106.861 -71.8594,-107.829 -74.6117,-103.601 -68.2364,-108.796 -68.2364,-108.796"/>
<text text-anchor="middle" x="-161.091" y="-79.6853" font-family="arial" font-size="10.50" fill="#212121">on</text>
</g>
<!-- scene.lr_nightlight -->
<g id="node23" class="node"><title>scene.lr_nightlight</title>
<polygon fill="white" stroke="turquoise" points="258.225,96.7064 149.225,96.7064 149.225,132.706 258.225,132.706 258.225,96.7064"/>
<text text-anchor="middle" x="203.725" y="117.106" font-family="arial" font-size="10.50" fill="#212121">scene.lr_nightlight</text>
</g>
<!-- scene.lr_nightlight&#45;&gt;light.hue_color_lamp_3 -->
<g id="edge25" class="edge"><title>scene.lr_nightlight&#45;&gt;light.hue_color_lamp_3</title>
<path fill="none" stroke="black" d="M149.009,107.962C107.779,101.156 76.8149,89.0353 -21.3677,46.2017"/>
<polygon fill="black" stroke="black" points="-28.2429,43.2002 -22.7197,49.2942 -24.8061,44.7006 -21.3694,46.2011 -21.3694,46.2011 -21.3694,46.2011 -24.8061,44.7006 -20.019,43.108 -28.2429,43.2002 -28.2429,43.2002"/>
<text text-anchor="middle" x="51.9837" y="76.6274" font-family="arial" font-size="10.50" fill="#212121">on</text>
</g>
<!-- scene.lr_nightlight&#45;&gt;light.hue_color_lamp_2 -->
<g id="edge26" class="edge"><title>scene.lr_nightlight&#45;&gt;light.hue_color_lamp_2</title>
<path fill="none" stroke="black" d="M190.062,96.6072C172.061,73.592 159.995,63.782 108.052,28.6977"/>
<polygon fill="black" stroke="black" points="101.517,24.2912 105.848,31.2824 104.626,26.3876 107.735,28.4841 107.735,28.4841 107.735,28.4841 104.626,26.3876 109.622,25.6858 101.517,24.2912 101.517,24.2912"/>
<text text-anchor="middle" x="142.137" y="53.358" font-family="arial" font-size="10.50" fill="#212121">on</text>
</g>
<!-- scene.lr_nightlight&#45;&gt;light.hue_color_lamp_1 -->
<g id="edge27" class="edge"><title>scene.lr_nightlight&#45;&gt;light.hue_color_lamp_1</title>
<path fill="none" stroke="black" d="M198.096,96.5489C165.807,-7.02133 156.79,-19.361 32.2357,-102.943"/>
<polygon fill="black" stroke="black" points="25.8281,-107.237 30.1791,-100.258 28.9432,-105.15 32.0582,-103.062 32.0582,-103.062 32.0582,-103.062 28.9432,-105.15 33.9373,-105.865 25.8281,-107.237 25.8281,-107.237"/>
<text text-anchor="middle" x="126.757" y="-31.8323" font-family="arial" font-size="10.50" fill="#212121">on</text>
</g>
<!-- scene.lr_off -->
<g id="node24" class="node"><title>scene.lr_off</title>
<polygon fill="white" stroke="turquoise" points="57.0933,133.405 -20.9067,133.405 -20.9067,169.405 57.0933,169.405 57.0933,133.405"/>
<text text-anchor="middle" x="18.0933" y="153.805" font-family="arial" font-size="10.50" fill="#212121">scene.lr_off</text>
</g>
<!-- scene.lr_off&#45;&gt;light.hue_color_lamp_3 -->
<g id="edge28" class="edge"><title>scene.lr_off&#45;&gt;light.hue_color_lamp_3</title>
<path fill="none" stroke="black" d="M-8.42233,133.358C-30.9522,116.429 -38.5681,102.339 -59.2563,50.7132"/>
<polygon fill="black" stroke="black" points="-62.1244,43.5289 -62.4781,51.7457 -60.734,47.0116 -59.3436,50.4943 -59.3436,50.4943 -59.3436,50.4943 -60.734,47.0116 -56.2092,49.243 -62.1244,43.5289 -62.1244,43.5289"/>
<text text-anchor="middle" x="-48.2713" y="99.9649" font-family="arial" font-size="10.50" fill="#212121">off</text>
</g>
<!-- scene.lr_off&#45;&gt;light.hue_color_lamp_2 -->
<g id="edge29" class="edge"><title>scene.lr_off&#45;&gt;light.hue_color_lamp_2</title>
<path fill="none" stroke="black" d="M36.026,132.99C62.7187,104.579 66.5918,91.9458 72.1936,31.8747"/>
<polygon fill="black" stroke="black" points="72.887,24.3095 68.8414,31.4701 72.5447,28.0439 72.2024,31.7782 72.2024,31.7782 72.2024,31.7782 72.5447,28.0439 75.5633,32.0863 72.887,24.3095 72.887,24.3095"/>
<text text-anchor="middle" x="59.1846" y="89.593" font-family="arial" font-size="10.50" fill="#212121">off</text>
</g>
<!-- scene.lr_off&#45;&gt;light.hue_color_lamp_1 -->
<g id="edge30" class="edge"><title>scene.lr_off&#45;&gt;light.hue_color_lamp_1</title>
<path fill="none" stroke="black" d="M24.211,133.191C60.9913,23.2384 60.8942,10.4367 10.1277,-100.287"/>
<polygon fill="black" stroke="black" points="6.87223,-107.373 6.9368,-99.1486 8.4379,-103.965 10.0036,-100.558 10.0036,-100.558 10.0036,-100.558 8.4379,-103.965 13.0704,-101.967 6.87223,-107.373 6.87223,-107.373"/>
<text text-anchor="middle" x="42.7989" y="5.18674" font-family="arial" font-size="10.50" fill="#212121">off</text>
</g>
</g>
</svg>
