<?xml version="1.0" encoding="UTF-8" standalone="no"?>
<!DOCTYPE svg PUBLIC "-//W3C//DTD SVG 1.1//EN"
 "http://www.w3.org/Graphics/SVG/1.1/DTD/svg11.dtd">
<!-- Generated by graphviz version 2.38.0 (20140413.2041)
 -->
<!-- Title: %3 Pages: 1 -->
<svg width="620pt" height="402pt"
 viewBox="0.00 0.00 620.10 402.46" xmlns="http://www.w3.org/2000/svg" xmlns:xlink="http://www.w3.org/1999/xlink">
<g id="graph0" class="graph" transform="scale(1 1) rotate(0) translate(244.496 203.991)">
<title>%3</title>
<polygon fill="#e5e5e5" stroke="none" points="-244.496,198.474 -244.496,-203.991 375.607,-203.991 375.607,198.474 -244.496,198.474"/>
<!-- script.refresh_devices -->
<g id="node1" class="node"><title>script.refresh_devices</title>
<polygon fill="white" stroke="brown" points="177.86,157.986 50.8597,157.986 50.8597,193.986 177.86,193.986 177.86,157.986"/>
<text text-anchor="middle" x="114.36" y="178.386" font-family="arial" font-size="10.50" fill="#212121">script.refresh_devices</text>
</g>
<!-- mqtt -->
<g id="node2" class="node"><title>mqtt</title>
<polygon fill="white" stroke="black" points="239.254,158.034 185.254,158.034 185.254,194.034 239.254,194.034 239.254,158.034"/>
<text text-anchor="middle" x="212.254" y="178.434" font-family="arial" font-size="10.50" fill="#212121">mqtt</text>
</g>
<!-- script.refresh_devices&#45;&gt;mqtt -->
<g id="edge1" class="edge"><title>script.refresh_devices&#45;&gt;mqtt</title>
<path fill="none" stroke="black" d="M178.019,169.546C178.165,169.551 178.31,169.557 178.456,169.563"/>
<polygon fill="black" stroke="black" points="184.858,169.889 177.539,166.137 181.113,169.698 177.368,169.508 177.368,169.508 177.368,169.508 181.113,169.698 177.196,172.878 184.858,169.889 184.858,169.889"/>
<text text-anchor="middle" x="207.402" y="165.961" font-family="arial" font-size="10.50" fill="#212121">mqtt.publish</text>
</g>
<!-- script.refresh_devices&#45;&gt;mqtt -->
<g id="edge2" class="edge"><title>script.refresh_devices&#45;&gt;mqtt</title>
<path fill="none" stroke="black" d="M178.012,182.489C178.158,182.483 178.304,182.477 178.45,182.472"/>
<polygon fill="black" stroke="black" points="184.852,182.152 177.193,179.155 181.107,182.339 177.361,182.526 177.361,182.526 177.361,182.526 181.107,182.339 177.53,185.897 184.852,182.152 184.852,182.152"/>
<text text-anchor="middle" x="178.395" y="190.874" font-family="arial" font-size="10.50" fill="#212121">mqtt.publish</text>
</g>
<!-- input_select.scene_livingroom -->
<g id="node3" class="node"><title>input_select.scene_livingroom</title>
<polygon fill="white" stroke="black" points="264.88,-199.684 99.8803,-199.684 99.8803,-163.684 264.88,-163.684 264.88,-199.684"/>
<text text-anchor="middle" x="182.38" y="-179.284" font-family="arial" font-size="10.50" fill="#212121">input_select.scene_livingroom</text>
</g>
<!-- input_select.scene_livingroom&#45;&gt;input_select.scene_livingroom -->
<g id="edge3" class="edge"><title>input_select.scene_livingroom&#45;&gt;input_select.scene_livingroom</title>
<path fill="none" stroke="black" d="M265.177,-187.599C275.837,-186.573 282.88,-184.602 282.88,-181.684 282.88,-179.541 279.082,-177.908 272.842,-176.786"/>
<polygon fill="black" stroke="black" points="265.177,-175.768 273.056,-173.409 268.894,-176.261 272.611,-176.755 272.611,-176.755 272.611,-176.755 268.894,-176.261 272.167,-180.101 265.177,-175.768 265.177,-175.768"/>
<text text-anchor="middle" x="344.88" y="-179.284" font-family="arial" font-size="10.50" fill="#212121">input_select.select_option</text>
</g>
<!-- {% if is_state( &quot;input_select.scene_livingroom&quot;, &quot;Nightlight&quot; ) %}
 &#160;scene.livingroom_nightlight
{%&#45;elif is_state( &quot;input_select.scene_livingroom&quot;, &quot;Dimmed&quot; ) %}
 &#160;scene.livingroom_dimmed
{%&#45;elif is_state( &quot;input_select.scene_livingroom&quot;, &quot;Relax&quot; ) %}
 &#160;scene.livingroom_relax
{%&#45;elif is_state( &quot;input_select.scene_livingroom&quot;, &quot;Read&quot; ) %}
 &#160;scene.livingroom_read
{%&#45;elif is_state( &quot;input_select.scene_livingroom&quot;, &quot;Bright&quot; ) %}
 &#160;scene.livingroom_concentrate
{%&#45;elif is_state( &quot;input_select.scene_livingroom&quot;, &quot;Off&quot; ) %}
 &#160;scene.livingroom_off
{% endif %}
 -->
<g id="node4" class="node"><title>{% if is_state( &quot;input_select.scene_livingroom&quot;, &quot;Nightlight&quot; ) %}
 &#160;scene.livingroom_nightlight
{%&#45;elif is_state( &quot;input_select.scene_livingroom&quot;, &quot;Dimmed&quot; ) %}
 &#160;scene.livingroom_dimmed
{%&#45;elif is_state( &quot;input_select.scene_livingroom&quot;, &quot;Relax&quot; ) %}
 &#160;scene.livingroom_relax
{%&#45;elif is_state( &quot;input_select.scene_livingroom&quot;, &quot;Read&quot; ) %}
 &#160;scene.livingroom_read
{%&#45;elif is_state( &quot;input_select.scene_livingroom&quot;, &quot;Bright&quot; ) %}
 &#160;scene.livingroom_concentrate
{%&#45;elif is_state( &quot;input_select.scene_livingroom&quot;, &quot;Off&quot; ) %}
 &#160;scene.livingroom_off
{% endif %}
</title>
<polygon fill="white" stroke="black" points="604.057,-263.677 281.057,-263.677 281.057,-99.6774 604.057,-99.6774 604.057,-263.677"/>
<text text-anchor="middle" x="442.557" y="-251.277" font-family="arial" font-size="10.50" fill="#212121">{% if is_state( &quot;input_select.scene_livingroom&quot;, &quot;Nightlight&quot; ) %}</text>
<text text-anchor="middle" x="442.557" y="-239.277" font-family="arial" font-size="10.50" fill="#212121"> &#160;scene.livingroom_nightlight</text>
<text text-anchor="middle" x="442.557" y="-227.277" font-family="arial" font-size="10.50" fill="#212121">{%&#45;elif is_state( &quot;input_select.scene_livingroom&quot;, &quot;Dimmed&quot; ) %}</text>
<text text-anchor="middle" x="442.557" y="-215.277" font-family="arial" font-size="10.50" fill="#212121"> &#160;scene.livingroom_dimmed</text>
<text text-anchor="middle" x="442.557" y="-203.277" font-family="arial" font-size="10.50" fill="#212121">{%&#45;elif is_state( &quot;input_select.scene_livingroom&quot;, &quot;Relax&quot; ) %}</text>
<text text-anchor="middle" x="442.557" y="-191.277" font-family="arial" font-size="10.50" fill="#212121"> &#160;scene.livingroom_relax</text>
<text text-anchor="middle" x="442.557" y="-179.277" font-family="arial" font-size="10.50" fill="#212121">{%&#45;elif is_state( &quot;input_select.scene_livingroom&quot;, &quot;Read&quot; ) %}</text>
<text text-anchor="middle" x="442.557" y="-167.277" font-family="arial" font-size="10.50" fill="#212121"> &#160;scene.livingroom_read</text>
<text text-anchor="middle" x="442.557" y="-155.277" font-family="arial" font-size="10.50" fill="#212121">{%&#45;elif is_state( &quot;input_select.scene_livingroom&quot;, &quot;Bright&quot; ) %}</text>
<text text-anchor="middle" x="442.557" y="-143.277" font-family="arial" font-size="10.50" fill="#212121"> &#160;scene.livingroom_concentrate</text>
<text text-anchor="middle" x="442.557" y="-131.277" font-family="arial" font-size="10.50" fill="#212121">{%&#45;elif is_state( &quot;input_select.scene_livingroom&quot;, &quot;Off&quot; ) %}</text>
<text text-anchor="middle" x="442.557" y="-119.277" font-family="arial" font-size="10.50" fill="#212121"> &#160;scene.livingroom_off</text>
<text text-anchor="middle" x="442.557" y="-107.277" font-family="arial" font-size="10.50" fill="#212121">{% endif %}</text>
</g>
<!-- input_select.scene_livingroom&#45;&gt;{% if is_state( &quot;input_select.scene_livingroom&quot;, &quot;Nightlight&quot; ) %}
 &#160;scene.livingroom_nightlight
{%&#45;elif is_state( &quot;input_select.scene_livingroom&quot;, &quot;Dimmed&quot; ) %}
 &#160;scene.livingroom_dimmed
{%&#45;elif is_state( &quot;input_select.scene_livingroom&quot;, &quot;Relax&quot; ) %}
 &#160;scene.livingroom_relax
{%&#45;elif is_state( &quot;input_select.scene_livingroom&quot;, &quot;Read&quot; ) %}
 &#160;scene.livingroom_read
{%&#45;elif is_state( &quot;input_select.scene_livingroom&quot;, &quot;Bright&quot; ) %}
 &#160;scene.livingroom_concentrate
{%&#45;elif is_state( &quot;input_select.scene_livingroom&quot;, &quot;Off&quot; ) %}
 &#160;scene.livingroom_off
{% endif %}
 -->
<g id="edge4" class="edge"><title>input_select.scene_livingroom&#45;&gt;{% if is_state( &quot;input_select.scene_livingroom&quot;, &quot;Nightlight&quot; ) %}
 &#160;scene.livingroom_nightlight
{%&#45;elif is_state( &quot;input_select.scene_livingroom&quot;, &quot;Dimmed&quot; ) %}
 &#160;scene.livingroom_dimmed
{%&#45;elif is_state( &quot;input_select.scene_livingroom&quot;, &quot;Relax&quot; ) %}
 &#160;scene.livingroom_relax
{%&#45;elif is_state( &quot;input_select.scene_livingroom&quot;, &quot;Read&quot; ) %}
 &#160;scene.livingroom_read
{%&#45;elif is_state( &quot;input_select.scene_livingroom&quot;, &quot;Bright&quot; ) %}
 &#160;scene.livingroom_concentrate
{%&#45;elif is_state( &quot;input_select.scene_livingroom&quot;, &quot;Off&quot; ) %}
 &#160;scene.livingroom_off
{% endif %}
</title>
<path fill="none" stroke="black" d="M264.968,-181.684C267.585,-181.684 270.276,-181.684 273.062,-181.684"/>
<polygon fill="black" stroke="black" points="280.674,-181.683 273.174,-185.059 276.924,-181.683 273.174,-181.684 273.174,-181.684 273.174,-181.684 276.924,-181.683 273.174,-178.309 280.674,-181.683 280.674,-181.683"/>
<text text-anchor="middle" x="238.041" y="-185.284" font-family="arial" font-size="10.50" fill="#212121">scene.turn_on</text>
</g>
<!-- light.hue_color_lamp_1 -->
<g id="node5" class="node"><title>light.hue_color_lamp_1</title>
<polygon fill="white" stroke="yellow" points="-23.8433,-3.67101 -156.843,-3.67101 -156.843,32.329 -23.8433,32.329 -23.8433,-3.67101"/>
<text text-anchor="middle" x="-90.3433" y="16.729" font-family="arial" font-size="10.50" fill="#212121">light.hue_color_lamp_1</text>
</g>
<!-- scene.lr_off -->
<g id="node6" class="node"><title>scene.lr_off</title>
<polygon fill="white" stroke="turquoise" points="223.569,-96.3423 145.569,-96.3423 145.569,-60.3423 223.569,-60.3423 223.569,-96.3423"/>
<text text-anchor="middle" x="184.569" y="-75.9423" font-family="arial" font-size="10.50" fill="#212121">scene.lr_off</text>
</g>
<!-- scene.lr_off&#45;&gt;light.hue_color_lamp_1 -->
<g id="edge5" class="edge"><title>scene.lr_off&#45;&gt;light.hue_color_lamp_1</title>
<path fill="none" stroke="black" d="M145.41,-72.6459C95.6663,-64.6086 69.7286,-54.9379 -41.377,-6.89965"/>
<polygon fill="black" stroke="black" points="-48.4687,-3.8315 -40.2451,-3.71205 -45.027,-5.32054 -41.5853,-6.80959 -41.5853,-6.80959 -41.5853,-6.80959 -45.027,-5.32054 -42.9254,-9.90712 -48.4687,-3.8315 -48.4687,-3.8315"/>
<text text-anchor="middle" x="39.7806" y="-47.4705" font-family="arial" font-size="10.50" fill="#212121">off</text>
</g>
<!-- light.hue_color_lamp_3 -->
<g id="node7" class="node"><title>light.hue_color_lamp_3</title>
<polygon fill="white" stroke="yellow" points="120.985,-2.45629 -12.0153,-2.45629 -12.0153,33.5437 120.985,33.5437 120.985,-2.45629"/>
<text text-anchor="middle" x="54.4847" y="17.9437" font-family="arial" font-size="10.50" fill="#212121">light.hue_color_lamp_3</text>
</g>
<!-- scene.lr_off&#45;&gt;light.hue_color_lamp_3 -->
<g id="edge6" class="edge"><title>scene.lr_off&#45;&gt;light.hue_color_lamp_3</title>
<path fill="none" stroke="black" d="M167.701,-60.2523C150.619,-42.7521 137.63,-33.7168 91.7372,-6.44355"/>
<polygon fill="black" stroke="black" points="85.0392,-2.47135 93.2117,-3.39418 88.2647,-4.38422 91.4901,-6.29709 91.4901,-6.29709 91.4901,-6.29709 88.2647,-4.38422 89.7686,-9.2 85.0392,-2.47135 85.0392,-2.47135"/>
<text text-anchor="middle" x="121.751" y="-32.3675" font-family="arial" font-size="10.50" fill="#212121">off</text>
</g>
<!-- light.hue_color_lamp_2 -->
<g id="node8" class="node"><title>light.hue_color_lamp_2</title>
<polygon fill="white" stroke="yellow" points="9.04022,-139.779 -123.96,-139.779 -123.96,-103.779 9.04022,-103.779 9.04022,-139.779"/>
<text text-anchor="middle" x="-57.4598" y="-119.379" font-family="arial" font-size="10.50" fill="#212121">light.hue_color_lamp_2</text>
</g>
<!-- scene.lr_off&#45;&gt;light.hue_color_lamp_2 -->
<g id="edge7" class="edge"><title>scene.lr_off&#45;&gt;light.hue_color_lamp_2</title>
<path fill="none" stroke="black" d="M157.314,-96.4088C104.712,-130.62 84.2332,-137.335 16.787,-130.75"/>
<polygon fill="black" stroke="black" points="9.22344,-129.978 17.0275,-127.382 12.9541,-130.359 16.6847,-130.739 16.6847,-130.739 16.6847,-130.739 12.9541,-130.359 16.3418,-134.097 9.22344,-129.978 9.22344,-129.978"/>
<text text-anchor="middle" x="79.9172" y="-133.886" font-family="arial" font-size="10.50" fill="#212121">off</text>
</g>
<!-- script -->
<g id="node9" class="node"><title>script</title>
<polygon fill="white" stroke="brown" points="-181.605,149.68 -235.605,149.68 -235.605,185.68 -181.605,185.68 -181.605,149.68"/>
<text text-anchor="middle" x="-208.605" y="170.08" font-family="arial" font-size="10.50" fill="#212121">script</text>
</g>
<!-- time -->
<g id="node10" class="node"><title>time</title>
<polygon fill="white" stroke="black" points="-110.395,160.32 -164.395,160.32 -164.395,196.32 -110.395,196.32 -110.395,160.32"/>
<text text-anchor="middle" x="-137.395" y="180.72" font-family="arial" font-size="10.50" fill="#212121">time</text>
</g>
<!-- script.play_cartoons -->
<g id="node11" class="node"><title>script.play_cartoons</title>
<polygon fill="white" stroke="brown" points="256.618,-20.9335 138.618,-20.9335 138.618,15.0665 256.618,15.0665 256.618,-20.9335"/>
<text text-anchor="middle" x="197.618" y="-0.533532" font-family="arial" font-size="10.50" fill="#212121">script.play_cartoons</text>
</g>
<!-- shell_command -->
<g id="node12" class="node"><title>shell_command</title>
<polygon fill="white" stroke="black" points="289.639,36.3895 193.639,36.3895 193.639,72.3895 289.639,72.3895 289.639,36.3895"/>
<text text-anchor="middle" x="241.639" y="56.7895" font-family="arial" font-size="10.50" fill="#212121">shell_command</text>
</g>
<!-- script.play_cartoons&#45;&gt;shell_command -->
<g id="edge9" class="edge"><title>script.play_cartoons&#45;&gt;shell_command</title>
<path fill="none" stroke="black" d="M221.134,15.2972C223.826,18.866 226.438,23.3246 229.62,29.5172"/>
<polygon fill="black" stroke="black" points="233.016,36.3192 232.686,28.1014 231.341,32.964 229.666,29.6088 229.666,29.6088 229.666,29.6088 231.341,32.964 226.646,31.1163 233.016,36.3192 233.016,36.3192"/>
<text text-anchor="middle" x="299.607" y="22.0934" font-family="arial" font-size="10.50" fill="#212121">shell_command.play_cartoons</text>
</g>
<!-- scene.lr_concentrate -->
<g id="node13" class="node"><title>scene.lr_concentrate</title>
<polygon fill="white" stroke="turquoise" points="133.698,-147.07 11.6975,-147.07 11.6975,-111.07 133.698,-111.07 133.698,-147.07"/>
<text text-anchor="middle" x="72.6975" y="-126.67" font-family="arial" font-size="10.50" fill="#212121">scene.lr_concentrate</text>
</g>
<!-- scene.lr_concentrate&#45;&gt;light.hue_color_lamp_1 -->
<g id="edge10" class="edge"><title>scene.lr_concentrate&#45;&gt;light.hue_color_lamp_1</title>
<path fill="none" stroke="black" d="M24.4598,-111.061C-10.1594,-95.4707 -25.9112,-76.5494 -73.1054,-10.0478"/>
<polygon fill="black" stroke="black" points="-77.4658,-3.89525 -70.3755,-8.06279 -75.2974,-6.95479 -73.1291,-10.0143 -73.1291,-10.0143 -73.1291,-10.0143 -75.2974,-6.95479 -75.8827,-11.9659 -77.4658,-3.89525 -77.4658,-3.89525"/>
<text text-anchor="middle" x="-40.409" y="-66.6993" font-family="arial" font-size="10.50" fill="#212121">on</text>
</g>
<!-- scene.lr_concentrate&#45;&gt;light.hue_color_lamp_3 -->
<g id="edge11" class="edge"><title>scene.lr_concentrate&#45;&gt;light.hue_color_lamp_3</title>
<path fill="none" stroke="black" d="M76.9036,-110.957C83.8576,-78.9698 81.9851,-67.1811 63.0228,-9.98008"/>
<polygon fill="black" stroke="black" points="60.625,-2.7748 66.1956,-8.82542 61.8091,-6.33296 62.9932,-9.89112 62.9932,-9.89112 62.9932,-9.89112 61.8091,-6.33296 59.7909,-10.9568 60.625,-2.7748 60.625,-2.7748"/>
<text text-anchor="middle" x="70.1605" y="-58.3405" font-family="arial" font-size="10.50" fill="#212121">on</text>
</g>
<!-- scene.lr_concentrate&#45;&gt;light.hue_color_lamp_2 -->
<g id="edge12" class="edge"><title>scene.lr_concentrate&#45;&gt;light.hue_color_lamp_2</title>
<path fill="none" stroke="black" d="M11.4855,-144.904C6.03223,-144.734 0.548184,-143.837 -5.583,-142.178"/>
<polygon fill="black" stroke="black" points="-13.1147,-139.879 -4.9561,-138.841 -9.52803,-140.974 -5.94137,-142.069 -5.94137,-142.069 -5.94137,-142.069 -9.52803,-140.974 -6.92663,-145.297 -13.1147,-139.879 -13.1147,-139.879"/>
<text text-anchor="middle" x="-7.32264" y="-146.939" font-family="arial" font-size="10.50" fill="#212121">on</text>
</g>
<!-- event -->
<g id="node14" class="node"><title>event</title>
<polygon fill="white" stroke="black" points="292.743,104.544 238.743,104.544 238.743,140.544 292.743,140.544 292.743,104.544"/>
<text text-anchor="middle" x="265.743" y="124.944" font-family="arial" font-size="10.50" fill="#212121">event</text>
</g>
<!-- event&#45;&gt;shell_command -->
<g id="edge13" class="edge"><title>event&#45;&gt;shell_command</title>
<path fill="none" stroke="black" d="M264.738,104.491C263.655,97.2713 261.221,90.9626 255.317,79.5752"/>
<polygon fill="black" stroke="black" points="251.667,72.6884 252.197,80.8957 253.423,76.0018 255.179,79.3151 255.179,79.3151 255.179,79.3151 253.423,76.0018 258.161,77.7345 251.667,72.6884 251.667,72.6884"/>
<text text-anchor="middle" x="182.522" y="84.5114" font-family="arial" font-size="10.50" fill="#212121">shell_command.generate_graph</text>
</g>
<!-- scene.lr_read -->
<g id="node15" class="node"><title>scene.lr_read</title>
<polygon fill="white" stroke="turquoise" points="-152.496,-113.077 -240.496,-113.077 -240.496,-77.0774 -152.496,-77.0774 -152.496,-113.077"/>
<text text-anchor="middle" x="-196.496" y="-92.6774" font-family="arial" font-size="10.50" fill="#212121">scene.lr_read</text>
</g>
<!-- scene.lr_read&#45;&gt;light.hue_color_lamp_1 -->
<g id="edge14" class="edge"><title>scene.lr_read&#45;&gt;light.hue_color_lamp_1</title>
<path fill="none" stroke="black" d="M-186.228,-76.6915C-172.637,-53.4182 -162.704,-43.5234 -119.255,-8.69405"/>
<polygon fill="black" stroke="black" points="-113.196,-3.84849 -116.945,-11.1688 -116.125,-6.19078 -119.053,-8.53308 -119.053,-8.53308 -119.053,-8.53308 -116.125,-6.19078 -121.161,-5.8974 -113.196,-3.84849 -113.196,-3.84849"/>
<text text-anchor="middle" x="-159.605" y="-40.4061" font-family="arial" font-size="10.50" fill="#212121">on</text>
</g>
<!-- scene.lr_read&#45;&gt;light.hue_color_lamp_3 -->
<g id="edge15" class="edge"><title>scene.lr_read&#45;&gt;light.hue_color_lamp_3</title>
<path fill="none" stroke="black" d="M-152.253,-82.6953C-111.908,-70.4048 -84.7645,-57.2056 13.0097,-6.1483"/>
<polygon fill="black" stroke="black" points="19.8622,-2.56846 14.7774,-9.03267 16.5385,-4.30486 13.2147,-6.04126 13.2147,-6.04126 13.2147,-6.04126 16.5385,-4.30486 11.6519,-3.04985 19.8622,-2.56846 19.8622,-2.56846"/>
<text text-anchor="middle" x="-70.943" y="-49.6131" font-family="arial" font-size="10.50" fill="#212121">on</text>
</g>
<!-- scene.lr_read&#45;&gt;light.hue_color_lamp_2 -->
<g id="edge16" class="edge"><title>scene.lr_read&#45;&gt;light.hue_color_lamp_2</title>
<path fill="none" stroke="black" d="M-168.164,-113.282C-156.102,-120.09 -146.165,-123.475 -132.051,-124.648"/>
<polygon fill="black" stroke="black" points="-124.257,-125.067 -131.927,-128.035 -128.001,-124.866 -131.746,-124.665 -131.746,-124.665 -131.746,-124.665 -128.001,-124.866 -131.565,-121.294 -124.257,-125.067 -124.257,-125.067"/>
<text text-anchor="middle" x="-153.555" y="-125.789" font-family="arial" font-size="10.50" fill="#212121">on</text>
</g>
<!-- scene.lr_relax -->
<g id="node16" class="node"><title>scene.lr_relax</title>
<polygon fill="white" stroke="turquoise" points="-145.169,97.2445 -234.169,97.2445 -234.169,133.245 -145.169,133.245 -145.169,97.2445"/>
<text text-anchor="middle" x="-189.669" y="117.645" font-family="arial" font-size="10.50" fill="#212121">scene.lr_relax</text>
</g>
<!-- scene.lr_relax&#45;&gt;light.hue_color_lamp_1 -->
<g id="edge17" class="edge"><title>scene.lr_relax&#45;&gt;light.hue_color_lamp_1</title>
<path fill="none" stroke="black" d="M-178.408,96.9918C-166.039,77.956 -156.147,68.3348 -118.214,37.1209"/>
<polygon fill="black" stroke="black" points="-112.41,32.3552 -120.348,34.5063 -115.308,34.7349 -118.206,37.1147 -118.206,37.1147 -118.206,37.1147 -115.308,34.7349 -116.064,39.723 -112.41,32.3552 -112.41,32.3552"/>
<text text-anchor="middle" x="-154.342" y="58.6064" font-family="arial" font-size="10.50" fill="#212121">on</text>
</g>
<!-- scene.lr_relax&#45;&gt;light.hue_color_lamp_3 -->
<g id="edge18" class="edge"><title>scene.lr_relax&#45;&gt;light.hue_color_lamp_3</title>
<path fill="none" stroke="black" d="M-144.942,107.72C-103.608,99.3694 -77.8843,87.0699 14.2263,37.3382"/>
<polygon fill="black" stroke="black" points="20.9741,33.6924 12.7713,34.2883 17.6749,35.475 14.3756,37.2576 14.3756,37.2576 14.3756,37.2576 17.6749,35.475 15.98,40.2269 20.9741,33.6924 20.9741,33.6924"/>
<text text-anchor="middle" x="-65.7364" y="72.4548" font-family="arial" font-size="10.50" fill="#212121">on</text>
</g>
<!-- scene.lr_relax&#45;&gt;light.hue_color_lamp_2 -->
<g id="edge19" class="edge"><title>scene.lr_relax&#45;&gt;light.hue_color_lamp_2</title>
<path fill="none" stroke="black" d="M-187.873,96.9962C-178.099,-0.531158 -172.325,-12.8602 -82.1802,-98.4183"/>
<polygon fill="black" stroke="black" points="-76.6919,-103.62 -84.4572,-100.91 -79.4137,-101.04 -82.1356,-98.4606 -82.1356,-98.4606 -82.1356,-98.4606 -79.4137,-101.04 -79.8139,-96.011 -76.6919,-103.62 -76.6919,-103.62"/>
<text text-anchor="middle" x="-162.696" y="-23.3793" font-family="arial" font-size="10.50" fill="#212121">on</text>
</g>
<!-- scene.lr_nightlight -->
<g id="node17" class="node"><title>scene.lr_nightlight</title>
<polygon fill="white" stroke="turquoise" points="216.767,102.036 107.767,102.036 107.767,138.036 216.767,138.036 216.767,102.036"/>
<text text-anchor="middle" x="162.267" y="122.436" font-family="arial" font-size="10.50" fill="#212121">scene.lr_nightlight</text>
</g>
<!-- scene.lr_nightlight&#45;&gt;light.hue_color_lamp_1 -->
<g id="edge20" class="edge"><title>scene.lr_nightlight&#45;&gt;light.hue_color_lamp_1</title>
<path fill="none" stroke="black" d="M107.572,113.64C64.8352,106.345 37.1228,91.5443 -53.8594,36.4742"/>
<polygon fill="black" stroke="black" points="-60.5205,32.4391 -55.8544,39.2117 -57.3131,34.3821 -54.1057,36.325 -54.1057,36.325 -54.1057,36.325 -57.3131,34.3821 -52.357,33.4383 -60.5205,32.4391 -60.5205,32.4391"/>
<text text-anchor="middle" x="13.551" y="76.3533" font-family="arial" font-size="10.50" fill="#212121">on</text>
</g>
<!-- scene.lr_nightlight&#45;&gt;light.hue_color_lamp_3 -->
<g id="edge21" class="edge"><title>scene.lr_nightlight&#45;&gt;light.hue_color_lamp_3</title>
<path fill="none" stroke="black" d="M149.134,101.735C134.998,82.8487 124.088,72.7316 82.458,38.4719"/>
<polygon fill="black" stroke="black" points="76.6618,33.7083 80.3132,41.0777 79.5589,36.0893 82.4561,38.4703 82.4561,38.4703 82.4561,38.4703 79.5589,36.0893 84.599,35.8629 76.6618,33.7083 76.6618,33.7083"/>
<text text-anchor="middle" x="108.214" y="61.961" font-family="arial" font-size="10.50" fill="#212121">on</text>
</g>
<!-- scene.lr_nightlight&#45;&gt;light.hue_color_lamp_2 -->
<g id="edge22" class="edge"><title>scene.lr_nightlight&#45;&gt;light.hue_color_lamp_2</title>
<path fill="none" stroke="black" d="M155.947,101.875C119.632,-1.92938 109.967,-14.1737 -22.5909,-99.4345"/>
<polygon fill="black" stroke="black" points="-28.9967,-103.55 -24.5113,-96.6567 -25.8418,-101.523 -22.6869,-99.4962 -22.6869,-99.4962 -22.6869,-99.4962 -25.8418,-101.523 -20.8624,-102.336 -28.9967,-103.55 -28.9967,-103.55"/>
<text text-anchor="middle" x="77.8579" y="-27.6726" font-family="arial" font-size="10.50" fill="#212121">on</text>
</g>
<!-- device_tracker.bigdrakar_nicole -->
<g id="node18" class="node"><title>device_tracker.bigdrakar_nicole</title>
<polygon fill="white" stroke="purple" points="19.9676,-199.991 -153.032,-199.991 -153.032,-163.991 19.9676,-163.991 19.9676,-199.991"/>
<text text-anchor="middle" x="-66.5324" y="-179.591" font-family="arial" font-size="10.50" fill="#212121">device_tracker.bigdrakar_nicole</text>
</g>
<!-- notify -->
<g id="node19" class="node"><title>notify</title>
<polygon fill="white" stroke="black" points="83.4588,-199.989 29.4588,-199.989 29.4588,-163.989 83.4588,-163.989 83.4588,-199.989"/>
<text text-anchor="middle" x="56.4588" y="-179.589" font-family="arial" font-size="10.50" fill="#212121">notify</text>
</g>
<!-- device_tracker.bigdrakar_nicole&#45;&gt;notify -->
<g id="edge23" class="edge"><title>device_tracker.bigdrakar_nicole&#45;&gt;notify</title>
<path fill="none" stroke="black" d="M20.2267,-181.99C20.7251,-181.99 21.2187,-181.99 21.7082,-181.99"/>
<polygon fill="black" stroke="black" points="29.3876,-181.99 21.8877,-185.365 25.6376,-181.99 21.8876,-181.99 21.8876,-181.99 21.8876,-181.99 25.6376,-181.99 21.8875,-178.615 29.3876,-181.99 29.3876,-181.99"/>
<text text-anchor="middle" x="48.1623" y="-185.59" font-family="arial" font-size="10.50" fill="#212121">notify.justin</text>
</g>
<!-- scene.lr_dimmed -->
<g id="node20" class="node"><title>scene.lr_dimmed</title>
<polygon fill="white" stroke="turquoise" points="34.0105,126.707 -68.9895,126.707 -68.9895,162.707 34.0105,162.707 34.0105,126.707"/>
<text text-anchor="middle" x="-17.4895" y="147.107" font-family="arial" font-size="10.50" fill="#212121">scene.lr_dimmed</text>
</g>
<!-- scene.lr_dimmed&#45;&gt;light.hue_color_lamp_1 -->
<g id="edge24" class="edge"><title>scene.lr_dimmed&#45;&gt;light.hue_color_lamp_1</title>
<path fill="none" stroke="black" d="M-40.6694,126.63C-66.7447,105.089 -72.3143,92.3691 -84.5112,39.9148"/>
<polygon fill="black" stroke="black" points="-86.1966,32.6049 -87.8002,40.6714 -85.354,36.259 -84.5115,39.9131 -84.5115,39.9131 -84.5115,39.9131 -85.354,36.259 -81.2228,39.1549 -86.1966,32.6049 -86.1966,32.6049"/>
<text text-anchor="middle" x="-79.2979" y="79.3709" font-family="arial" font-size="10.50" fill="#212121">on</text>
</g>
<!-- scene.lr_dimmed&#45;&gt;light.hue_color_lamp_3 -->
<g id="edge25" class="edge"><title>scene.lr_dimmed&#45;&gt;light.hue_color_lamp_3</title>
<path fill="none" stroke="black" d="M4.52156,126.681C26.5608,107.278 32.3872,93.9281 47.3104,41.2112"/>
<polygon fill="black" stroke="black" points="49.3778,33.8684 44.0964,40.173 48.3615,37.478 47.3451,41.0877 47.3451,41.0877 47.3451,41.0877 48.3615,37.478 50.5938,42.0024 49.3778,33.8684 49.3778,33.8684"/>
<text text-anchor="middle" x="27.8909" y="79.1337" font-family="arial" font-size="10.50" fill="#212121">on</text>
</g>
<!-- scene.lr_dimmed&#45;&gt;light.hue_color_lamp_2 -->
<g id="edge26" class="edge"><title>scene.lr_dimmed&#45;&gt;light.hue_color_lamp_2</title>
<path fill="none" stroke="black" d="M-28.1173,126.376C-86.5753,25.2372 -89.1672,12.4723 -63.5405,-96.2467"/>
<polygon fill="black" stroke="black" points="-61.812,-103.549 -66.8239,-97.0278 -62.6758,-99.8994 -63.5397,-96.2503 -63.5397,-96.2503 -63.5397,-96.2503 -62.6758,-99.8994 -60.2555,-95.4728 -61.812,-103.549 -61.812,-103.549"/>
<text text-anchor="middle" x="-84.1775" y="12.2365" font-family="arial" font-size="10.50" fill="#212121">on</text>
</g>
</g>
</svg>
