<?xml version="1.0" encoding="UTF-8" standalone="no"?>
<!DOCTYPE svg PUBLIC "-//W3C//DTD SVG 1.1//EN"
 "http://www.w3.org/Graphics/SVG/1.1/DTD/svg11.dtd">
<!-- Generated by graphviz version 2.38.0 (20140413.2041)
 -->
<!-- Title: %3 Pages: 1 -->
<svg width="838pt" height="495pt"
 viewBox="0.00 0.00 837.86 494.50" xmlns="http://www.w3.org/2000/svg" xmlns:xlink="http://www.w3.org/1999/xlink">
<g id="graph0" class="graph" transform="scale(1 1) rotate(0) translate(234.799 324.934)">
<title>%3</title>
<polygon fill="#e5e5e5" stroke="none" points="-234.799,169.57 -234.799,-324.934 603.057,-324.934 603.057,169.57 -234.799,169.57"/>
<!-- device_tracker.bigdrakar_nicole -->
<g id="node1" class="node"><title>device_tracker.bigdrakar_nicole</title>
<polygon fill="white" stroke="purple" points="349.968,-50.991 176.968,-50.991 176.968,-14.991 349.968,-14.991 349.968,-50.991"/>
<text text-anchor="middle" x="263.468" y="-30.591" font-family="arial" font-size="10.50" fill="#212121">device_tracker.bigdrakar_nicole</text>
</g>
<!-- notify -->
<g id="node2" class="node"><title>notify</title>
<polygon fill="white" stroke="black" points="413.459,-50.9894 359.459,-50.9894 359.459,-14.9894 413.459,-14.9894 413.459,-50.9894"/>
<text text-anchor="middle" x="386.459" y="-30.5894" font-family="arial" font-size="10.50" fill="#212121">notify</text>
</g>
<!-- device_tracker.bigdrakar_nicole&#45;&gt;notify -->
<g id="edge1" class="edge"><title>device_tracker.bigdrakar_nicole&#45;&gt;notify</title>
<path fill="none" stroke="black" d="M350.227,-32.9901C350.725,-32.9901 351.219,-32.9901 351.708,-32.9901"/>
<polygon fill="black" stroke="black" points="359.388,-32.99 351.888,-36.3652 355.638,-32.9901 351.888,-32.9902 351.888,-32.9902 351.888,-32.9902 355.638,-32.9901 351.888,-29.6152 359.388,-32.99 359.388,-32.99"/>
<text text-anchor="middle" x="351.662" y="-24.5901" font-family="arial" font-size="10.50" fill="#212121">notify.justin</text>
</g>
<!-- scene.lr_read -->
<g id="node3" class="node"><title>scene.lr_read</title>
<polygon fill="white" stroke="turquoise" points="-159.655,-106.321 -247.655,-106.321 -247.655,-70.3209 -159.655,-70.3209 -159.655,-106.321"/>
<text text-anchor="middle" x="-203.655" y="-85.9209" font-family="arial" font-size="10.50" fill="#212121">scene.lr_read</text>
</g>
<!-- light.hue_color_lamp_2 -->
<g id="node4" class="node"><title>light.hue_color_lamp_2</title>
<polygon fill="white" stroke="yellow" points="-8.74012,-4.42587 -141.74,-4.42587 -141.74,31.5741 -8.74012,31.5741 -8.74012,-4.42587"/>
<text text-anchor="middle" x="-75.2401" y="15.9741" font-family="arial" font-size="10.50" fill="#212121">light.hue_color_lamp_2</text>
</g>
<!-- scene.lr_read&#45;&gt;light.hue_color_lamp_2 -->
<g id="edge2" class="edge"><title>scene.lr_read&#45;&gt;light.hue_color_lamp_2</title>
<path fill="none" stroke="black" d="M-188.528,-70.25C-171.053,-50.1789 -158.57,-40.6278 -109.725,-8.78312"/>
<polygon fill="black" stroke="black" points="-103.255,-4.57224 -107.7,-11.492 -106.398,-6.61779 -109.541,-8.66334 -109.541,-8.66334 -109.541,-8.66334 -106.398,-6.61779 -111.382,-5.83465 -103.255,-4.57224 -103.255,-4.57224"/>
<text text-anchor="middle" x="-154.709" y="-38.1728" font-family="arial" font-size="10.50" fill="#212121">on</text>
</g>
<!-- light.hue_color_lamp_3 -->
<g id="node5" class="node"><title>light.hue_color_lamp_3</title>
<polygon fill="white" stroke="yellow" points="140.982,0.246801 7.98161,0.246801 7.98161,36.2468 140.982,36.2468 140.982,0.246801"/>
<text text-anchor="middle" x="74.4816" y="20.6468" font-family="arial" font-size="10.50" fill="#212121">light.hue_color_lamp_3</text>
</g>
<!-- scene.lr_read&#45;&gt;light.hue_color_lamp_3 -->
<g id="edge3" class="edge"><title>scene.lr_read&#45;&gt;light.hue_color_lamp_3</title>
<path fill="none" stroke="black" d="M-159.602,-79.5806C-111.267,-68.9973 -83.2443,-56.9543 29.7204,-3.12319"/>
<polygon fill="black" stroke="black" points="36.5732,0.143869 31.2557,-6.13026 33.1882,-1.46994 29.8032,-3.08376 29.8032,-3.08376 29.8032,-3.08376 33.1882,-1.46994 28.3508,-0.0372545 36.5732,0.143869 36.5732,0.143869"/>
<text text-anchor="middle" x="-65.8591" y="-48.3559" font-family="arial" font-size="10.50" fill="#212121">on</text>
</g>
<!-- light.hue_color_lamp_1 -->
<g id="node6" class="node"><title>light.hue_color_lamp_1</title>
<polygon fill="white" stroke="yellow" points="119.721,-141.788 -13.2795,-141.788 -13.2795,-105.788 119.721,-105.788 119.721,-141.788"/>
<text text-anchor="middle" x="53.2205" y="-121.388" font-family="arial" font-size="10.50" fill="#212121">light.hue_color_lamp_1</text>
</g>
<!-- scene.lr_read&#45;&gt;light.hue_color_lamp_1 -->
<g id="edge4" class="edge"><title>scene.lr_read&#45;&gt;light.hue_color_lamp_1</title>
<path fill="none" stroke="black" d="M-173.505,-106.592C-115.806,-140.849 -94.0256,-146.689 -21.1542,-136.124"/>
<polygon fill="black" stroke="black" points="-13.462,-134.978 -20.3827,-139.421 -17.171,-135.531 -20.8801,-136.083 -20.8801,-136.083 -20.8801,-136.083 -17.171,-135.531 -21.3775,-132.745 -13.462,-134.978 -13.462,-134.978"/>
<text text-anchor="middle" x="-102.817" y="-142.941" font-family="arial" font-size="10.50" fill="#212121">on</text>
</g>
<!-- script -->
<g id="node7" class="node"><title>script</title>
<polygon fill="white" stroke="brown" points="123.395,152.68 69.3952,152.68 69.3952,188.68 123.395,188.68 123.395,152.68"/>
<text text-anchor="middle" x="96.3952" y="173.08" font-family="arial" font-size="10.50" fill="#212121">script</text>
</g>
<!-- time -->
<g id="node8" class="node"><title>time</title>
<polygon fill="white" stroke="black" points="194.605,163.32 140.605,163.32 140.605,199.32 194.605,199.32 194.605,163.32"/>
<text text-anchor="middle" x="167.605" y="183.72" font-family="arial" font-size="10.50" fill="#212121">time</text>
</g>
<!-- scene.lr_off -->
<g id="node9" class="node"><title>scene.lr_off</title>
<polygon fill="white" stroke="turquoise" points="229.45,-113.323 151.45,-113.323 151.45,-77.3233 229.45,-77.3233 229.45,-113.323"/>
<text text-anchor="middle" x="190.45" y="-92.9233" font-family="arial" font-size="10.50" fill="#212121">scene.lr_off</text>
</g>
<!-- scene.lr_off&#45;&gt;light.hue_color_lamp_2 -->
<g id="edge6" class="edge"><title>scene.lr_off&#45;&gt;light.hue_color_lamp_2</title>
<path fill="none" stroke="black" d="M151.288,-85.9711C103.858,-73.8822 78.1117,-62.3418 -31.6934,-8.0096"/>
<polygon fill="black" stroke="black" points="-38.7019,-4.54024 -30.483,-4.84289 -35.3411,-6.20391 -31.9803,-7.86759 -31.9803,-7.86759 -31.9803,-7.86759 -35.3411,-6.20391 -33.4776,-10.8923 -38.7019,-4.54024 -38.7019,-4.54024"/>
<text text-anchor="middle" x="47.6364" y="-53.3428" font-family="arial" font-size="10.50" fill="#212121">off</text>
</g>
<!-- scene.lr_off&#45;&gt;light.hue_color_lamp_3 -->
<g id="edge7" class="edge"><title>scene.lr_off&#45;&gt;light.hue_color_lamp_3</title>
<path fill="none" stroke="black" d="M179.771,-77.2811C164.129,-51.8041 153.678,-41.8477 104.698,-4.59609"/>
<polygon fill="black" stroke="black" points="98.5308,0.0849806 106.545,-1.76121 101.518,-2.18227 104.505,-4.44952 104.505,-4.44952 104.505,-4.44952 101.518,-2.18227 102.464,-7.13783 98.5308,0.0849806 98.5308,0.0849806"/>
<text text-anchor="middle" x="136.174" y="-38.1209" font-family="arial" font-size="10.50" fill="#212121">off</text>
</g>
<!-- scene.lr_off&#45;&gt;light.hue_color_lamp_1 -->
<g id="edge8" class="edge"><title>scene.lr_off&#45;&gt;light.hue_color_lamp_1</title>
<path fill="none" stroke="black" d="M162.932,-113.479C151.267,-120.247 141.566,-123.71 127.742,-125.131"/>
<polygon fill="black" stroke="black" points="120.104,-125.694 127.335,-121.777 123.844,-125.418 127.584,-125.142 127.584,-125.142 127.584,-125.142 123.844,-125.418 127.832,-128.508 120.104,-125.694 120.104,-125.694"/>
<text text-anchor="middle" x="135.917" y="-126.056" font-family="arial" font-size="10.50" fill="#212121">off</text>
</g>
<!-- scene.lr_concentrate -->
<g id="node10" class="node"><title>scene.lr_concentrate</title>
<polygon fill="white" stroke="turquoise" points="-16.2859,-149.937 -138.286,-149.937 -138.286,-113.937 -16.2859,-113.937 -16.2859,-149.937"/>
<text text-anchor="middle" x="-77.2859" y="-129.537" font-family="arial" font-size="10.50" fill="#212121">scene.lr_concentrate</text>
</g>
<!-- scene.lr_concentrate&#45;&gt;light.hue_color_lamp_2 -->
<g id="edge9" class="edge"><title>scene.lr_concentrate&#45;&gt;light.hue_color_lamp_2</title>
<path fill="none" stroke="black" d="M-84.115,-113.491C-95.2218,-82.0253 -94.5462,-69.9947 -81.1664,-11.8494"/>
<polygon fill="black" stroke="black" points="-79.4717,-4.52548 -77.8744,-12.5933 -80.3171,-8.17894 -81.1626,-11.8324 -81.1626,-11.8324 -81.1626,-11.8324 -80.3171,-8.17894 -84.4507,-11.0715 -79.4717,-4.52548 -79.4717,-4.52548"/>
<text text-anchor="middle" x="-96.9419" y="-61.3253" font-family="arial" font-size="10.50" fill="#212121">on</text>
</g>
<!-- scene.lr_concentrate&#45;&gt;light.hue_color_lamp_3 -->
<g id="edge10" class="edge"><title>scene.lr_concentrate&#45;&gt;light.hue_color_lamp_3</title>
<path fill="none" stroke="black" d="M-34.9427,-113.802C2.16189,-95.7634 15.6934,-77.7433 59.2403,-6.71238"/>
<polygon fill="black" stroke="black" points="63.2667,-0.13469 62.2296,-8.29347 61.3089,-3.33306 59.351,-6.53143 59.351,-6.53143 59.351,-6.53143 61.3089,-3.33306 56.4725,-4.76938 63.2667,-0.13469 63.2667,-0.13469"/>
<text text-anchor="middle" x="16.2961" y="-66.9251" font-family="arial" font-size="10.50" fill="#212121">on</text>
</g>
<!-- scene.lr_concentrate&#45;&gt;light.hue_color_lamp_1 -->
<g id="edge11" class="edge"><title>scene.lr_concentrate&#45;&gt;light.hue_color_lamp_1</title>
<path fill="none" stroke="black" d="M-16.0877,-147.585C-9.62186,-147.544 -3.30325,-146.494 3.87424,-144.372"/>
<polygon fill="black" stroke="black" points="11.3753,-141.89 5.31491,-147.45 7.81506,-143.068 4.25483,-144.246 4.25483,-144.246 4.25483,-144.246 7.81506,-143.068 3.19475,-141.042 11.3753,-141.89 11.3753,-141.89"/>
<text text-anchor="middle" x="-8.50033" y="-149.509" font-family="arial" font-size="10.50" fill="#212121">on</text>
</g>
<!-- scene.lr_relax -->
<g id="node11" class="node"><title>scene.lr_relax</title>
<polygon fill="white" stroke="turquoise" points="-141.799,101.176 -230.799,101.176 -230.799,137.176 -141.799,137.176 -141.799,101.176"/>
<text text-anchor="middle" x="-186.299" y="121.576" font-family="arial" font-size="10.50" fill="#212121">scene.lr_relax</text>
</g>
<!-- scene.lr_relax&#45;&gt;light.hue_color_lamp_2 -->
<g id="edge12" class="edge"><title>scene.lr_relax&#45;&gt;light.hue_color_lamp_2</title>
<path fill="none" stroke="black" d="M-173.336,101.042C-158.581,81.2189 -147.571,71.1826 -104.065,36.4727"/>
<polygon fill="black" stroke="black" points="-98.0057,31.6452 -105.975,33.6787 -100.939,33.9818 -103.872,36.3185 -103.872,36.3185 -103.872,36.3185 -100.939,33.9818 -101.769,38.9582 -98.0057,31.6452 -98.0057,31.6452"/>
<text text-anchor="middle" x="-144.176" y="60.2881" font-family="arial" font-size="10.50" fill="#212121">on</text>
</g>
<!-- scene.lr_relax&#45;&gt;light.hue_color_lamp_3 -->
<g id="edge13" class="edge"><title>scene.lr_relax&#45;&gt;light.hue_color_lamp_3</title>
<path fill="none" stroke="black" d="M-141.642,115.592C-90.8838,110.056 -65.7452,98.1201 35.9625,40.2355"/>
<polygon fill="black" stroke="black" points="42.7736,36.3558 34.5862,37.1353 39.5151,38.2119 36.2566,40.0679 36.2566,40.0679 36.2566,40.0679 39.5151,38.2119 37.9271,43.0006 42.7736,36.3558 42.7736,36.3558"/>
<text text-anchor="middle" x="-51.7128" y="93.2825" font-family="arial" font-size="10.50" fill="#212121">on</text>
</g>
<!-- scene.lr_relax&#45;&gt;light.hue_color_lamp_1 -->
<g id="edge14" class="edge"><title>scene.lr_relax&#45;&gt;light.hue_color_lamp_1</title>
<path fill="none" stroke="black" d="M-179.094,100.96C-136.839,-5.37691 -126.349,-17.7515 15.3848,-101.515"/>
<polygon fill="black" stroke="black" points="22.2338,-105.558 14.0595,-104.652 19.0046,-103.652 15.7753,-101.745 15.7753,-101.745 15.7753,-101.745 19.0046,-103.652 17.4911,-98.8388 22.2338,-105.558 22.2338,-105.558"/>
<text text-anchor="middle" x="-105.714" y="-30.7144" font-family="arial" font-size="10.50" fill="#212121">on</text>
</g>
<!-- input_select.scene_livingroom -->
<g id="node12" class="node"><title>input_select.scene_livingroom</title>
<polygon fill="white" stroke="black" points="259.88,-194.684 94.8803,-194.684 94.8803,-158.684 259.88,-158.684 259.88,-194.684"/>
<text text-anchor="middle" x="177.38" y="-174.284" font-family="arial" font-size="10.50" fill="#212121">input_select.scene_livingroom</text>
</g>
<!-- input_select.scene_livingroom&#45;&gt;input_select.scene_livingroom -->
<g id="edge15" class="edge"><title>input_select.scene_livingroom&#45;&gt;input_select.scene_livingroom</title>
<path fill="none" stroke="black" d="M260.177,-182.599C270.837,-181.573 277.88,-179.602 277.88,-176.684 277.88,-174.541 274.082,-172.908 267.842,-171.786"/>
<polygon fill="black" stroke="black" points="260.177,-170.768 268.056,-168.409 263.894,-171.261 267.611,-171.755 267.611,-171.755 267.611,-171.755 263.894,-171.261 267.167,-175.101 260.177,-170.768 260.177,-170.768"/>
<text text-anchor="middle" x="339.88" y="-174.284" font-family="arial" font-size="10.50" fill="#212121">input_select.select_option</text>
</g>
<!-- {% if is_state( &quot;input_select.scene_livingroom&quot;, &quot;Nightlight&quot; ) %}
 &#160;scene.livingroom_nightlight
{%&#45;elif is_state( &quot;input_select.scene_livingroom&quot;, &quot;Dimmed&quot; ) %}
 &#160;scene.livingroom_dimmed
{%&#45;elif is_state( &quot;input_select.scene_livingroom&quot;, &quot;Relax&quot; ) %}
 &#160;scene.livingroom_relax
{%&#45;elif is_state( &quot;input_select.scene_livingroom&quot;, &quot;Read&quot; ) %}
 &#160;scene.livingroom_read
{%&#45;elif is_state( &quot;input_select.scene_livingroom&quot;, &quot;Bright&quot; ) %}
 &#160;scene.livingroom_concentrate
{%&#45;elif is_state( &quot;input_select.scene_livingroom&quot;, &quot;Off&quot; ) %}
 &#160;scene.livingroom_off
{% endif %}
 -->
<g id="node13" class="node"><title>{% if is_state( &quot;input_select.scene_livingroom&quot;, &quot;Nightlight&quot; ) %}
 &#160;scene.livingroom_nightlight
{%&#45;elif is_state( &quot;input_select.scene_livingroom&quot;, &quot;Dimmed&quot; ) %}
 &#160;scene.livingroom_dimmed
{%&#45;elif is_state( &quot;input_select.scene_livingroom&quot;, &quot;Relax&quot; ) %}
 &#160;scene.livingroom_relax
{%&#45;elif is_state( &quot;input_select.scene_livingroom&quot;, &quot;Read&quot; ) %}
 &#160;scene.livingroom_read
{%&#45;elif is_state( &quot;input_select.scene_livingroom&quot;, &quot;Bright&quot; ) %}
 &#160;scene.livingroom_concentrate
{%&#45;elif is_state( &quot;input_select.scene_livingroom&quot;, &quot;Off&quot; ) %}
 &#160;scene.livingroom_off
{% endif %}
</title>
<polygon fill="white" stroke="black" points="599.057,-258.677 276.057,-258.677 276.057,-94.6774 599.057,-94.6774 599.057,-258.677"/>
<text text-anchor="middle" x="437.557" y="-246.277" font-family="arial" font-size="10.50" fill="#212121">{% if is_state( &quot;input_select.scene_livingroom&quot;, &quot;Nightlight&quot; ) %}</text>
<text text-anchor="middle" x="437.557" y="-234.277" font-family="arial" font-size="10.50" fill="#212121"> &#160;scene.livingroom_nightlight</text>
<text text-anchor="middle" x="437.557" y="-222.277" font-family="arial" font-size="10.50" fill="#212121">{%&#45;elif is_state( &quot;input_select.scene_livingroom&quot;, &quot;Dimmed&quot; ) %}</text>
<text text-anchor="middle" x="437.557" y="-210.277" font-family="arial" font-size="10.50" fill="#212121"> &#160;scene.livingroom_dimmed</text>
<text text-anchor="middle" x="437.557" y="-198.277" font-family="arial" font-size="10.50" fill="#212121">{%&#45;elif is_state( &quot;input_select.scene_livingroom&quot;, &quot;Relax&quot; ) %}</text>
<text text-anchor="middle" x="437.557" y="-186.277" font-family="arial" font-size="10.50" fill="#212121"> &#160;scene.livingroom_relax</text>
<text text-anchor="middle" x="437.557" y="-174.277" font-family="arial" font-size="10.50" fill="#212121">{%&#45;elif is_state( &quot;input_select.scene_livingroom&quot;, &quot;Read&quot; ) %}</text>
<text text-anchor="middle" x="437.557" y="-162.277" font-family="arial" font-size="10.50" fill="#212121"> &#160;scene.livingroom_read</text>
<text text-anchor="middle" x="437.557" y="-150.277" font-family="arial" font-size="10.50" fill="#212121">{%&#45;elif is_state( &quot;input_select.scene_livingroom&quot;, &quot;Bright&quot; ) %}</text>
<text text-anchor="middle" x="437.557" y="-138.277" font-family="arial" font-size="10.50" fill="#212121"> &#160;scene.livingroom_concentrate</text>
<text text-anchor="middle" x="437.557" y="-126.277" font-family="arial" font-size="10.50" fill="#212121">{%&#45;elif is_state( &quot;input_select.scene_livingroom&quot;, &quot;Off&quot; ) %}</text>
<text text-anchor="middle" x="437.557" y="-114.277" font-family="arial" font-size="10.50" fill="#212121"> &#160;scene.livingroom_off</text>
<text text-anchor="middle" x="437.557" y="-102.277" font-family="arial" font-size="10.50" fill="#212121">{% endif %}</text>
</g>
<!-- input_select.scene_livingroom&#45;&gt;{% if is_state( &quot;input_select.scene_livingroom&quot;, &quot;Nightlight&quot; ) %}
 &#160;scene.livingroom_nightlight
{%&#45;elif is_state( &quot;input_select.scene_livingroom&quot;, &quot;Dimmed&quot; ) %}
 &#160;scene.livingroom_dimmed
{%&#45;elif is_state( &quot;input_select.scene_livingroom&quot;, &quot;Relax&quot; ) %}
 &#160;scene.livingroom_relax
{%&#45;elif is_state( &quot;input_select.scene_livingroom&quot;, &quot;Read&quot; ) %}
 &#160;scene.livingroom_read
{%&#45;elif is_state( &quot;input_select.scene_livingroom&quot;, &quot;Bright&quot; ) %}
 &#160;scene.livingroom_concentrate
{%&#45;elif is_state( &quot;input_select.scene_livingroom&quot;, &quot;Off&quot; ) %}
 &#160;scene.livingroom_off
{% endif %}
 -->
<g id="edge16" class="edge"><title>input_select.scene_livingroom&#45;&gt;{% if is_state( &quot;input_select.scene_livingroom&quot;, &quot;Nightlight&quot; ) %}
 &#160;scene.livingroom_nightlight
{%&#45;elif is_state( &quot;input_select.scene_livingroom&quot;, &quot;Dimmed&quot; ) %}
 &#160;scene.livingroom_dimmed
{%&#45;elif is_state( &quot;input_select.scene_livingroom&quot;, &quot;Relax&quot; ) %}
 &#160;scene.livingroom_relax
{%&#45;elif is_state( &quot;input_select.scene_livingroom&quot;, &quot;Read&quot; ) %}
 &#160;scene.livingroom_read
{%&#45;elif is_state( &quot;input_select.scene_livingroom&quot;, &quot;Bright&quot; ) %}
 &#160;scene.livingroom_concentrate
{%&#45;elif is_state( &quot;input_select.scene_livingroom&quot;, &quot;Off&quot; ) %}
 &#160;scene.livingroom_off
{% endif %}
</title>
<path fill="none" stroke="black" d="M259.968,-176.684C262.585,-176.684 265.276,-176.684 268.062,-176.684"/>
<polygon fill="black" stroke="black" points="275.674,-176.683 268.174,-180.059 271.924,-176.683 268.174,-176.684 268.174,-176.684 268.174,-176.684 271.924,-176.683 268.174,-173.309 275.674,-176.683 275.674,-176.683"/>
<text text-anchor="middle" x="233.041" y="-180.284" font-family="arial" font-size="10.50" fill="#212121">scene.turn_on</text>
</g>
<!-- script.refresh_devices -->
<g id="node14" class="node"><title>script.refresh_devices</title>
<polygon fill="white" stroke="brown" points="-54.1403,-211.014 -181.14,-211.014 -181.14,-175.014 -54.1403,-175.014 -54.1403,-211.014"/>
<text text-anchor="middle" x="-117.64" y="-190.614" font-family="arial" font-size="10.50" fill="#212121">script.refresh_devices</text>
</g>
<!-- mqtt -->
<g id="node15" class="node"><title>mqtt</title>
<polygon fill="white" stroke="black" points="7.25409,-210.966 -46.7459,-210.966 -46.7459,-174.966 7.25409,-174.966 7.25409,-210.966"/>
<text text-anchor="middle" x="-19.7459" y="-190.566" font-family="arial" font-size="10.50" fill="#212121">mqtt</text>
</g>
<!-- script.refresh_devices&#45;&gt;mqtt -->
<g id="edge17" class="edge"><title>script.refresh_devices&#45;&gt;mqtt</title>
<path fill="none" stroke="black" d="M-53.9815,-199.454C-53.8354,-199.449 -53.6895,-199.443 -53.5439,-199.437"/>
<polygon fill="black" stroke="black" points="-47.1422,-199.111 -54.4608,-202.863 -50.8873,-199.302 -54.6325,-199.492 -54.6325,-199.492 -54.6325,-199.492 -50.8873,-199.302 -54.8041,-196.122 -47.1422,-199.111 -47.1422,-199.111"/>
<text text-anchor="middle" x="-24.5985" y="-203.039" font-family="arial" font-size="10.50" fill="#212121">mqtt.publish</text>
</g>
<!-- script.refresh_devices&#45;&gt;mqtt -->
<g id="edge18" class="edge"><title>script.refresh_devices&#45;&gt;mqtt</title>
<path fill="none" stroke="black" d="M-53.9878,-186.511C-53.8417,-186.517 -53.6958,-186.523 -53.5501,-186.528"/>
<polygon fill="black" stroke="black" points="-47.1481,-186.848 -54.8071,-189.845 -50.8934,-186.661 -54.6388,-186.474 -54.6388,-186.474 -54.6388,-186.474 -50.8934,-186.661 -54.4704,-183.103 -47.1481,-186.848 -47.1481,-186.848"/>
<text text-anchor="middle" x="-53.6048" y="-178.126" font-family="arial" font-size="10.50" fill="#212121">mqtt.publish</text>
</g>
<!-- script.play_cartoons -->
<g id="node16" class="node"><title>script.play_cartoons</title>
<polygon fill="white" stroke="brown" points="41.6181,-320.934 -76.3819,-320.934 -76.3819,-284.934 41.6181,-284.934 41.6181,-320.934"/>
<text text-anchor="middle" x="-17.3819" y="-300.534" font-family="arial" font-size="10.50" fill="#212121">script.play_cartoons</text>
</g>
<!-- shell_command -->
<g id="node17" class="node"><title>shell_command</title>
<polygon fill="white" stroke="black" points="74.6387,-263.61 -21.3613,-263.61 -21.3613,-227.61 74.6387,-227.61 74.6387,-263.61"/>
<text text-anchor="middle" x="26.6387" y="-243.21" font-family="arial" font-size="10.50" fill="#212121">shell_command</text>
</g>
<!-- script.play_cartoons&#45;&gt;shell_command -->
<g id="edge19" class="edge"><title>script.play_cartoons&#45;&gt;shell_command</title>
<path fill="none" stroke="black" d="M6.13365,-284.703C8.82565,-281.134 11.4384,-276.675 14.6202,-270.483"/>
<polygon fill="black" stroke="black" points="18.0158,-263.681 17.6855,-271.899 16.3408,-267.036 14.6659,-270.391 14.6659,-270.391 14.6659,-270.391 16.3408,-267.036 11.6462,-268.884 18.0158,-263.681 18.0158,-263.681"/>
<text text-anchor="middle" x="-59.393" y="-265.907" font-family="arial" font-size="10.50" fill="#212121">shell_command.play_cartoons</text>
</g>
<!-- scene.lr_dimmed -->
<g id="node18" class="node"><title>scene.lr_dimmed</title>
<polygon fill="white" stroke="turquoise" points="232.051,99.7158 129.051,99.7158 129.051,135.716 232.051,135.716 232.051,99.7158"/>
<text text-anchor="middle" x="180.551" y="120.116" font-family="arial" font-size="10.50" fill="#212121">scene.lr_dimmed</text>
</g>
<!-- scene.lr_dimmed&#45;&gt;light.hue_color_lamp_2 -->
<g id="edge20" class="edge"><title>scene.lr_dimmed&#45;&gt;light.hue_color_lamp_2</title>
<path fill="none" stroke="black" d="M128.83,108.666C88.1725,99.7726 59.5082,85.8493 -34.9071,35.2434"/>
<polygon fill="black" stroke="black" points="-41.5203,31.6966 -36.506,38.2157 -38.2156,33.469 -34.9108,35.2414 -34.9108,35.2414 -34.9108,35.2414 -38.2156,33.469 -33.3157,32.2672 -41.5203,31.6966 -41.5203,31.6966"/>
<text text-anchor="middle" x="34.7778" y="71.5981" font-family="arial" font-size="10.50" fill="#212121">on</text>
</g>
<!-- scene.lr_dimmed&#45;&gt;light.hue_color_lamp_3 -->
<g id="edge21" class="edge"><title>scene.lr_dimmed&#45;&gt;light.hue_color_lamp_3</title>
<path fill="none" stroke="black" d="M167.521,99.412C154.04,81.376 143.297,71.7353 103.841,40.9961"/>
<polygon fill="black" stroke="black" points="97.808,36.3042 101.657,43.5726 100.768,38.6063 103.728,40.9084 103.728,40.9084 103.728,40.9084 100.768,38.6063 105.8,38.2441 97.808,36.3042 97.808,36.3042"/>
<text text-anchor="middle" x="128.017" y="61.8822" font-family="arial" font-size="10.50" fill="#212121">on</text>
</g>
<!-- scene.lr_dimmed&#45;&gt;light.hue_color_lamp_1 -->
<g id="edge22" class="edge"><title>scene.lr_dimmed&#45;&gt;light.hue_color_lamp_1</title>
<path fill="none" stroke="black" d="M179.194,99.5379C171.603,0.11064 166.167,-12.2225 76.983,-100.393"/>
<polygon fill="black" stroke="black" points="71.5529,-105.754 74.5191,-98.0832 74.2215,-103.12 76.8902,-100.485 76.8902,-100.485 76.8902,-100.485 74.2215,-103.12 79.2613,-102.887 71.5529,-105.754 71.5529,-105.754"/>
<text text-anchor="middle" x="143.677" y="-22.8465" font-family="arial" font-size="10.50" fill="#212121">on</text>
</g>
<!-- event -->
<g id="node19" class="node"><title>event</title>
<polygon fill="white" stroke="black" points="77.7432,-195.456 23.7432,-195.456 23.7432,-159.456 77.7432,-159.456 77.7432,-195.456"/>
<text text-anchor="middle" x="50.7432" y="-175.056" font-family="arial" font-size="10.50" fill="#212121">event</text>
</g>
<!-- event&#45;&gt;shell_command -->
<g id="edge23" class="edge"><title>event&#45;&gt;shell_command</title>
<path fill="none" stroke="black" d="M49.7385,-195.509C48.6554,-202.729 46.221,-209.037 40.3173,-220.425"/>
<polygon fill="black" stroke="black" points="36.667,-227.312 37.1974,-219.104 38.4233,-223.998 40.1795,-220.685 40.1795,-220.685 40.1795,-220.685 38.4233,-223.998 43.1615,-222.265 36.667,-227.312 36.667,-227.312"/>
<text text-anchor="middle" x="-32.4776" y="-215.489" font-family="arial" font-size="10.50" fill="#212121">shell_command.generate_graph</text>
</g>
<!-- scene.lr_nightlight -->
<g id="node20" class="node"><title>scene.lr_nightlight</title>
<polygon fill="white" stroke="turquoise" points="52.1927,129.57 -56.8073,129.57 -56.8073,165.57 52.1927,165.57 52.1927,129.57"/>
<text text-anchor="middle" x="-2.30728" y="149.97" font-family="arial" font-size="10.50" fill="#212121">scene.lr_nightlight</text>
</g>
<!-- scene.lr_nightlight&#45;&gt;light.hue_color_lamp_2 -->
<g id="edge24" class="edge"><title>scene.lr_nightlight&#45;&gt;light.hue_color_lamp_2</title>
<path fill="none" stroke="black" d="M-24.53,129.238C-48.2665,108.334 -53.9873,94.7969 -68.5945,39.2006"/>
<polygon fill="black" stroke="black" points="-70.5196,31.8324 -71.889,39.942 -69.5716,35.4606 -68.6237,39.0888 -68.6237,39.0888 -68.6237,39.0888 -69.5716,35.4606 -65.3583,38.2356 -70.5196,31.8324 -70.5196,31.8324"/>
<text text-anchor="middle" x="-62.2251" y="79.6501" font-family="arial" font-size="10.50" fill="#212121">on</text>
</g>
<!-- scene.lr_nightlight&#45;&gt;light.hue_color_lamp_3 -->
<g id="edge25" class="edge"><title>scene.lr_nightlight&#45;&gt;light.hue_color_lamp_3</title>
<path fill="none" stroke="black" d="M22.2577,129.372C48.2626,108.816 54.2189,95.8529 67.9196,43.674"/>
<polygon fill="black" stroke="black" points="69.8144,36.4044 64.6568,42.8107 68.8685,40.0332 67.9227,43.6619 67.9227,43.6619 67.9227,43.6619 68.8685,40.0332 71.1886,44.5132 69.8144,36.4044 69.8144,36.4044"/>
<text text-anchor="middle" x="48.6335" y="82.5997" font-family="arial" font-size="10.50" fill="#212121">on</text>
</g>
<!-- scene.lr_nightlight&#45;&gt;light.hue_color_lamp_1 -->
<g id="edge26" class="edge"><title>scene.lr_nightlight&#45;&gt;light.hue_color_lamp_1</title>
<path fill="none" stroke="black" d="M9.44768,129.23C75.5972,25.7471 78.932,12.9149 58.0978,-98.1239"/>
<polygon fill="black" stroke="black" points="56.6909,-105.582 54.7648,-97.5862 57.3861,-101.897 58.0813,-98.2119 58.0813,-98.2119 58.0813,-98.2119 57.3861,-101.897 61.3978,-98.8375 56.6909,-105.582 56.6909,-105.582"/>
<text text-anchor="middle" x="59.9296" y="14.6106" font-family="arial" font-size="10.50" fill="#212121">on</text>
</g>
</g>
</svg>
